<?xml version="1.0" encoding="UTF-8"?>
<svg id="Livello_1" data-name="Livello 1" xmlns="http://www.w3.org/2000/svg" viewBox="0 0 1133.86 1133.86">
  <defs>
    <style>
      .cls-1 {
        stroke-width: 0px;
      }
    </style>
  </defs>
  <path class="cls-1" d="m483.45,516.49c-1.88.18-3.02.59-3.86,1.79-.82,1.19-1.85,2.23-2.77,3.35-4.41,5.44-10.13,8.06-17.1,7.89-3.91-.09-6.82-2.1-8.97-5.24-1.77-2.58-2.37-5.45-2.41-8.62-.07-4.62-.07-9.28-1.1-13.85-.13-.56-.3-1.16-.23-1.72.8-7.11-2.67-13.2-4.58-19.67-1.23-4.16-2.58-8.3-3.4-12.54-.54-2.79-.38-5.76-.21-8.63.08-1.26-.03-2.21-.75-3.21-1.69-2.35-3.31-4.76-4.95-7.15-.41-.6-.98-1.17-1.14-1.84-1.23-4.94-5.34-7.02-9.23-9.15-9.07-4.95-17.61-10.68-25.49-17.33-3.87-3.27-7.49-6.84-11.1-10.4-6.51-6.42-12.19-13.58-17.8-20.78-1.95-2.5-3.51-5.32-5.05-8.1-.6-1.09-.88-2.47-.94-3.73-.16-3.33.17-6.58,1.22-9.84,1.25-3.89,2.75-7.59,5.05-10.97,3.04-4.45,7.25-7.23,12.12-9.43,3.98-1.81,8.15-1.75,12.26-2.35,4.13-.61,8.07.59,11.94,1.79,3.59,1.11,7.14,2.38,10.65,3.73,3.92,1.51,7.77,3.18,11.65,4.78.67.28,1.32.59,2,.85,3.07,1.2,4.28,1.57,4.84-2.66.36-2.74,1.77-5.18,3.48-7.4,3.11-4.03,6.57-7.7,10.47-10.99,3.43-2.9,6.66-6.04,9.95-9.1,7.64-7.1,15.18-14.3,22.92-21.3,4.08-3.69,8.45-7.05,12.73-10.51,2.27-1.84,4.69-3.42,7.77-3.52,5.94-2.46,11.86-1.29,17.83-.03,3.96.83,8.01,1.25,12.02,1.86,1.29.2,2.57.43,3.86.67,4.98.93,9.97,1.87,14.95,2.82,1.14.22,2.27.46,3.4.74,7.45,1.84,14.89,3.73,22.35,5.5,2.81.67,5.69,1.04,8.54,1.54.43.08.88.04,1.29.17,5.83,1.82,11.89,2.52,17.86,3.69,6.1,1.2,12.25,2.17,18.36,3.35,7.38,1.42,14.91,2.04,22.18,4.15,5.33,1.55,10.28,3.88,15.14,6.5,3.65,1.97,6.8,4.38,8.19,8.51.05.13.13.27.22.37,4.97,5.55,6.93,12.64,9.9,19.22,1.58,3.49,1.89,7.28,2.67,10.96,2.25,10.62,4.14,21.32,6.91,31.83,1.48,5.59,3,11.17,4.5,16.75,2.11,7.86,5.29,15.33,7.41,23.16.45,1.67,1.25,3.24,1.89,4.85.96,2.43,1.94,4.85,2.87,7.28,1.09,2.84,2.09,5.71,3.21,8.54,1.07,2.69,2.26,5.34,3.37,8.01,2.55,6.16,5.17,12.29,7.62,18.48,3.19,8.07,6.49,16.09,8.97,24.45,2.68,9.02,5.84,17.92,9.22,26.71,2.02,5.26,4.68,10.29,7.34,15.27,3.27,6.14,6.72,12.18,10.08,18.26,3.01,5.44,6.32,10.72,9.07,16.31.19.39.39.79.68,1.11,4.63,5.28,7.64,11.61,11.31,17.51,1.83,2.95,3.84,5.81,6.01,8.51,1.56,1.93,2.9,3.96,4.18,6.06,2.95,4.82,6.04,9.55,9.05,14.34.77,1.23,1.46,2.51,2.13,3.79.33.64.72,1.32.79,2.01.13,1.24.61,2.62-.62,3.63-.71.59-1.89-.01-3.08-1.76-2.21-3.23-4.35-6.5-6.47-9.79-2.51-3.9-4.94-7.85-7.43-11.76-.7-1.1-1.37-2.26-2.26-3.19-3.05-3.17-5.24-6.92-7.42-10.69-1.96-3.39-4.03-6.72-6.06-10.06-.38-.62-.73-1.28-1.22-1.8-3.17-3.31-5.04-7.4-7.11-11.39-.93-1.79-2.07-3.48-3.1-5.22-1.61-2.75-3.25-5.48-4.8-8.26-1.63-2.91-3.03-5.94-4.77-8.78-7.33-11.95-12.35-24.88-16.84-38.09-2.75-8.08-4.85-16.38-8.29-24.25-2.2-5.03-3.86-10.3-5.9-15.4-1.78-4.44-3.84-8.76-5.63-13.19-3.84-9.54-7.75-19.05-11.3-28.7-2.49-6.79-4.45-13.78-6.61-20.68-1.47-4.7-3.07-9.37-4.29-14.14-2.43-9.53-4.84-19.08-6.49-28.79-.53-3.14-1.34-6.23-2.01-9.34-.31-1.42-.75-2.82-.86-4.26-.2-2.66-1.1-5.07-2.07-7.5-1.08-2.69-2.18-5.37-3.03-8.14-.61-1.99-1.63-3.7-2.78-5.37-.9-1.31-1.98-2.56-2.61-4-1.71-3.88-5.01-5.89-8.53-7.7-6.89-3.54-14.17-5.78-21.83-6.99-8.15-1.28-16.31-2.62-24.39-4.3-7.37-1.53-14.91-2.19-22.13-4.46-1.09-.34-2.28-.39-3.43-.52-6.65-.77-12.96-3.06-19.48-4.42-4.95-1.04-9.84-2.37-14.77-3.48-4.66-1.05-9.33-2.03-14.02-2.96-2.26-.45-4.57-.7-6.85-1.06-2.58-.41-5.15-.81-7.72-1.26-2.71-.48-5.41-1.03-8.12-1.53-4.01-.74-7.79.2-11.43,1.73-1.57.66-3.03,1.69-4.39,2.75-3.09,2.4-6.14,4.86-9.1,7.41-3.41,2.93-6.74,5.95-10.04,9-2.45,2.26-4.77,4.65-7.2,6.92-3.82,3.56-7.67,7.07-11.53,10.59-4.07,3.71-8.26,7.3-12.2,11.15-2.06,2.01-3.78,4.39-5.5,6.71-1.79,2.41-2.16,5.34-2.51,8.23-.09.78.19,1.44.92,1.8,1.17.57,2.34,1.14,3.55,1.63,2.83,1.15,5.62,2.34,8.07,4.22.23.18.48.33.73.47,7.79,3.96,14.74,9.18,21.74,14.33.31.23.99.46,1.13.33.36-.36.78-.97.71-1.4-1.15-7.65-.44-15.35-.68-23.02-.08-2.66-.86-4.76-2.66-6.61-.7-.72-1.41-1.5-1.86-2.38-.28-.55-.35-1.51-.04-1.98.3-.47,1.18-.71,1.83-.77.53-.05,1.08.36,1.64.52,2.02.59,3.36,0,4.16-1.89.28-.66.38-1.39.59-2.09,1.5-4.96,4.16-9.32,7.72-12.96,3.24-3.32,7.28-5.7,11.45-7.8,1.8-.91,3.45-2.09,5.2-3.1.98-.57,1.98-1.16,3.04-1.57,3.1-1.2,6.23-2.32,9.53-3.55-.37-1.88-1.68-3.11-2.44-4.61-.39-.76-.92-1.54-.27-2.39.45-.6,1.92-.65,2.81.11,1.54,1.31,2.99,2.74,4.35,4.22.68.74,1.31.93,2.27.8,3.59-.48,7.17-1.05,10.78-1.28,6.09-.38,12.19-.19,18.18,1.07,7.29,1.53,14.18,4.05,19.97,8.97,2.1,1.78,4.5,3.28,6.3,5.31,2.09,2.37,3.73,5.15,5.47,7.81,4.87,7.41,6.36,15.72,6.61,24.43.26,8.88-.52,17.64-1.84,26.4-.54,3.57-.62,7.21-1.06,10.8-.33,2.72-.89,5.42-1.35,8.12-.16.96-.32,1.91.02,3.03.37-.75.8-1.47,1.1-2.24,2.32-6.14,5.47-11.8,9.43-17.06,1.99-2.64,3.54-5.64,5.12-8.56,1.34-2.47,2.85-4.71,5.49-5.95.62-.29,1.63.18,1.68.89.06.83.04,1.73-.23,2.49-.28.8-.9,1.48-1.38,2.2-.56.84-1.27,1.62-1.68,2.53-3.54,7.84-9.09,14.45-13.24,21.91-1.06,1.9-2.03,3.84-2.94,5.81-.27.57-.18,1.31-.31,2.44,4.44-2.26,8.5-4.15,12.39-6.33,5.18-2.91,10.37-5.85,15.3-9.14,2.99-1.99,5.58-4.61,8.22-7.08,1.75-1.64,3.78-2.65,5.98-3.4.33-.11,1.02.06,1.13.29.21.45.38,1.26.13,1.55-3.86,4.51-7.44,9.29-12.34,12.79-7.57,5.41-15.67,9.94-24.06,13.92-6.28,2.98-12.79,5.46-19.1,8.38-3.92,1.81-7.65,4.02-11.33,5.97-.19,1.29.71,1.45,1.25,1.76,1.39.77,2.83,1.46,4.29,2.1,6.92,3.04,13.47,6.73,19.62,11.14,4.94,3.55,9.86,7.13,14.92,10.52,2.37,1.59,3.96,3.79,5.68,5.92.37.46.54,1.11-.07,1.51-.28.18-.86.17-1.16,0-2.63-1.53-5.28-3.03-7.83-4.69-5.95-3.87-11.76-7.96-17.79-11.71-3.55-2.21-7.35-4.06-11.14-5.85-7.73-3.66-15.66-6.84-23.61-9.98-9.29-3.67-18.53-7.48-27.54-11.84-3.52-1.7-7.21-3.06-10.7-4.81-4.27-2.14-8.47-4.44-12.6-6.85-10.29-6.01-19.89-13.01-29.3-20.3-1.37-1.06-2.85-1.98-4.27-2.98-1.77-1.25-3.52-2.52-5.28-3.79-.35-.25-.66-.58-1.04-.79-5.02-2.89-10.01-5.82-15.08-8.62-2.4-1.33-4.9-2.51-7.42-3.61-5.98-2.6-11.96-5.18-18-7.64-4.56-1.86-9.2-3.51-13.79-5.27-2.33-.89-4.74-1.26-7.22-1.41-8.05-.5-15.16,1.58-21.11,7.24-2.49,2.37-4.07,5.26-5.4,8.31-2.06,4.72-3.21,9.59-2.05,14.8.35,1.59.78,3.01,1.95,4.24,2.59,2.73,5.08,5.55,7.58,8.37,3.08,3.46,6.08,7.01,9.21,10.42,7.37,8.05,15.55,15.24,24.56,21.34,7.43,5.03,15.22,9.49,23.21,13.66,9.1,4.75,18.25,9.56,26.04,16.46.32.29.68.55,1.04.79,7.98,5.4,14.7,12.18,21.2,19.24,3.42,3.72,6.81,7.47,10.55,10.92,4.02,3.73,7.56,8.01,11.09,12.23,5.02,6,9.86,12.16,14.76,18.26.82,1.02,1.57,2.08,2.33,3.14,4.67,6.45,9.29,12.95,14.03,19.36,2.93,3.96,5.79,8.01,9.14,11.61,3.34,3.6,5.9,7.88,9.8,10.98.73.58.93,1.77,1.56,2.52,5.2,6.23,10.03,12.77,15.95,18.37,2.1,1.99,4.07,4.13,6.14,6.16,9.65,9.45,19.96,18.11,31.04,25.83,2.4,1.67,4.61,3.5,5.53,6.41.1.31-.13.79-.34,1.1-.12.17-.56.28-.78.2-.82-.28-1.66-.56-2.4-.99-2.25-1.32-4.46-2.71-6.69-4.06-.56-.34-1.15-.61-1.89-.99.03.63-.06.97.07,1.13,7.35,8.97,14.71,17.92,22.08,26.88.28.34.58.65.89.95,9.33,8.91,18.72,17.75,27.96,26.76,4.45,4.34,8.79,8.83,12.85,13.53,3.78,4.38,7.26,9.05,10.63,13.76,4.56,6.37,8.66,13.04,12.29,19.99,2.89,5.52,5.68,11.09,8.5,16.65.99,1.95,1.91,3.94,1.55,6.22-.06.37-.35.86-.65.98-.3.12-.87-.05-1.12-.3-2.66-2.7-4.72-5.86-6.56-9.14-2.84-5.05-5.34-10.3-8.23-15.32-2.89-5.02-5.94-9.96-9.16-14.77-6.64-9.91-14.67-18.69-22.9-27.29-1.7-1.77-3.81-3.13-5.5-4.91-3.49-3.68-7.01-7.33-10.96-10.54-.34-.27-.64-.6-.91-.93-3.13-3.83-6.87-7.05-10.39-10.49-2.9-2.83-5.71-5.78-8.26-8.92-5.94-7.31-11.71-14.76-17.55-22.15-3.69-4.66-7.28-9.39-11.13-13.91-2.44-2.86-5.22-5.44-7.93-8.05-5.63-5.43-11.29-10.83-16.2-16.96-2.15-2.68-4.44-5.26-6.59-7.79-1.25.27-1.01,1.14-1.17,1.77-2.51,9.88-2.91,20.07-4.17,30.12-.75,6.04-1.53,12.09-1.78,18.16-.25,6.11-.86,12.12-2.09,18.1-.23,1.13-.41,2.28-.5,3.44-.52,6.79-1.25,13.58-1.44,20.38-.19,6.83-.96,13.56-1.99,20.29-.26,1.71-.17,3.47-.2,5.21-.07,3.78-.44,7.51-1.25,11.22-.46,2.1-.44,4.31-.67,6.47-.51,4.75-1.03,9.5-1.54,14.24-.51,4.74-1.1,9.47-1.44,14.24-.11,1.55-.7,3.07-1.06,4.61-.13.55-.43,1.15-.31,1.65.65,2.79-.54,5.45-.46,8.2.09,2.9-1.35,5.32-2.72,7.67-1.31,2.26-3.73,3.15-6.1,3.89-1.37.43-2.83.6-4.25.86-.42.08-.88.17-1.3.09-5.41-1.02-10.36-2.71-12.93-8.28-1.78-3.87-2.64-7.97-3.4-12.09-.28-1.52-.02-3.18.23-4.74.45-2.76.42-5.44-.49-8.1-.23-.68-.58-1.39-.58-2.08-.02-4.21-.89-8.36-1.09-12.53-.18-3.79-.82-7.48-1.19-11.23-.29-3.02-.44-6.06-.7-9.09-.15-1.72-.37-3.44-.59-5.16-.92-7.18-1.67-14.39-2.82-21.54-.88-5.45-1.56-10.89-1.67-16.41-.02-1-.38-1.99-.49-2.99-.27-2.59-.5-5.18-.72-7.77-.25-2.88-.47-5.77-.72-8.65-.17-1.87-.48-3.73-.57-5.61-.26-5.64-.65-11.27-1.55-16.85-.16-1-.11-2.02-.2-3.03-.54-6.06-1.09-12.11-1.63-18.17-.08-.87-.18-1.73-.18-2.6-.01-3.78-.52-7.47-1.32-11.18-.76-3.52-.89-7.17-1.2-10.78-.55-6.49-1.07-12.98-1.53-19.48-.39-5.49-.64-10.99-1.03-16.49-.25-3.46-.65-6.91-.99-10.54Zm2.89-29.15c.27,2.15.59,4.11.74,6.08.57,7.51,1.07,15.02,1.62,22.54.1,1.44.32,2.88.43,4.32.28,3.75.54,7.51.79,11.26.52,7.65,1.03,15.31,1.56,22.96.25,3.61.48,7.22.8,10.82.17,1.86.48,3.72.78,5.57.56,3.42,1.44,6.78,1.45,10.31.01,3.18.52,6.35.8,9.52.43,4.9.86,9.8,1.3,14.7.14,1.59.29,3.17.47,4.75.2,1.72.51,3.43.64,5.16.3,4.04.5,8.09.77,12.13.26,3.9.5,7.8.84,11.69.2,2.3.6,4.58.9,6.87.26,2,.61,4,.72,6.01.19,3.61.32,7.19.98,10.79.94,5.12,1.28,10.34,2.51,15.43.13.55.1,1.15.12,1.73.31,6.36,1.72,12.64,1.53,19.04-.02.57.13,1.16.29,1.71,1,3.39.88,6.87.91,10.35.01,1.58.13,3.18.36,4.74.7,5,1.48,10,2.22,15,.06.43.06.87.06,1.3.01,2.32,0,4.64.02,6.95.03,4.75,1.36,9.13,3.73,13.22,1.5,2.59,3.92,3.86,6.74,4.27,4.73.69,8.95-2.41,9.08-7.12.1-3.8,1.35-7.33,1.64-11.08.52-6.77,1.6-13.5,2.38-20.26.73-6.32,1.29-12.67,2.1-18.98.46-3.58,1.1-7.13,1.02-10.77-.04-1.87.19-3.76.47-5.61.85-5.44,1.67-10.88,1.37-16.42-.08-1.44.12-2.9.28-4.33.56-5.02,1.44-10.01,1.28-15.11-.07-2.14.36-4.31.67-6.46.55-3.72,1.39-7.41,1.76-11.15.53-5.47.75-10.98,1.11-16.46.06-.87.11-1.73.21-2.6.84-7.19,1.66-14.38,2.55-21.56.46-3.73.69-7.54,1.67-11.13,1.01-3.7,1.13-7.42,1.52-11.15.13-1.23-.25-2.22-1.05-3.18-2.41-2.9-4.79-5.82-7.1-8.79-6.75-8.69-13.69-17.24-20.12-26.16-5.43-7.53-10.79-15.07-16.89-22.07-4.18-4.81-8.25-9.72-12.41-14.54-2.36-2.74-2.61-2.87-5.62-4.29Zm97.75-125.06c-.67-13.56-1.67-16.17-6-25.64-2.8-6.13-7.15-10.84-13.07-14.1-1.01-.56-1.93-1.27-2.94-1.83-1.37-.77-2.72-1.71-4.2-2.15-12.78-3.8-25.65-4.37-38.55-.68-3.89,1.11-7.64,2.71-11.53,3.81-5.9,1.66-10.48,5.51-15.24,9.01-2.07,1.52-3.88,3.5-5.5,5.51-4.61,5.77-6.05,12.77-6.97,19.83-.66,5.02.43,10.14-.48,15.18.89,4.01.51,8.09.54,12.14.02,1.93.69,3.31,2.28,4.36,3.38,2.24,6.72,4.55,10.08,6.83,6.49,4.4,13.31,8.24,20.32,11.73,5.18,2.58,10.45,4.99,15.69,7.45,1.05.49,2.14.88,3.21,1.33,6.02,2.49,12.03,4.98,18.06,7.46,2.14.88,4.32,1.67,6.44,2.6.92.4,1.65.24,2.44-.24,2.36-1.41,4.68-2.89,7.11-4.18,3.46-1.83,6.96-3.57,10.51-5.22,1.93-.9,2.81-2.21,2.89-4.37.1-2.74.47-5.48.79-8.21.33-2.88.78-5.75,1.08-8.63.72-6.92,1.4-13.84,2.07-20.77.36-3.75.66-7.5.99-11.24Zm-126.81,142.23c.42-1.65.58-2.18.69-2.72.51-2.69.98-5.4,1.53-8.08.07-.33.55-.76.87-.79.34-.03.93.28,1.05.58.36.92.82,1.93.76,2.87-.15,2.74-.46,5.48-.86,8.19-.14.95-.59,1.94-1.18,2.71-.67.87-.54,1.56-.05,2.34,1.26,2.04,3.24,2.89,5.49,2.92,1.57.03,3.14-.39,4.72-.6,6.45-.9,10.63-7.08,10.61-12.97,0-3.76-.04-7.53-.11-11.29-.01-.65.15-1.49-.96-1.82-1.16.63-2.45,1.28-3.7,1.99-2.99,1.7-6.37,2.11-9.64,2.25-3.25.13-6.19-1.28-8.39-3.89-3.83-4.54-7.33-9.32-10.32-14.47-1.13-1.95-1.98-4.13-4.26-6.05.11,1.44.05,2.3.25,3.09,1.69,6.45,3.76,12.76,6.34,18.91,1.96,4.67,3.87,9.35,5.82,14.02.27.64.6,1.26,1.34,2.8Zm-20.09-57.73c1.18,1.62,2.23,3.11,3.32,4.57,4.26,5.68,7.61,11.94,11.42,17.9,2.95,4.61,6.51,8.83,9.79,13.24,1.88,2.52,4.45,3.15,7.33,2.49,2.1-.48,4.15-1.24,6.18-1.98.8-.29,1.54-.81,2.2-1.35,1.28-1.05,1.33-2.42.4-3.79-3.89-5.71-9.29-9.81-14.58-14.1-.14.29-.29.44-.25.54.22.67.49,1.33.72,2,1.45,4.09,1.27,8.25.54,12.42-.17.94-.86,1.5-1.79,1.65-.66.1-1.34-.91-1.33-1.92,0-.43,0-.87.1-1.29.75-3.18.51-6.31-.29-9.45-.46-1.81-.93-3.62-1.24-5.45-.21-1.25-.8-2.09-1.8-2.8-3.41-2.44-6.7-5.07-10.2-7.37-3.01-1.98-6.25-3.62-9.41-5.39-.18-.1-.5.03-1.12.08Zm15.61,60.99c.09,2.6.18,4.61.22,6.61.05,2.51.56,4.88,2,6.98,1.1,1.6,2.52,2.95,4.51,3.06,3.81.2,7.59-.16,10.69-2.69,1.55-1.26,2.83-2.87,4.18-4.37.3-.34.38-.87.63-1.49-3.03.56-5.69,1.27-8.38,1.51-4.48.4-8.26-1.05-10.84-4.97-.94-1.42-1.86-2.86-3.01-4.64Z"/>
  <path class="cls-1" d="m492.9,877.06c-.65.46-1.14.96-1.74,1.21-3.26,1.33-6.65,2.04-10.18,1.89-8.56-.36-17.05-1-25.24-3.91-2.28-.81-4.81-1.09-7.25-1.24-6.04-.37-11.68-1.86-16.93-4.95-3.99-2.35-8.08-4.56-12.24-6.61-8.98-4.41-15.96-10.97-21.19-19.41-2.73-4.4-6.17-8.13-10.65-10.67-4.77-2.71-8.48-6.53-12.02-10.56-3.72-4.24-7.22-8.68-10.88-12.98-3.72-4.36-6.45-9.23-8.26-14.67-1.37-4.12-2.91-8.18-4.42-12.25-3.56-9.6-4.2-19.47-2.83-29.54.27-2,.31-4.04.42-6.06.13-2.57.89-4.84,2.97-6.5.18-.14.59-.22.74-.12.18.12.34.58.25.73-2.37,3.69-2.52,7.9-2.92,12.07-.38,4.04-.52,8.05-.31,12.13.29,5.71,1.44,11.24,3.15,16.6,1.93,6.06,4.3,12,6.86,17.83,2.18,4.94,5.84,8.98,9.29,13.08,3.08,3.66,6.3,7.2,9.49,10.76,2.33,2.6,4.9,4.92,7.95,6.69,1.38.8,2.66,1.76,4.01,2.61,2.62,1.66,4.65,3.86,6.41,6.4,1.98,2.86,4.09,5.62,6.2,8.39,4.11,5.37,9.16,9.65,15.13,12.84,5.5,2.94,10.97,5.92,16.51,8.77,4.32,2.23,9.05,3.02,13.84,3.3,2.78.17,5.46.62,8.08,1.5,6.66,2.24,13.52,3.18,20.52,3.24,1.3.01,2.62-.03,3.91.16,2.65.38,5.19-.06,7.74-.71,1.09-.28,2.18-.9,3.6-.02Z"/>
  <path class="cls-1" d="m451.28,688.6s1.03.14,1.99.36c.18.04.36.44.38.68.01.22-.17.62-.33.66-.83.19-1.68.33-2.53.43-5.21.57-10.31,1.58-15.02,3.95-4.31,2.17-7.88,5.4-11.34,8.71-1.88,1.8-3.69,3.72-5.25,5.79-1.29,1.71-2.63,3.62-3.14,5.64-1.27,5.12-3.55,9.81-5.76,14.52-3.43,7.29-4.11,15.03-4.24,22.89-.02,1.42.26,2.91.72,4.27,1.73,5.14,2.07,10.48,2.76,15.8.7,5.44,1.81,10.84,2.89,16.22.61,3.05,2.35,5.57,4.4,7.89,2.11,2.38,4.18,4.81,6.28,7.21,1.92,2.18,3.81,4.38,6.32,5.92.25.15.51.31.69.52,3.21,3.8,7.72,4.87,12.27,5.86.28.06.59.07.85.17.71.28,2,.07,1.74,1.31-.21,1-1.35,1.07-2.18.97-4.64-.53-9.16-1.51-12.79-4.75-3.89-3.47-7.75-6.98-10.8-11.27-.92-1.29-2.03-2.48-3.2-3.54-3.49-3.16-5.4-7.21-6.26-11.68-1.3-6.67-2.63-13.35-2.89-20.19-.08-2-.36-4.11-1.08-5.96-2.38-6.06-1.87-12.22-1.21-18.45.68-6.45,3.06-12.33,5.71-18.14,1.2-2.63,2.38-5.24,2.92-8.15.53-2.87,1.91-5.49,3.86-7.7,5.49-6.21,11.22-12.13,18.7-16.03,2.69-1.4,11.61-3.9,15.52-3.88Z"/>
  <path class="cls-1" d="m616.6,761.58c-.48-2.69.25-5.89,1.76-8.95,1.39-2.83,1.64-5.82,1.21-8.9-.49-3.44-.77-6.92-1.52-10.3-.91-4.09-2.23-8.08-3.36-12.12-.15-.54-.25-1.09-.33-1.64-.02-.1.13-.29.24-.34.11-.05.33-.02.4.06.44.54.96,1.04,1.24,1.66,2.5,5.58,4.32,11.35,4.84,17.48.07.87.06,1.77.3,2.59,1.34,4.54.65,8.88-1.13,13.14-1.2,2.86-1.75,5.73-1.18,8.88.47,2.6-.23,5.15-1.26,7.61-1.73,4.14-3.45,8.28-4.98,12.5-4.18,11.53-11.05,21.29-19.6,29.92-1.48,1.5-3.47,2.64-5.43,3.47-2.86,1.21-5.36,2.8-7.59,4.93-4.2,3.99-9.13,6.58-14.88,7.54-5.73.95-11.28,2.54-16.69,4.67-2.01.79-4.15,1.33-6.28,1.7-2.47.42-4.92.14-7.07-1.33-.27-.18-.47-.79-.37-1.08.11-.3.61-.48.96-.67.11-.06.29-.03.42.02,4.56,1.7,8.9.37,13.11-1.18,4.77-1.76,9.63-3.15,14.59-4.2.99-.21,1.98-.44,2.97-.65,3.75-.8,7.09-2.41,10.02-4.93,1.75-1.51,3.66-2.84,5.4-4.37,1.55-1.37,3.3-2.25,5.19-3.06,1.69-.73,3.32-1.82,4.65-3.1,5.24-5.04,9.78-10.65,13.31-17.06,2.59-4.71,4.75-9.59,6.43-14.69.72-2.19,1.65-4.33,2.61-6.43,2.24-4.86,2.27-4.85,2.03-11.16Z"/>
  <path class="cls-1" d="m415.19,375c.27,5.38-1.15,10.45-3.95,14.89-2.09,3.32-4.35,6.95-8.86,7.7-3.58,2.48-7.82,1.59-11.75,2.21-1.16.18-2.56-.46-3.71-1.01-1.69-.81-3.3-1.81-4.86-2.86-1.01-.68-.69-2.27.46-2.87.98-.51,1.97-.49,2.92-.02,1.04.52,2.02,1.13,3.03,1.7,1.96,1.1,3.97,1.68,6.24.91,1.63-.55,3.42-.21,5.05-1.11,6.51-3.6,9.71-9.25,10.32-16.47.33-3.82-.44-7.5-2.22-10.94-.8-1.55-1.62-3.08-2.35-4.66-.42-.92-.84-1.88-.97-2.87-.08-.61.24-1.4.63-1.93.58-.78,1.57-.88,2.35-.38.82.52,1.69,1.19,2.17,2.01,1.51,2.63,2.8,5.39,4.26,8.05,1.33,2.42,1.1,5.05,1.23,7.65Z"/>
  <path class="cls-1" d="m654.01,741.98c.33-3.79-.05-7.49-1.19-11.15-1.16-3.73-2.03-7.55-3.04-11.32-1.09-4.07-2.63-7.89-5.08-11.43-2.71-3.93-4.78-8.29-6.21-12.87-1.19-3.84-3.25-7.06-6.14-9.83-3.76-3.61-7.47-7.26-10.83-11.27-1.55-1.86-3.51-3.46-5.52-4.85-5.71-3.95-11.5-7.81-17.35-11.56-2.55-1.63-5.33-2.91-8.01-4.34-.76-.41-1.55-.77-2.28-1.22-.17-.11-.28-.52-.22-.74.05-.19.4-.44.59-.42.42.05.85.19,1.23.39,3.8,2.09,7.65,4.09,11.36,6.33,4.95,2.99,9.73,6.27,14.7,9.23,2.67,1.58,4.88,3.58,6.97,5.81,3.16,3.39,6.25,6.85,9.63,10.01,3.48,3.25,6.13,6.95,7.63,11.43,1.48,4.43,3.59,8.54,6.22,12.38,2.83,4.13,4.38,8.8,5.87,13.49,1.14,3.58,2,7.26,3.03,10.88,1.05,3.66,1.41,7.36.99,11.16-.26,2.29-.21,4.62-.34,6.93-.01.2-.32.52-.52.54-.23.02-.63-.17-.71-.36-.31-.79-.67-1.61-.73-2.44-.11-1.58-.03-3.18-.03-4.77Z"/>
  <path class="cls-1" d="m453.7,755.48c.1-5.81,1.9-9.95,3.69-14.06,2.34-5.36,6.01-9.87,9.66-14.37.45-.56.96-1.17,1.59-1.45.74-.34,1.63-.43,2.46-.46.31-.01.81.38.92.7.1.3-.13,1.02-.34,1.07-2.65.65-3.89,2.83-5.44,4.73-3.22,3.96-5.82,8.25-7.94,12.9-3.08,6.74-3.12,13.42-.26,20.19,1.01,2.4,2.04,4.79,2.99,7.22,1.61,4.09,4.32,7.52,6.74,11.12.84,1.25,2.02,2.08,3.48,2.44,1.12.28,2.25.54,3.39.71,3.04.45,6.03.97,8.1,3.59,3.95,2.13,8.12,3.76,12.37,5.13,1.41.45,3.16.03,4.72-.19,2.97-.41,5.74.34,8.5,1.21.18.06.42.51.36.66-.15.33-.46.82-.73.83-1,.06-2.05.11-3.01-.13-2.17-.56-4.3-.5-6.45-.02-2.66.59-5.15.29-7.55-1.1-1.12-.65-2.34-1.2-3.59-1.52-2.74-.7-5.12-1.92-7.09-3.98-1.03-1.07-2.32-1.63-3.85-1.77-1.43-.12-2.84-.57-4.27-.73-2.66-.3-4.59-1.76-6.05-3.83-2.66-3.78-5.52-7.44-7.11-11.88-.68-1.9-1.64-3.7-2.46-5.56-1.76-4.02-2.41-8.3-2.84-11.43Z"/>
  <path class="cls-1" d="m584.61,750.82c0,1.01-.13,2.05.02,3.04.59,3.96-.66,7.43-2.65,10.74-.6.99-1.28,1.96-1.7,3.03-2.22,5.72-6.9,9.23-11.55,12.66-3.52,2.6-7.73,3.11-12.03,2.51-.29-.04-.67-.58-.7-.91-.02-.3.31-.76.61-.93.35-.2.83-.19,1.26-.25,1.58-.22,3.19-.3,4.73-.68,1.52-.37,3.21-.73,4.41-1.63,3-2.26,5.82-4.76,8.58-7.31.81-.75,1.18-1.97,1.75-2.98,1.07-1.89,2.14-3.78,3.21-5.67,1.17-2.06,1.79-4.18,1.6-6.63-.2-2.58.03-5.2.02-7.8-.04-8.87-1.34-17.61-3.09-26.28-.48-2.39-1.58-4.65-2.34-6.98-.31-.95-.54-1.94-.65-2.92-.03-.26.46-.74.8-.84.34-.1.92.01,1.15.26.37.4.62.96.79,1.49,2.63,8.33,3.91,16.91,4.84,25.56.45,4.16.82,8.33,1.22,12.5-.1.01-.19.02-.29.03Z"/>
  <path class="cls-1" d="m411.27,410.8c1.24-5.43,1.91-10.92,4.67-15.82,2.75-4.87,6.37-8.98,10.73-12.41,1.91-1.51,3.61-3.4,6.05-4.15.52-.16,1.11-.12,1.66-.06.5.05.89,1.06.57,1.37-.2.2-.41.4-.64.57-6.55,4.83-11.25,11.21-14.92,18.34-1.3,2.53-1.8,5.48-2.67,8.24-.44,1.38-.86,2.77-1.4,4.1-.26.65-.69,1.3-1.22,1.75-.38.33-1.11.57-1.56.44-.45-.13-.85-.72-1.11-1.19-.19-.35-.13-.84-.17-1.19Z"/>
  <path class="cls-1" d="m451.9,387.19c-.15.79-.42,2.2-.7,3.61-.5,2.54-.99,5.08-1.5,7.62-1.36,6.83-4.4,12.76-9.51,17.55-.61.57-1.4,1.03-2.18,1.3-.45.15-1.23-.02-1.56-.35-.27-.27-.3-1.11-.08-1.49,1.32-2.23,2.73-4.41,4.14-6.58,2.38-3.66,4.11-7.55,4.91-11.9.67-3.67,1.73-7.28,2.66-10.9.42-1.65,1.47-2.76,2.39-2.71.97.06,1.56,1.37,1.42,3.84Z"/>
  <path class="cls-1" d="m418.91,633.21c-.18.36-.24.67-.43.83-.21.17-.54.26-.81.26-3.16-.05-5.89,1.31-8.67,2.54-7.92,3.51-14.9,8.25-20.58,14.89-1.63,1.9-2.91,3.95-4.07,6.12-.95,1.79-1.83,3.62-2.83,5.38-.15.27-.84.5-1.11.38-.27-.12-.52-.77-.43-1.09,1.02-3.65,2.47-7.16,4.87-10.11,4.7-5.77,10.15-10.69,16.8-14.19,2.95-1.55,5.82-3.26,8.8-4.74,2.2-1.08,4.51-2.1,7.07-1.2.51.18.94.62,1.38.94Z"/>
  <path class="cls-1" d="m535.35,385.86c-7.47.47-14.7-.82-21.82-3-3.87-1.18-7.9-1.88-11.51-3.81-1.65-.88-3.27-1.85-4.84-2.88-.57-.38-1.03-1.01-1.39-1.62-.37-.62-.59-1.44.08-1.97.39-.31,1.09-.53,1.56-.41,1.11.28,2.21.7,3.24,1.21,8.43,4.11,17.37,6.33,26.67,7.14,3.17.27,6.35.35,9.53.51,4.83.24,9.48-.84,14.14-1.91,2.96-.68,5.94-1.31,8.9-1.96.28-.06.57-.16.85-.14,1.23.08,2.67-.47,3.58.73.65.85-.67,2.55-2.73,3.36-2.01.8-4.09,1.46-6.17,2.06-1.81.51-3.66.86-5.5,1.26-2.26.49-4.51,1.17-6.8,1.38-2.58.24-5.2.06-7.81.06Z"/>
</svg>