<?xml version="1.0" encoding="UTF-8"?>
<svg id="Livello_1" data-name="Livello 1" xmlns="http://www.w3.org/2000/svg" viewBox="0 0 1417.32 1417.32">
  <defs>
    <style>
      .cls-1 {
        stroke-width: 0px;
      }
    </style>
  </defs>
  <path class="cls-1" d="m681.52,340.81c-8.78.19-17.57-.11-26.29,1.53-5.8,1.09-11.74,1.39-17.55,2.4-12.11,2.12-24.21,4.24-35.82,8.6-8.91,3.34-17.07,7.93-25.09,12.91-4.07,2.53-8.23,4.92-12.36,7.35-8.15,4.79-15.91,10.15-23.26,16.06-5.73,4.6-11.21,9.51-16.79,14.29-.36.31-.75.63-1,1.03-3.72,5.99-9.36,10.52-12.69,16.82-.74,1.4-1.76,2.67-2.75,3.93-4.3,5.46-7.4,11.55-9.78,18.05-.49,1.35-1.19,2.61-1.75,3.94-.87,2.06-1.75,4.11-2.53,6.21-1.16,3.14-2.29,6.3-3.32,9.49-.54,1.66-.87,3.39-1.26,5.09-.18.78-.23,1.59-.45,2.35-2.02,6.76-3.21,13.7-3.95,20.69-.68,6.49-.92,13.04-1.2,19.57-.12,2.86.05,5.75.21,8.62.09,1.58.37,3.16.65,4.73.48,2.67,1.23,5.3,1.51,7.98.8,7.54,3.12,14.65,5.7,21.71.16.45.45.86.57,1.32,1.93,7.06,6.04,13,9.77,19.14,4.17,6.85,9.28,13.04,14.59,18.99,3.69,4.13,7.43,8.38,12.24,11.42,1.21.76,2.19,1.88,3.35,2.71,2.98,2.14,5.97,4.28,9.04,6.29,2.53,1.66,5.17,3.14,7.79,4.68,1.1.65,2.18,1.42,3.38,1.79,8.52,2.69,17.01,5.6,25.98,6.42,7.31.67,14.63,1.44,21.97.12,1.24-.22,2.55-.08,3.83-.12,4.98-.17,9.85-.9,14.55-2.64,4.64-1.72,9.3-3.4,13.96-5.09,9.61-3.48,17.09-9.71,23.21-17.79,2.6-3.43,5.47-6.63,7.85-10.26,4.24-6.47,7.46-13.42,10.14-20.61,1.04-2.8,1.38-5.9,1.85-8.89,1.13-7.28,1.94-14.59.49-21.94-.34-1.71-.78-3.41-1.23-5.1-.32-1.23-.87-2.42-1.07-3.67-.8-5.04-3.07-9.43-6.06-13.41-2.58-3.44-5.29-6.77-8.64-9.6-3.06-2.58-6.2-4.99-9.51-7.25-4.98-3.41-10.54-5.34-16.28-6.82-1.99-.51-4.12-.61-6.19-.63-7.74-.09-15.45.83-22.6,3.67-13.21,5.24-22.61,14.31-25.74,28.73-1.07,4.96-.25,9.9,1.06,14.68.73,2.67,2.78,4.7,5.02,6.28,4.42,3.12,9.22,4.26,14.5,2.26,2.03-.77,3.6-2.06,4.88-3.74,3.11-4.09,1.7-7.68-3.56-9.33-1.2-.38-2.44-.66-3.6-1.16-.72-.31-1.34-.92-1.1-1.88.24-.98.71-1.83,1.79-2.02,2.91-.51,5.76-.39,8.29,1.36,6.85,4.73,5.91,12.43,2.57,16.87-5.58,7.44-13.7,8.13-19.63,6.17-8-2.65-13.31-7.63-15.63-16.03-2.68-9.73-1.16-18.53,3.87-27.12,3.06-5.22,6.96-9.72,11.65-13.22,4.43-3.3,9.51-5.97,14.68-7.98,8.4-3.27,17.35-4.19,26.35-4,4.35.09,8.45,1.66,12.52,3.06,3.62,1.25,6.9,3.19,10.19,5.2,4.57,2.79,8.61,6.14,12.27,9.9,5.35,5.5,10.64,11.21,13.23,18.61,3.06,8.75,5.98,17.57,4.46,27.14-.65,4.09-.87,8.25-1.3,12.37-.65,6.12-2.42,11.87-5.51,17.21-.24.41-.45.85-.6,1.3-2.13,6.12-5.71,11.46-9.43,16.63-6.19,8.59-13.35,16.33-22.26,22.24-1.59,1.05-3.27,2-4.99,2.83-7.38,3.53-15.24,5.74-23,8.22-2.99.96-6.28,1.02-9.46,1.32-3.98.38-7.98.89-11.96.81-6.86-.13-13.84-.02-20.55-1.21-7.67-1.36-15.31-3.47-22.44-6.72-6.09-2.78-11.88-6.23-17.7-9.56-2.05-1.18-3.8-2.9-5.67-4.38-1.26-.99-2.49-2-3.75-2.98-.63-.49-1.42-.82-1.93-1.4-4.22-4.79-9.14-8.86-13.26-13.8-4.42-5.3-8.42-10.83-12.29-16.51-3.89-5.7-7.39-11.57-9.35-18.27-1.62-5.51-3.4-10.96-5.1-16.45-.28-.92-.65-1.84-.71-2.78-.38-5.61-2.37-10.94-2.99-16.45-.71-6.3-1.69-12.7-.32-19.09.27-1.24.46-2.54.41-3.81-.15-3.54.54-7,.84-10.49.51-6.09,1.91-11.98,3.23-17.9.28-1.24.45-2.5.7-3.75.35-1.72.4-3.61,1.17-5.12,2.68-5.3,3.44-11.27,6.1-16.58,2.65-5.28,4.97-10.72,7.5-16.06.61-1.29,1.38-2.53,2.2-3.71,2.9-4.21,5.86-8.38,8.79-12.57.09-.13.15-.29.26-.4,6.12-6.71,11.35-14.16,18.33-20.16,5.57-4.79,11.44-9.2,17.1-13.86,1.84-1.52,3.96-2.69,5.96-4.02,3.58-2.39,7.16-4.77,10.75-7.15.93-.62,1.87-1.24,2.84-1.79,8.16-4.69,16.32-9.37,24.49-14.05.55-.32,1.11-.65,1.71-.87,5.37-2.06,10.64-4.47,16.14-6.06,9.98-2.88,20.19-4.88,30.42-6.67,4.86-.85,9.81-1.23,14.72-1.82,4.11-.5,8.23-1.01,12.34-1.48,7.48-.85,14.99-.98,22.47-.13,5.41.61,10.81,1.14,16.26,1.03,4.81-.1,9.52.36,14.24,1.57,7.89,2.01,15.91,3.51,23.85,5.31,2.17.49,4.27,1.27,6.39,1.97,3.94,1.29,7.89,2.56,11.79,3.95,3.16,1.13,6.25,2.41,9.37,3.65,4.44,1.76,8.9,3.49,13.31,5.33,2.79,1.17,5.55,2.44,8.25,3.81,1.56.79,2.88,2.09,4.48,2.77,5.49,2.33,10.3,5.79,15.11,9.18,6.79,4.79,14.35,8.41,20.74,13.81,1.21,1.02,2.67,1.75,4,2.63,2.27,1.49,4.75,2.75,6.75,4.55,4.26,3.82,8.64,7.51,12.92,11.31,3.58,3.18,6.95,6.6,10.48,9.84,4.72,4.32,9.11,8.95,13.45,13.66,4.55,4.94,8.78,10.07,12.75,15.5,3.57,4.88,7.45,9.54,10.87,14.54.9,1.31,1.65,2.74,2.36,4.16,1.29,2.59,2.93,4.9,4.62,7.24,2.52,3.47,4.69,7.23,6.7,11.04,1.78,3.38,3.1,7,5.85,9.8.33.33.52.8.74,1.23,5.97,11.12,11.94,22.23,15.89,34.3.98,3,2.72,5.75,3.99,8.67.7,1.6,1.18,3.3,1.71,4.96,1.36,4.26,2.58,8.57,4.08,12.77,2.53,7.08,4.32,14.37,6.4,21.57,2.32,8.03,3.34,16.28,4.87,24.44,1.47,7.85,2.98,15.69,4.28,23.57.6,3.62.76,7.31,1.07,10.97.5,5.89,1.19,11.75,1.29,17.68.1,5.9.76,11.8,1.16,17.7.08,1.11.22,2.24.12,3.34-.67,7.48-1.55,14.94-2.07,22.43-.54,7.79-.74,15.61-1.12,23.42-.08,1.75-.29,3.5-.41,5.25-.66,9.87-1.6,19.71-2.95,29.52-.65,4.74-.99,9.53-1.78,14.24-.71,4.25-1.85,8.43-2.81,12.64-.32,1.39-.74,2.77-.96,4.18-1.27,8.4-3.79,16.48-6.24,24.58-2.72,9.01-5.33,18.05-7.92,27.09-1.1,3.83-1.91,7.75-3.08,11.56-1.03,3.36-2.48,6.58-3.58,9.92-2.4,7.28-4.59,14.63-7.07,21.89-2.58,7.55-5.51,14.99-9.27,22.06-.08.14-.16.28-.21.43-2.62,8.61-7.52,16.19-11.03,24.4-1.26,2.95-2.73,5.74-4.46,8.45-1.79,2.81-3.13,5.92-4.66,8.9-2.05,3.97-4.09,7.95-6.15,11.92-.22.42-.56.78-.87,1.13-.88.98-2.08,1.25-2.99.64-1-.67-1.74-1.63-1.36-2.82.53-1.66,1.28-3.27,2.05-4.84,1.97-4.01,3.96-8.02,6.04-11.98,1.03-1.97,2.17-3.91,3.44-5.74,1.91-2.79,3.48-5.68,4.44-8.97.66-2.26,1.96-4.34,3.01-6.48,1.32-2.72,2.82-5.36,3.97-8.15,1.7-4.14,3.39-8.26,5.35-12.29,2.36-4.87,4.19-10,6.11-15.08,1.58-4.18,2.97-8.44,4.41-12.67.67-1.97,1.25-3.96,1.85-5.95.27-.92.4-1.89.74-2.78,3.34-8.65,6-17.52,8.39-26.47,1.73-6.48,3.6-12.93,5.43-19.38,2.01-7.07,4.04-14.13,6.07-21.19.22-.77.56-1.52.66-2.3,1-7.14,2.81-14.09,4.42-21.1,1.18-5.12,1.55-10.43,2.24-15.65.46-3.49.92-6.97,1.28-10.47.65-6.2,1.24-12.4,1.83-18.61.09-.95.14-1.92.1-2.88-.32-7.69.69-15.28,1.47-22.91.66-6.5,1.8-13,1.42-19.59-.07-1.26.25-2.54.31-3.81.1-2.07.3-4.14.19-6.2-.49-8.93-1.06-17.86-1.62-26.79-.14-2.23-.3-4.47-.55-6.69-1.15-10.16-2.18-20.36-4.47-30.32-2.4-10.43-3.65-21.07-6.47-31.43-2.14-7.87-4.57-15.61-7.41-23.24-.67-1.79-1.27-3.63-1.66-5.5-.86-4.11-2.39-7.94-4.45-11.58-1.43-2.51-2.76-5.05-3.13-7.98-.1-.78-.39-1.56-.73-2.28-2.57-5.49-4.96-11.08-7.8-16.43-4.94-9.32-10.16-18.49-15.28-27.72-.54-.98-1.2-1.89-1.79-2.83-2.9-4.6-5.79-9.19-8.68-13.79-.51-.81-.92-1.71-1.54-2.42-5.02-5.81-9.13-12.31-13.8-18.38-2.62-3.41-5.89-6.31-8.66-9.6-5.17-6.14-10.75-11.82-17.22-16.6-.13-.09-.27-.19-.37-.31-4.25-5.26-9.75-9.15-14.83-13.5-3.04-2.6-6.04-5.25-9.71-6.98-.86-.41-1.73-.88-2.47-1.48-7.84-6.38-16.94-10.89-25-16.95-2.4-1.81-5.23-3.06-7.86-4.56-1.66-.95-3.41-1.77-4.99-2.84-3.73-2.52-7.64-4.6-11.86-6.2-6.87-2.61-13.64-5.49-20.48-8.18-1.92-.76-3.94-1.28-5.91-1.89-.92-.29-1.89-.43-2.75-.83-8.34-3.89-17.42-5.17-26.2-7.52-4.31-1.15-8.71-2.11-13.13-2.7-4.74-.63-9.55-.81-14.34-1.02-4.79-.21-9.59-.21-14.39-.31Z"/>
  <path class="cls-1" d="m851.78,854.89c-2.58-1.12-4.12-3.17-5.44-5.2-4.45-6.85-7.96-14.19-10.33-22.02-.54-1.79-.47-3.78-.56-5.69-.05-.95.11-2.04,1.12-2.46,1.63-.67,1.8-2.09,2.08-3.5,1.25-6.33,1.05-12.69.43-19.06-.51-5.24-1.08-10.47-1.57-15.7-.03-.31.44-.92.72-.95.36-.04,1.06.32,1.11.6.45,2.34.9,4.69,1.14,7.06.46,4.44.79,8.89,1.18,13.34.43,4.98-.25,9.88-1.26,14.73-.52,2.49-1.18,4.96-1.96,7.38-.62,1.91-.67,3.74.01,5.61,3.21,8.86,6.43,17.71,13.13,24.73.16.17.1.55.19,1.13Z"/>
  <path class="cls-1" d="m728.36,720.35c-.36-.28-.81-.5-1.08-.86-5.64-7.28-12.48-13.21-20.13-18.28-.67-.44-1.28-.96-1.95-1.38-1.48-.93-2.61-1.85-1.24-3.8.35-.5.23-1.6-.07-2.25-3.84-8.39-3.94-17.37-4.03-26.3-.03-2.97.9-5.96,1.47-8.92.05-.24.75-.41,1.16-.47.11-.02.42.48.42.75,0,.63-.07,1.28-.21,1.89-1.84,8.08-1.52,16.23-.16,24.29.65,3.88,2.32,7.59,3.58,11.35.7,2.08,2.4,3.31,4.1,4.53,6.29,4.47,11.9,9.65,16.61,15.78.76.99,1.38,2.1,2.06,3.15-.18.17-.36.35-.54.52Z"/>
  <path class="cls-1" d="m732.97,1077.94c-1.72-.94-2.03-2.3-2.04-3.71-.02-3.04-.2-6.1.17-9.1,1.1-9.07,3.21-17.93,6.75-26.38.97-2.32,2.53-4.41,3.9-6.55.15-.23.94-.28,1.26-.1.33.19.59.75.62,1.17.03.44-.13.96-.39,1.33-4.33,6.31-6.4,13.5-8.21,20.81-1.58,6.4-2.29,12.87-2.06,19.45.03.94,0,1.89,0,3.08Z"/>
  <path class="cls-1" d="m688.41,1070.98c-1.89-2.6-2.36-5.61-2-8.54,1.04-8.39,2.34-16.75,5.55-24.65.89-2.19,2.18-4.23,3.38-6.29.77-1.33,2.07-1.98,3.59-2.01.4,0,.95.31,1.18.65.15.22-.03.96-.28,1.11-4,2.44-5.39,6.66-6.84,10.63-3.42,9.34-4.93,19.04-4.58,29.1Z"/>
  <path class="cls-1" d="m859.91,905.21c.56-9.4-.63-18.32-3.77-26.98-1.16-3.22-2.89-6.01-5.34-8.39-.56-.54-1.02-1.19-1.44-1.84-.13-.2-.06-.73.11-.88.32-.29.85-.65,1.19-.57.58.14,1.24.47,1.59.93,1.32,1.78,2.72,3.55,3.75,5.49,2.73,5.13,3.71,10.83,4.92,16.43,1.53,7.12,1.21,14.24-.29,21.33-.09.45-.38.86-.63,1.26-.07.11-.34.22-.42.17-.22-.14-.56-.38-.54-.55.27-2.21.58-4.42.86-6.41Z"/>
  <path class="cls-1" d="m809.7,812.56c.21-1.19.33-2.24.58-3.26,1.1-4.48,2.3-8.93,3.35-13.42,1.89-8.08,1.29-16.14-.42-24.16-.77-3.59-1.69-7.13-3.43-10.4-.29-.54-.43-1.18-.52-1.79-.03-.23.24-.62.47-.74.23-.12.74-.1.86.06.66.88,1.52,1.73,1.81,2.74,2.62,9.05,4.96,18.21,3.99,27.72-.81,7.92-2.6,15.68-5.89,23.01-.04.09-.29.1-.8.24Z"/>
  <path class="cls-1" d="m616.83,1080.89c-.28-1.19-.71-2.37-.8-3.58-.24-3.15-1.19-6.26-.56-9.47.06-.3.03-.64-.03-.95-.44-2.51-.68-4.98-.33-7.57,1.05-7.73,2.03-15.46,4.61-22.88.21-.6.42-1.21.75-1.75.23-.38.62-.74,1.03-.92.41-.18,1.17-.33,1.34-.13.33.4.66,1.19.48,1.58-1.53,3.33-2.97,6.65-3.91,10.23-2.38,9.03-3,18.18-2.41,27.44.17,2.66,1.11,5.27-.15,7.99Z"/>
  <path class="cls-1" d="m723.28,1037.61c.32-6.57,2.02-12.72,4.57-18.84,2.28-5.47,4.99-10.65,7.83-15.8,1.21-2.2,2.39-4.52,4.74-5.88,1.16-.68,2.32-1.06,3.62-.52.24.1.47.44.54.71.06.26-.04.79-.18.83-4.16,1.35-6.07,4.87-8.09,8.3-4.72,7.99-8.42,16.41-10.88,25.38-.54,1.97-1.44,3.83-2.18,5.74l.06.08Z"/>
  <path class="cls-1" d="m584.68,751.68c.48-8.54,3.14-16.21,6.06-23.8,2.45-6.4,4.93-12.79,7.47-19.15.58-1.46,1.39-2.87,2.28-4.17.8-1.17,2.26-1.01,3.18.31.26.38.2,1.51-.04,1.62-2.68,1.3-3.8,3.82-4.94,6.25-4.83,10.26-8.89,20.82-11.74,31.81-.6,2.3-.72,4.72-1.1,7.08-.04.25-.39.44-.59.66-.26-.27-.52-.55-.59-.62Z"/>
  <path class="cls-1" d="m835.15,1029.55c-5.49-7.98-8.19-16.74-9.12-26.03-.25-2.53-.22-5.13.08-7.65.2-1.68.93-3.37,1.76-4.87.84-1.5,2.59-1.85,4.19-1.27.52.19.84,1.43.39,1.59-4.2,1.55-4.27,5.16-4.32,8.7-.06,4.16.37,8.27,1.53,12.32,1.45,5.06,2.74,10.16,4.92,14.99.31.69.39,1.48.58,2.22Z"/>
  <path class="cls-1" d="m505.17,962.63c-.5,4.75-.9,9.52-1.53,14.26-.74,5.63-3.19,10.68-5.73,15.67-.13.25-.7.28-1.07.41-.06-.3-.24-.64-.16-.89.69-2.12,1.36-4.26,2.16-6.34,3.06-7.89,3.77-16.13,3.79-24.49,0-2.23.18-4.47.36-6.69.05-.6.34-1.21.62-1.76.1-.18.55-.3.8-.25.25.05.64.32.66.52.12,1.1.25,2.21.19,3.31-.11,2.07-.34,4.14-.52,6.21.14.01.28.03.42.04Z"/>
  <path class="cls-1" d="m620.48,798.87c1.05-1.15,2.06-2.34,3.15-3.44,5.28-5.37,9.9-11.31,13.79-17.68,3.89-6.37,7.62-12.9,9.89-20.1.28-.89.73-1.74,1.19-2.56.1-.17.61-.27.83-.18.22.1.46.49.45.73-.05.62-.15,1.27-.38,1.85-.88,2.22-1.72,4.46-2.73,6.63-6.06,12.98-14.02,24.61-24.47,34.48-.34.32-.76.54-1.15.81-.19-.17-.38-.35-.58-.52Z"/>
  <path class="cls-1" d="m673.15,780.92c1.3-3.25,2.62-6.5,3.9-9.76,2.65-6.77,3.18-13.96,4.11-21.06.83-6.32,1.34-12.69,2.05-19.03.12-1.09.48-2.17.8-3.23.05-.17.51-.24.8-.3.06-.01.25.25.24.38-.09,2.69-.08,5.4-.34,8.08-.38,3.81-.97,7.59-1.46,11.39-1.18,9.18-2.65,18.31-5.94,27.02-.93,2.47-2.01,4.88-4.16,6.49Z"/>
  <path class="cls-1" d="m926.12,787.88c-.37-2.49-1-4.96-1.05-7.46-.09-4.2-.89-8.23-2.13-12.18-1.57-5.01-3.35-9.95-5.02-14.93-.51-1.51-1.06-3.01-1.42-4.55-.34-1.48.04-2.89,1.23-3.9.44-.37,1.16-.69,1.69-.61.84.11.7.89.47,1.49-.78,2.04-.59,4.04.04,6.08.74,2.43,1.22,4.96,2.11,7.33,2.13,5.7,3.46,11.57,4.44,17.55.61,3.73.46,7.43-.35,11.19Z"/>
  <path class="cls-1" d="m874.14,801.17c-.23,2.25-.36,3.67-.56,5.09-.03.22-.42.47-.69.55-.12.04-.44-.29-.52-.51-.11-.29-.09-.63-.09-.95-.01-.96-.05-1.92,0-2.88.17-4.37-.55-8.56-2.06-12.68-1.82-4.97-3.97-9.77-6.7-14.29-1.48-2.46-3.24-4.76-5.83-6.24-.82-.47-1.06-1.65-.46-1.93.65-.31,1.58-.56,2.16-.31.83.36,1.53,1.13,2.14,1.85.72.85,1.31,1.82,1.9,2.76,3.59,5.7,6.57,11.71,8.62,18.12,1.26,3.95,1.96,8.05,2.09,11.41Z"/>
  <path class="cls-1" d="m736.56,436.46c-7.85,1.6-14.37-1.06-20.61-4.37-5.68-3.01-10.45-7.32-14.87-11.98-2.12-2.23-3.88-4.68-4.81-7.64-.33-1.05-.54-2.16-.65-3.25-.13-1.34.56-2.48,1.19-2.2.94.43.73,1.29.74,2.04.03,2.72,1.35,5.01,2.87,6.99,8.51,11.07,19.28,18.53,33.53,20.08.72.08,1.44.18,2.62.33Z"/>
  <path class="cls-1" d="m738.08,705.21c.01-6.89.6-13.69,3.19-20.17.41-1.02,1.01-1.97,1.59-2.91.1-.16.63-.21.83-.09.22.12.4.51.39.78-.03.46-.16.94-.34,1.37-5.46,12.8-5.4,25.74-.94,38.76.72,2.1,1.9,4.04,2.82,6.07.1.22-.1.57-.15.85-.28-.06-.72-.03-.82-.19-1.36-2.32-2.91-4.58-3.95-7.04-2.01-4.77-2.34-9.91-2.61-15.02-.04-.8,0-1.6,0-2.4Z"/>
  <path class="cls-1" d="m601.61,1022.03c.03-.46-.06-.97.11-1.36,3.55-8.4,5.6-17.23,7.38-26.13.66-3.28,1.33-6.55,2.04-9.82.15-.7.77-1.15,1.41-.83.45.22.9.88.94,1.37.07.77-.17,1.58-.35,2.35-1.71,7.12-3.38,14.24-5.19,21.33-.75,2.92-1.68,5.82-2.8,8.63-.68,1.73-1.87,3.25-2.82,4.87l-.71-.41Z"/>
  <path class="cls-1" d="m795.9,1018.25c-.84-1.56-1.35-2.08-1.4-2.64-.22-2.84-.69-5.74-.38-8.54.81-7.31,2.85-14.33,6.02-20.98.8-1.68,2.02-3.21,3.27-4.61,1-1.11,2.18-1.02,3.47-.24.5.31.63,1.38.13,1.59-3.93,1.64-5.3,5.31-6.76,8.78-3.51,8.31-4.67,15.58-4.35,26.64Z"/>
  <path class="cls-1" d="m870.34,872.13c0-2.69-.03-5.38,0-8.07.12-8.2-.91-16.17-3.93-23.87-1.19-3.05-3.28-5.44-4.93-8.15-.97-1.6-1.23-3.12-.42-3.32,1.34-.33,2.08.62,2.7,1.54.71,1.05,1.35,2.17,1.89,3.32,3.06,6.53,5.13,13.32,5.86,20.56.53,5.27.83,10.48-.01,15.72-.12.76-.25,1.52-.38,2.28h-.78Z"/>
  <path class="cls-1" d="m781.11,768.59c-1.68-1.3-2.6-3.13-3.22-5.08-1.53-4.85-3.27-9.66-4.36-14.61-1.3-5.88-2.38-11.84-2.29-17.94.04-2.98.94-5.63,2.53-8.07.32-.5.91-.85,1.44-1.17.17-.1.54.08.79.2.1.05.15.25.17.4.03.15.06.36-.02.47-3.33,5-3.26,10.64-2.53,16.17,1.32,10.11,3.32,20.11,7.49,29.63Z"/>
  <path class="cls-1" d="m874.32,762.49c-3.93-1.02-6.5-3.48-8.49-6.69-5.21-8.4-6.65-17.46-5.04-27.1.26-1.57.49-3.16.92-4.68.2-.71.83-1.3,1.3-1.93.06-.08.33-.07.46,0,.26.13.67.3.69.49.06.45-.05.93-.14,1.39-.53,2.98-1.19,5.93-1.59,8.93-1.01,7.54.68,14.57,4.36,21.15,1.33,2.38,2.98,4.52,5.12,6.26.84.68,1.6,1.45,2.4,2.18Z"/>
  <path class="cls-1" d="m641.48,1112.07c.35-.81.7-1.62,1.06-2.43,2.19-4.95,4.63-9.81,6.48-14.88,1.41-3.86,2.14-7.98,3.08-12.01.88-3.73,1.48-7.49,1.05-11.35-.08-.73.27-1.52.53-2.25.07-.2.5-.38.76-.38.25,0,.61.18.72.39.21.41.38.89.38,1.34,0,1.43.07,2.89-.15,4.29-1.69,11.07-4.14,21.92-9.5,31.9-1.1,2.05-2.09,4.17-4.42,5.4Z"/>
  <path class="cls-1" d="m786.75,940.99c.11-.88.08-1.5.28-2.02,2.88-7.52,4.22-15.39,5.17-23.32.38-3.15.05-6.38.12-9.57.05-2.36-1.29-4.24-1.98-6.34-.08-.23.09-.76.24-.81.39-.12,1.04-.23,1.25-.02,1.85,1.93,2.67,4.32,2.79,6.94.08,1.59.03,3.2-.09,4.79-.71,9.11-2.22,18.08-5.16,26.77-.45,1.32-.79,2.71-2.62,3.58Z"/>
  <path class="cls-1" d="m898.63,735.25c-2.34-1.14-3.38-3.31-4.27-5.47-4.81-11.65-8.41-23.67-10.53-36.11-.26-1.52-.04-3.14.17-4.69.05-.35.95-.59,1.46-.88.22.39.6.77.62,1.17.13,2.37.1,4.75.26,7.12.37,5.6,2.19,10.9,3.7,16.23,1.51,5.34,2.75,10.8,5.25,15.83,1.13,2.26,2.23,4.53,3.34,6.8Z"/>
  <path class="cls-1" d="m822.52,818.64c0-.87-.17-1.63.03-2.3,2.47-8.56,2.97-17.24,1.84-26.05-.43-3.32-.78-6.65-1.14-9.97-.07-.62-.04-1.26.06-1.88.04-.22.39-.49.63-.54.26-.06.62.05.84.22.23.17.43.48.51.77.2.77.42,1.55.47,2.34.44,6.04,1.23,12.1,1.14,18.13-.09,5.53-.3,11.17-2.4,16.47-.29.74-.61,1.47-1,2.16-.13.24-.49.34-.98.67Z"/>
  <path class="cls-1" d="m681.92,790.87c1.26-2.21,2.63-4.36,3.75-6.64,2.05-4.17,3.22-8.67,3.96-13.2.74-4.54.81-9.18,1.26-13.77.37-3.8.85-7.58,1.36-11.37.04-.3.64-.77.94-.74.32.03.79.52.86.87.11.6-.04,1.26-.1,1.88-.68,6.33-1.28,12.67-2.07,18.98-1.01,8.11-2.69,16.04-7.79,22.76-.47.62-1.09,1.13-1.63,1.69-.17-.16-.35-.31-.52-.47Z"/>
  <path class="cls-1" d="m666.93,765.71c-.07-1.51-.25-2.27-.11-2.97,1.4-6.65,1.26-13.39.57-20.05-.61-5.9-2.1-11.66-6.38-16.23-.4-.43-.59-1.1-.75-1.69-.06-.21.2-.6.41-.76.22-.17.69-.32.85-.21.64.46,1.29.95,1.76,1.57,2.7,3.49,4.17,7.58,5.16,11.78,2.08,8.89,1.49,17.78-.58,26.61-.1.43-.38.82-.94,1.96Z"/>
  <path class="cls-1" d="m773.91,922.07c-.34-1.02-.47-1.19-.43-1.3,2.38-6.67,2.07-13.45,1.1-20.31-1.07-7.59-2.21-15.15-4.42-22.52-.09-.3-.26-.66-.17-.92.13-.38.43-.96.7-.99.34-.03.85.33,1.05.67.32.53.51,1.17.64,1.78,1,5,2.13,9.99,2.92,15.03.77,4.89,1.2,9.83,1.75,14.75.38,3.4-.41,6.69-1.2,9.95-.28,1.18-1.1,2.23-1.94,3.86Z"/>
  <path class="cls-1" d="m817.2,514.47c-4.97-4.13-10.72-6.9-16.5-9.57-6.39-2.95-13.09-5.06-19.95-6.64-2.05-.47-2.96-1.23-2.54-2.09.44-.9,1.65-1.14,3.42-.65.46.13.89.34,1.34.51,6.67,2.63,13.39,5.17,20.01,7.94,4.57,1.92,8.86,4.41,12.73,7.56.81.66,1.46,1.5,2.18,2.26-.23.22-.46.45-.69.67Z"/>
  <path class="cls-1" d="m670.06,728.14c0-1.06-.07-2.13.01-3.18.62-8.29-.09-16.53-.96-24.77-.57-5.37-1.2-10.74-1.8-16.1-.07-.62-.13-1.26-.1-1.88.04-.82,1.07-1.91,1.37-1.56.37.43.69,1.04.74,1.6.72,8.25,1.58,16.49,2.03,24.75.33,6.04.13,12.1.07,18.15-.01,1.03-.52,2.05-.8,3.08-.19-.03-.37-.06-.56-.09Z"/>
  <path class="cls-1" d="m665.41,862.41c.7-5.35,2.86-9.84,5.24-14.16,2.69-4.89,5.67-9.62,8.68-14.32,1.93-3.02,4.9-4.99,7.89-6.84.63-.39,1.52-.45,2.29-.46.38,0,.93.35,1.1.69.11.22-.27.96-.55,1.05-4.57,1.33-7.6,4.67-10.27,8.24-4.7,6.28-8.59,13.07-11.45,20.4-.63,1.63-.96,3.37-1.45,5.05-.2.68.12,1.75-1.04,1.71-.19,0-.34-1.07-.42-1.36Z"/>
  <path class="cls-1" d="m577.35,482.96c-1.02,8.38-2.69,15.96-5.31,23.33-1.44,4.06-2.67,8.22-5.02,11.88-1.2,1.86-2.65,3.58-4.12,5.25-.87.99-2.1,1.46-3.48,1.05-.28-.08-.6-.29-.72-.53-.11-.21-.08-.68.08-.82.47-.42,1.01-.75,1.55-1.08,3.54-2.17,5.98-5.35,7.47-9.1,3.48-8.75,6.52-17.65,8.01-27.01.12-.78.4-1.53.63-2.29.04-.12.24-.19.91-.69Z"/>
  <path class="cls-1" d="m765.6,1065.6c-.63-1.19.15-2.11.68-3.02,4.12-7.14,6.55-14.82,7.19-23.04.27-3.49.46-6.99.71-10.49.06-.78.14-1.59.4-2.31.11-.29.74-.47,1.15-.52.22-.03.67.28.71.49.13.77.26,1.57.16,2.34-.73,6.16-1.28,12.35-2.33,18.45-1.1,6.35-3.88,12.1-7.48,17.44-.17.25-.42.46-.67.64-.1.07-.3.01-.52.01Z"/>
  <path class="cls-1" d="m788.99,1075.12c-.56-2.05.43-3.44,1.01-4.85,1.58-3.88,2.64-7.88,3.01-12.03.29-3.17.11-6.38.31-9.56.15-2.38.53-4.74.91-7.09.11-.67.82-1.01,1.49-.77.38.14.84.58.9.94.12.77.22,1.66-.05,2.36-1.36,3.53-.94,7.23-1.26,10.87-.32,3.64-.65,7.33-1.53,10.87-.68,2.74-2.19,5.27-3.4,7.87-.23.49-.79.81-1.38,1.4Z"/>
  <path class="cls-1" d="m743.52,530.78c-1.53-.11-2.17.01-2.67-.21-10.28-4.56-19.8-10.33-27.83-18.27-2.37-2.35-4.37-5.09-5.48-8.33-.2-.57-.22-1.23-.19-1.84,0-.23.35-.54.61-.62.23-.08.71,0,.8.17,1.08,1.94,2.01,3.97,3.17,5.85,3.33,5.43,8.3,9.21,13.39,12.79,4.83,3.4,9.94,6.34,15.35,8.75.71.32,1.35.8,2.85,1.71Z"/>
  <path class="cls-1" d="m550.66,1048.32c-.16-.22-.51-.5-.46-.66.83-2.89,1.57-5.83,2.62-8.65,2.67-7.18,4.41-14.58,5.77-22.1.28-1.53.89-3.01,1.47-4.46.09-.24.81-.32,1.23-.29.2.01.44.42.54.69.1.29.14.65.06.94-2.61,9.81-4.29,19.89-8.3,29.3-.68,1.61-1.43,3.19-2.19,4.76-.11.22-.48.32-.73.47Z"/>
  <path class="cls-1" d="m722.93,918.81c-.45-1.47-1.11-2.91-1.31-4.41-.52-3.95-.85-7.92-1.24-11.88-.51-5.23-1.13-10.46-1.47-15.7-.27-4.13-.24-8.29-.2-12.44.01-1.07.5-2.16.93-3.17.13-.31.82-.57,1.2-.51.28.04.72.69.66.99-1.59,7.77-.89,15.56-.22,23.34.14,1.59.35,3.18.36,4.77.04,4.64.89,9.18,1.52,13.76.24,1.69.23,3.42.33,5.14l-.56.11Z"/>
  <path class="cls-1" d="m633.39,891.49c-.06-1.01-.27-2.05-.15-3.04,1.18-10.01,3.51-19.77,6.98-29.23.82-2.23,2.02-4.34,3.19-6.41.88-1.55,2.14-2.78,4.01-3.11.26-.04.67.12.82.33.14.19.13.6.03.85-.11.28-.37.51-.61.71-3.29,2.75-5.27,6.36-6.64,10.33-2.6,7.54-4.68,15.23-5.88,23.13-.33,2.17-.78,4.32-1.18,6.47-.19-.01-.37-.03-.56-.04Z"/>
  <path class="cls-1" d="m852.42,579.73c-3.23.67-5.76.62-8.21-.14-3.35-1.05-6.73-2.06-9.92-3.51-6.11-2.77-12.11-5.77-18.1-8.79-1.69-.85-3.22-2.07-4.76-3.2-.32-.23-.46-.8-.52-1.24-.03-.22.37-.74.43-.72.74.27,1.52.51,2.15.95,8.49,5.83,17.75,10.15,27.38,13.67,3.4,1.24,7.04,1.84,11.55,2.98Z"/>
  <path class="cls-1" d="m829.22,695.39c-.38-1.52-.81-3.02-1.12-4.55-2.33-11.39-7.34-21.39-15.29-29.9-.33-.35-.78-.67-.91-1.09-.17-.53-.3-1.32-.03-1.7.6-.85,1.41-.46,2.03.12.58.55,1.15,1.12,1.6,1.78,4.82,6.99,9.4,14.12,12.08,22.25.95,2.87,1.61,5.85,2.2,8.82.27,1.34.05,2.78.05,4.18-.2.03-.4.07-.6.1Z"/>
  <path class="cls-1" d="m906.57,780.36c-1.17-.07-1.67.03-2.03-.15-2.73-1.33-5.21-3.01-7.41-5.16-6.96-6.84-12.02-14.82-14.7-24.23-.43-1.51-.6-3.12-.66-4.69-.03-.72.38-1.52.77-2.18.19-.33.78-.6,1.17-.58.25.01.73.69.65.94-.72,2.58-.1,5.07.5,7.54.34,1.39.69,2.79,1.25,4.1,2.75,6.52,6.6,12.33,11.51,17.44,2.12,2.2,4.42,4.12,7.1,5.59.48.26.89.65,1.85,1.38Z"/>
  <path class="cls-1" d="m601.2,957.48c-1.41-9.13-.04-17.85,2.41-26.46.92-3.21,1.8-6.44,2.86-9.61.49-1.47.89-3.16,2.53-3.87.47-.2,1.19-.02,1.72.19.17.07.24.91.06,1.23-4.74,8.3-7.02,17.34-8.19,26.73-.49,3.93-.92,7.86-1.38,11.79Z"/>
  <path class="cls-1" d="m742.11,835.5c-.8-1.53-1.31-2.15-1.46-2.85-.83-3.72-1.8-7.44-2.29-11.21-1.05-8.05-2.21-16.1-2.23-24.25,0-1.92-.13-3.85.84-5.59.18-.33.79-.61,1.17-.57.29.03.66.57.75.94.11.44,0,.95-.1,1.41-1.07,4.42-.77,8.87-.39,13.32.76,8.89,1.78,17.75,3.71,26.47.09.42.01.87.01,2.33Z"/>
  <path class="cls-1" d="m646.46,941.66c.26-1.41.4-2.84.79-4.21,3.65-13.12,3.79-26.45,2.49-39.86-.29-2.98,0-4.46.9-4.01,1.61.81,1.1,2.41,1.24,3.75,1.15,10.87.11,21.67-1.37,32.4-.58,4.19-1.43,8.47-3.68,12.24l-.37-.3Z"/>
  <path class="cls-1" d="m479.61,736.36c-.36-2.37.56-4.4,1.76-6.31,3.75-5.94,7.63-11.79,12.97-16.46,2.03-1.78,4.2-3.41,6.4-4.97,1.46-1.03,3.17-1.51,4.99-1.15.4.08.75.41,1.12.63-.24.37-.42,1-.72,1.07-8.58,1.95-13.77,8.26-18.69,14.76-2.39,3.15-4.15,6.78-6.23,10.16-.48.78-1.13,1.46-1.69,2.18l.09.08Z"/>
  <path class="cls-1" d="m619.87,777.87c-.18-1.22-.61-2.46-.51-3.66.37-4.75.73-9.51,1.42-14.22.66-4.55,1.64-9.07,2.64-13.56.63-2.8,1.51-5.58,3.48-7.76,1.15-1.27,2.51-2.4,3.93-3.38,1.38-.94,2.92-.92,2.94-.24.04,1.26-1.13,1.36-1.9,1.82-2.86,1.71-4.61,4.3-5.93,7.27-1.63,3.67-2.29,7.6-3.14,11.47-1.6,7.31-2.6,14.69-2.93,22.26Z"/>
  <path class="cls-1" d="m626.74,958.65c.23-1.67.27-3.1.62-4.44,2.46-9.23,2.16-18.59,1.35-27.97-.25-2.85-.74-5.67-1.04-8.51-.04-.35.46-1.09.65-1.07.54.06,1.08.36,1.53.68.2.14.23.58.24.89.37,6.51.9,13.01,1.03,19.53.13,6.4-1.28,12.63-2.82,18.8-.11.45-.36.88-.61,1.28-.15.23-.44.38-.96.81Z"/>
  <path class="cls-1" d="m621.81,833.02c-1.65-3.56-.67-7.21-.14-10.77,1.09-7.26,3.02-14.36,6.14-21.07,1.24-2.65,2.87-4.99,5.24-6.73.61-.45,1.43-.64,2.18-.85.17-.05.48.29.68.5.09.09.12.38.05.45-.43.45-.88.9-1.36,1.3-2.75,2.31-4.72,5.14-6.05,8.49-3.08,7.75-5.54,15.64-6.02,24.04-.09,1.55-.47,3.09-.72,4.64Z"/>
  <path class="cls-1" d="m762.52,750.02c-3.27-3.74-4.48-8.41-5.49-13.05-1.47-6.71-1.44-13.61-1.87-20.43-.17-2.66.31-5.4.8-8.04.21-1.14,1.18-2.16,1.87-3.18.12-.18.63-.25.87-.16.21.08.46.57.39.74-3.25,7.17-2.11,14.7-1.73,22.13.38,7.55,2.29,14.75,5.68,21.54-.17.15-.35.31-.52.46Z"/>
  <path class="cls-1" d="m651.5,962.72c.76-1.56,1.44-3.11,2.25-4.58,3.02-5.48,5.09-11.31,6.35-17.42,1.17-5.66,1.59-11.34,0-17.01-.17-.59-.14-1.26-.08-1.89.02-.22.36-.55.58-.58.26-.03.75.17.8.36.56,2.29,1.23,4.57,1.52,6.9.63,4.98-.39,9.84-1.59,14.64-1.64,6.53-4.05,12.73-7.89,18.32-.35.51-.79.97-1.22,1.43-.04.05-.24-.05-.71-.16Z"/>
  <path class="cls-1" d="m716.05,477.12c-.4-.18-.87-.27-1.16-.54-2.67-2.5-5.24-5.11-7.98-7.53-6.25-5.52-12.87-10.42-21.33-12.06-.3-.06-.62-.19-.84-.4-.2-.19-.38-.52-.37-.78.01-.23.31-.63.47-.63,1.1,0,2.23-.05,3.29.18,3.78.84,7.22,2.56,10.37,4.73,6.18,4.26,11.84,9.14,16.69,14.91.4.48.69,1.05,1,1.6.05.08-.06.25-.14.53Z"/>
  <path class="cls-1" d="m782.12,526.77c-1.32-1.14-2.63-2.28-3.97-3.4-5.07-4.26-10.64-7.63-17.01-9.57-4.28-1.3-8.56-2.58-12.83-3.9-.58-.18-1.14-.5-1.64-.85-.17-.13-.21-.6-.14-.86.07-.27.32-.64.55-.69.44-.1.97-.11,1.39.03,4.69,1.58,9.39,3.15,14.05,4.82,6.72,2.4,12.56,6.27,17.84,11.03.9.81,1.6,1.84,2.4,2.77-.21.21-.43.42-.64.64Z"/>
  <path class="cls-1" d="m845.61,979.19c-.43-.8-1.04-1.56-1.27-2.42-2.5-9.18-3.5-18.44-1.68-27.9.5-2.6,1.55-4.84,3.47-6.63.26-.24.97-.3,1.26-.11.25.16.38.87.25,1.21-.69,1.77-1.66,3.46-2.22,5.27-1.91,6.18-2.21,12.52-1.31,18.9.4,2.83,1.16,5.6,1.71,8.41.2,1.02.25,2.08.36,3.12-.19.05-.38.11-.57.16Z"/>
  <path class="cls-1" d="m730.24,707.5c-1.41-1.1-1.9-2.53-2.18-4.03-1.56-8.5-2.13-17.08-1.63-25.69.15-2.66,1-5.31,1.8-7.89.35-1.14,1.35-2.1,2.11-3.1.08-.11.55.04.82.13.11.04.25.27.22.38-.13.61-.21,1.27-.49,1.81-2.05,3.9-2.88,8.08-2.86,12.44.02,4.46-.08,8.94.27,13.38.28,3.63,1.16,7.2,1.75,10.81.1.58.12,1.17.18,1.76Z"/>
  <path class="cls-1" d="m841.19,928.53c-.35.66-.42,1.03-.65,1.2-8.7,6.43-13.75,15.39-17.44,25.26-1.17,3.13-1.99,6.39-3.04,9.58-.1.31-.68.47-1.04.7-.1-.29-.32-.6-.28-.86.88-5.57,3.15-10.69,5.28-15.84.91-2.2,1.92-4.39,3.08-6.47,1-1.79,2.25-3.45,3.45-5.12,1.3-1.82,2.59-3.65,4.02-5.36,1.75-2.11,2.32-2.31,6.61-3.08Z"/>
  <path class="cls-1" d="m887.77,814.1c-.14-.9-.35-1.8-.41-2.71-.23-3.35-.53-6.7-.56-10.05-.04-4.26-1.44-8.16-2.74-12.1-.86-2.61-2.27-4.92-4.09-6.99-.84-.96-1.68-1.93-2.4-2.98-.17-.25.02-.95.27-1.23.27-.29.88-.53,1.24-.43.58.15,1.24.48,1.59.94,1.15,1.52,2.43,3.02,3.21,4.73,2.8,6.16,4.69,12.58,4.77,19.42.04,3.2-.01,6.4-.07,9.6-.01.6-.24,1.2-.37,1.8-.15,0-.3,0-.45,0Z"/>
  <path class="cls-1" d="m724.59,968.03c1.38-2.29,2.86-4.52,4.12-6.88,2.85-5.31,3.19-11.26,4-17.06.35-2.51.34-5.07.54-7.6.08-.95.22-1.9.47-2.81.1-.36.56-.61.86-.92.27.32.78.64.77.94-.06,2.86-.08,5.73-.37,8.56-.66,6.32-1.52,12.61-3.92,18.58-1.52,3.78-2.61,5.16-6.47,7.18Z"/>
  <path class="cls-1" d="m817.36,623.77c-2.11.31-3.58-.51-4.93-1.12-10.44-4.69-18.93-11.72-25.12-21.4-.75-1.17-1.2-2.58-1.59-3.93-.15-.51.22-1.19.39-1.78.03-.12.24-.28.36-.27.29.02.64.06.84.23.22.18.38.52.42.81.47,3.12,2.22,5.64,4.03,8.05,4.56,6.05,10.06,11.09,16.74,14.74,2.79,1.52,5.61,2.96,8.85,4.67Z"/>
  <path class="cls-1" d="m828.88,887.16c.34.29.68.44.77.68.1.26.06.65-.06.92-5.22,11.08-4.26,22.31-.9,33.61.09.3.24.62.22.92-.01.23-.23.46-.4.64-.04.04-.36-.05-.41-.16-.67-1.25-1.6-2.45-1.93-3.79-2.37-9.43-3.11-18.91-.3-28.39.4-1.34,1.22-2.56,1.94-3.78.2-.33.74-.46,1.09-.65Z"/>
  <path class="cls-1" d="m659.01,850.27c1.14-2.26,2.25-4.54,3.41-6.79,3.61-6.99,6.38-14.27,7.53-22.09.3-2.04.3-4.12.5-6.17.07-.77.21-1.57.52-2.27.13-.29.76-.44,1.18-.47.21-.02.61.33.65.56.13.77.27,1.57.17,2.33-1.1,8.77-3.38,17.21-7.35,25.13-1.77,3.54-3.42,7.19-6.62,9.78Z"/>
  <path class="cls-1" d="m902.94,849.57c.6-5.54,1.17-11.08,1.82-16.61.71-6.05.14-12.1.02-18.15-.03-1.58.07-3.16.23-4.73.03-.24.71-.49,1.13-.57.18-.04.58.31.63.53.17.77.32,1.56.32,2.34-.05,6.86.11,13.74-.32,20.58-.28,4.42-1.38,8.79-2.28,13.16-.24,1.19-1.08,2.26-1.64,3.38,0,0,.09.08.09.08Z"/>
  <path class="cls-1" d="m747.7,935.5c0-.73-.06-1.47.01-2.19.21-2.22.55-4.42.69-6.64.55-9.11-2.72-16.85-8.64-23.6-.73-.83-1.47-1.67-2.14-2.55-.12-.16,0-.63.16-.82.18-.21.6-.41.82-.34.58.2,1.26.41,1.64.85,8.28,9.65,11.99,20.54,8.8,33.23-.19.74-.56,1.44-.85,2.16-.16-.03-.32-.06-.48-.1Z"/>
  <path class="cls-1" d="m589.06,863.09c.36-1.03.59-2.13,1.1-3.09,4.99-9.44,10.04-18.83,15.01-28.28.96-1.82,1.65-3.79,2.47-5.69.44-1.02.87-2.04,1.37-3.03.11-.22.56-.46.77-.4.21.06.45.49.43.75-.03.62-.11,1.28-.34,1.85-.84,2.06-1.62,4.17-2.66,6.13-4.72,8.86-9.48,17.68-14.31,26.48-1.04,1.9-1.76,4.12-3.93,5.2l.09.08Z"/>
  <path class="cls-1" d="m691.67,949.41c-2.2-4.47-2.91-8.28-2.83-12.05.12-5.89-.38-11.83.79-17.67.72-3.58,1.43-7.17,2.41-10.69.46-1.64,1.53-3.12,2.37-4.64.11-.2.6-.37.8-.29.21.09.41.52.38.78-.04.46-.23.91-.41,1.34-2.88,7-4.54,14.25-4.7,21.84-.04,2.07-.37,4.13-.47,6.19-.2,4.02.68,7.92,1.33,11.85.12.75.16,1.52.33,3.32Z"/>
  <path class="cls-1" d="m589.29,935.34c-.5-4.48-.05-8.78,1.04-12.91,1.84-6.94,3.97-13.8,7.26-20.23.72-1.41,1.63-2.75,2.57-4.03.46-.62,1.14-1.18,1.85-1.45.47-.18,1.15.21,1.74.34-.1.44-.09.97-.33,1.31-1.57,2.2-3.61,4.17-4.73,6.57-2.23,4.76-4.26,9.65-5.81,14.67-1.41,4.55-2.06,9.34-3.06,14.02-.12.58-.35,1.14-.53,1.7Z"/>
  <path class="cls-1" d="m855.26,629.89c-.37-1.54-.81-3.01-1.07-4.51-1.4-8.22-4.51-15.92-7.37-23.68-.43-1.17-1.19-2.25-1.91-3.29-.73-1.04-.72-2.09-.28-3.16.16-.38.6-.67.98-.89.09-.05.49.29.65.52.18.25.25.58.36.88,1.97,5.39,4.03,10.74,5.9,16.16,1.77,5.13,3.23,10.35,3.59,15.8.04.67.51,1.56-.85,2.16Z"/>
  <path class="cls-1" d="m801.07,790.94c.02-1.27-.05-2.56.08-3.82.8-7.65-.76-14.91-3.59-21.97-1.42-3.55-2.9-7.08-4.32-10.64-.35-.87-.58-1.8-.78-2.72-.05-.23.24-.77.38-.77.42,0,.94.08,1.24.34.33.29.5.8.68,1.24,3.36,8.45,6.48,16.97,7.98,25.99.67,4.03.15,7.93-.99,11.78-.07.22-.5.33-.76.5l.08.07Z"/>
  <path class="cls-1" d="m792.34,847.83c-.03,7.38.82,14.62,2.69,21.76,1.14,4.34,2.6,8.52,5.25,12.19.14.2.08.55.11.83-.39-.08-.85-.05-1.15-.26-.38-.26-.68-.68-.9-1.1-1.18-2.25-2.61-4.42-3.42-6.8-1.84-5.43-3.2-10.99-3.47-16.77-.19-3.97-.58-7.93-.6-11.9-.01-2.2.53-4.4.88-6.6.03-.21.43-.48.67-.5.16-.01.53.37.51.56-.17,2.86-.38,5.72-.58,8.58Z"/>
  <path class="cls-1" d="m836.73,626.53c-2.42-.15-3.81-1.23-5.26-2.13-7.61-4.7-14.82-9.93-21.54-15.84-2.03-1.79-4.11-3.53-6.1-5.37-.42-.39-.58-1.07-.82-1.63-.05-.11.01-.36.11-.43.24-.17.61-.44.77-.36.7.34,1.42.7,1.98,1.21,1.99,1.84,3.87,3.8,5.88,5.62,6.87,6.22,14.22,11.82,22.06,16.77.87.55,1.66,1.22,2.92,2.15Z"/>
  <path class="cls-1" d="m689.66,480.89c-.13.3-.16.45-.25.55-.08.09-.28.19-.34.16-.41-.24-.84-.47-1.18-.79-5.36-5.1-11.82-7.97-18.96-9.57-2.48-.55-4.89-1.4-7.29-2.27-.86-.31-1.67-.95-2.28-1.65-.32-.37-.34-1.23-.15-1.75.25-.69,1.02-.77,1.58-.35,3.14,2.39,6.94,3.14,10.57,4.23,6.55,1.97,12.25,5.3,17.14,10.06.44.43.81.94,1.16,1.36Z"/>
  <path class="cls-1" d="m843.58,770.62c-2.31.82-4.44.55-6.55-.47-2.76-1.33-5.3-2.99-7.4-5.21-4.66-4.93-8.15-10.62-10.69-16.89-.35-.85-.55-1.89-.41-2.77.1-.64.88-1.17,1.36-1.75.35.49.95.95,1.01,1.48.35,3.05,1.23,5.87,2.62,8.63,1.67,3.33,3.89,6.23,6.29,9.01,3.44,3.98,7.63,6.74,13,7.38.24.03.46.34.78.59Z"/>
  <path class="cls-1" d="m677.14,944.12c-1.69,11.91-3.71,23.38-10.06,33.55-.42.68-.81,1.39-1.34,1.98-.22.25-.74.24-1.12.35,0-.28-.07-.61.04-.84,1.05-2.15,2.14-4.28,3.21-6.42,2.86-5.77,4.47-11.93,5.59-18.23.61-3.45.98-6.95,1.55-10.41.07-.43.76-.75,1.16-1.13.37.44.73.88.96,1.16Z"/>
  <path class="cls-1" d="m668.66,897.3c-1.52-4.15-.27-8.04.38-11.91,1.21-7.21,2.87-14.37,6.12-21,1.54-3.14,3.32-6.16,5.1-9.17,1.09-1.85,2.74-3.09,4.86-3.61.26-.07.84.12.84.2.01.39,0,1.02-.22,1.13-4.78,2.38-7.07,6.85-8.98,11.37-2.22,5.26-4.24,10.69-5.57,16.22-1.14,4.74-2.22,9.59-2.12,14.57.02.73-.26,1.47-.4,2.2Z"/>
  <path class="cls-1" d="m768.28,998.18c.9-1.68,1.7-3.42,2.73-5.01,3.25-4.97,5.87-10.17,7.24-16.02.65-2.77,1.85-5.43,3.05-8.04.64-1.4,1.78-2.59,2.74-3.83.11-.14.64-.13.83.01.2.15.31.53.31.81,0,.3-.11.64-.28.89-2.71,4.23-3.74,9.12-5.42,13.76-2.42,6.66-5.78,12.74-10.62,17.95-.19-.18-.39-.35-.58-.53Z"/>
  <path class="cls-1" d="m828.47,748.2c-.56-1.22-1.1-2.13-1.41-3.11-2.38-7.64-6.6-14.06-12.58-19.38-1.9-1.69-3.61-3.6-5.38-5.43-.44-.45-.9-.95-1.13-1.51-.13-.33.09-.87.3-1.24.1-.16.64-.26.83-.14.67.41,1.36.85,1.88,1.43,3.55,3.87,7.26,7.61,10.52,11.71,3.82,4.78,6.23,10.33,7.34,16.39.05.27-.17.58-.38,1.28Z"/>
  <path class="cls-1" d="m754.5,453.5c1.82.5,4.25.85,6.4,1.82,7.43,3.33,14.76,6.87,22.12,10.35.57.27,1.11.64,1.6,1.04.14.12.09.5.06.76,0,.07-.26.13-.41.15-.15.02-.33.02-.47-.04-5.81-2.63-11.57-5.35-17.43-7.87-4.23-1.82-8.44-3.86-13.25-3.77-1.02.02-1.87-.75-1.52-1.21.36-.46.89-.81,1.41-1.11.25-.14.62-.06,1.48-.11Z"/>
  <path class="cls-1" d="m573.42,867.64c1.84-3.16,3.71-6.3,5.5-9.49,4.19-7.44,7.33-15.18,6.93-23.96-.01-.31.01-.71.2-.9.29-.31.71-.57,1.12-.67.19-.05.64.28.7.51.66,2.35.51,4.72.04,7.09-1.62,8.27-5.29,15.65-9.89,22.61-1.22,1.85-2.7,3.53-4.06,5.29-.18-.16-.37-.33-.55-.49Z"/>
  <path class="cls-1" d="m710.71,883.59c-1.13-3.98-.19-7.91.33-11.8.58-4.4,1.53-8.78,2.73-13.06,1.73-6.12,3.72-12.17,5.84-18.17.67-1.89,2.05-3.54,3.21-5.23.31-.45,1.05-.94,1.58-.21.2.28.14,1.02-.09,1.3-1.87,2.23-3.15,4.77-4.21,7.45-3.91,9.96-7.18,20.09-8.21,30.82-.29,2.98-.78,5.94-1.19,8.91Z"/>
  <path class="cls-1" d="m677.93,1066.88c-2.87-5.68-3.36-11.67-3.42-17.71-.02-1.9.14-3.83.47-5.7.3-1.7.85-3.37,1.47-4.99.54-1.42,1.76-2.22,3.23-2.55.27-.06.65.07.87.25.18.15.22.5.26.78.02.13-.09.3-.18.42-4.6,5.89-4.19,12.76-3.73,19.6.22,3.31.69,6.6,1.04,9.9Z"/>
  <path class="cls-1" d="m843.14,621.75c-.43-1.31-.92-2.6-1.26-3.92-1.46-5.59-3.61-10.85-6.72-15.76-2.89-4.57-5.29-9.47-9.15-13.38-.22-.22-.42-.54-.45-.83-.07-.59-.14-1.23.01-1.78.16-.58,1.09-.24,1.8.69,4.94,6.5,8.99,13.54,12.66,20.8,2.23,4.42,3.36,9.12,3.12,14.18Z"/>
  <path class="cls-1" d="m676.3,927.57c-1.95-2.92-1.84-6.26-1.61-9.55.69-9.94,3.24-19.46,6.72-28.76.17-.45.33-.93.62-1.29.9-1.14.92-3.15,3.01-3.14.6,1.65-.86,2.57-1.35,3.83-.98,2.51-1.95,5.03-2.97,7.53-2.11,5.21-3.29,10.67-4.02,16.19-.56,4.24-.4,8.57-.53,12.86-.02.78.08,1.56.13,2.33Z"/>
  <path class="cls-1" d="m676.24,494.59c-5.5-2.88-10.94-5.88-16.5-8.62-5.63-2.77-11.51-4.7-17.95-4.02-.91.1-1.94-.75-1.64-1.22.39-.62.98-1.17,1.6-1.58.35-.23.93-.19,1.4-.15.95.09,1.92.14,2.82.41,4.11,1.25,8.36,2.21,12.25,3.95,5.07,2.27,9.9,5.11,14.75,7.85,1.33.75,2.35,2.06,3.51,3.11l-.23.25Z"/>
  <path class="cls-1" d="m858,813.53c-.1-.88-.26-1.64-.25-2.39.1-7.94-1.96-15.5-4.3-22.94-1.33-4.24-3.59-8.16-7.04-11.2-.55-.48-.65-1.05-.27-1.68.42-.68,1.49-.87,2.08-.33.58.53,1.21,1.07,1.62,1.73,1.09,1.76,2.28,3.5,3.08,5.39,4.02,9.49,6.56,19.3,6.05,29.71-.02.45-.22.9-.37,1.34-.03.09-.21.13-.61.36Z"/>
  <path class="cls-1" d="m689.02,808.31c.4-1.01.73-2.06,1.22-3.02,3.32-6.62,5.19-13.71,6.87-20.86,1.05-4.5,2.17-9.01,2.25-13.68,0-.47.05-1.01.29-1.38.22-.34.72-.54,1.13-.7.09-.03.5.4.5.61,0,1.43.05,2.89-.17,4.29-.37,2.36-.9,4.7-1.43,7.04-1.79,7.94-3.78,15.82-7.23,23.25-.8,1.71-1.76,3.35-2.65,5.02-.26-.19-.52-.38-.79-.57Z"/>
  <path class="cls-1" d="m835.8,556.08c-2.24-1.97-4.47-3.95-6.72-5.91-4.26-3.7-8.98-6.58-14.43-8.17-1.38-.4-2.76-.8-4.09-1.33-1.02-.41-2.03-.93-2.9-1.6-.4-.31-.71-1.13-.61-1.62.16-.75.88-.66,1.52-.42,2.23.85,4.47,1.65,6.7,2.51,8.54,3.27,15.43,8.71,20.52,16.53Z"/>
  <path class="cls-1" d="m811.79,694.98c-.53,3.47-1.28,8.35-2.06,13.22-.03.19-.47.47-.69.44-.19-.02-.51-.42-.5-.62.11-1.27.33-2.53.44-3.8.31-3.65.69-7.3.85-10.96.26-5.99-.81-11.76-3.3-17.25-.26-.58-.52-1.18-.61-1.8-.06-.42.17-.88.27-1.32.51.22,1.28.31,1.48.69.67,1.25,1.19,2.59,1.65,3.94,1.8,5.18,2.43,10.55,2.45,17.45Z"/>
  <path class="cls-1" d="m699.39,617.35c-4.74-1.03-7.02-3.85-9.11-6.86-4.44-6.37-7.14-13.49-8.76-21.01-.43-1.99-.23-4.11-.28-6.17,0-.29.14-.64.33-.86.17-.19.52-.35.77-.32.25.03.62.28.67.5.14.61.18,1.24.19,1.87.12,10.09,3.5,19.01,9.86,26.77,1.68,2.05,3.84,3.71,6.34,6.09Z"/>
  <path class="cls-1" d="m770,601.33c-.1.12-.21.34-.3.33-.28-.03-.7-.07-.8-.25-.38-.69-.67-1.43-.98-2.16-3.49-8.41-9.74-14.46-16.94-19.64-1.26-.91-2.91-1.24-4.32-1.97-.96-.49-1.86-1.14-2.67-1.85-.26-.22-.32-.98-.14-1.3.19-.32.82-.61,1.2-.56.77.12,1.57.37,2.23.77,1.76,1.08,3.53,2.18,5.17,3.43,4.58,3.5,8.51,7.7,12.19,12.09,2.58,3.08,4.01,6.86,5.3,10.64.05.15.04.32.05.47Z"/>
  <path class="cls-1" d="m636.2,895.72c2.03-3.4,4.04-6.8,6.1-10.18,3.91-6.41,7.7-12.87,9.65-20.21.11-.42.43-.83.75-1.14.19-.18.6-.22.88-.16.26.06.63.27.7.5.42,1.28.15,2.48-.48,3.66-2.7,5.06-5.29,10.19-8.1,15.2-1.71,3.06-3.72,5.95-5.65,8.88-.95,1.44-2.05,2.78-3.08,4.17-.25-.24-.51-.47-.76-.71Z"/>
  <path class="cls-1" d="m654.32,741.72c-.61-4.23-1.12-8.47-1.84-12.69-.96-5.65-2.03-11.28-3.16-16.9-.54-2.68-1.78-5.1-3.32-7.37-.33-.49-.47-1.14-.56-1.74-.04-.24.22-.62.46-.77.23-.15.75-.22.88-.08.71.8,1.66,1.58,1.94,2.54,1.32,4.42,2.72,8.84,3.57,13.36,1.2,6.41,1.98,12.9,2.85,19.37.19,1.39.03,2.83.03,4.25-.28,0-.57,0-.85.01Z"/>
  <path class="cls-1" d="m737.44,866.84c.22.43.46.69.44.94-.01.29-.18.65-.4.83-2.71,2.31-3.62,5.53-4.52,8.77-2.25,8.13-2.3,16.39-1.62,24.71.07.79.14,1.59.17,2.38,0,.11-.24.34-.31.32-.27-.07-.53-.2-.75-.36-.11-.08-.17-.27-.19-.42-1.28-9.4-1.27-18.77,1.17-27.99.81-3.06,1.77-6.18,4.36-8.36.45-.38,1.08-.55,1.63-.81Z"/>
  <path class="cls-1" d="m546.21,936.1c-.55-5.2.64-9.26,1.97-13.12,2.88-8.32,6.67-16.26,11.53-23.63.53-.8,1.1-1.58,1.75-2.28.42-.45.98-.84,1.55-1.05.38-.14.98-.06,1.31.17.17.11.13.98-.09,1.16-2.87,2.23-4.47,5.41-6.21,8.45-4.55,7.92-8.64,16.05-10.68,25.04-.32,1.39-.6,2.8-1.14,5.27Z"/>
  <path class="cls-1" d="m693.01,876.57c-1.89-3.51-2.87-7.26-3.1-11.03-.28-4.76.11-9.57.28-14.36.07-1.91.16-3.85.49-5.73.46-2.66,1.11-5.3,1.77-7.92.14-.57.56-1.22,1.05-1.51.42-.25,1.17-.16,1.67.04.26.11.52.92.37,1.19-1.26,2.25-2.31,4.57-2.77,7.11-1.16,6.3-2.08,12.64-1.54,19.05.37,4.41,1.17,8.77,1.78,13.16Z"/>
  <path class="cls-1" d="m781.51,857.57c-.53-1.19-.85-1.61-.89-2.05-.46-4.59-1.48-9.11-1.48-13.78,0-6.07.07-12.13.8-18.16.25-2.05.73-4.08,1.25-6.08.11-.41.86-.66,1.32-.98.11.45.38.92.32,1.34-.6,3.93-1.42,7.84-1.84,11.79-.58,5.39-.66,10.82-.29,16.24.25,3.62.5,7.23.82,11.68Z"/>
  <path class="cls-1" d="m635.86,809.08c1.28-1.41,2.5-2.87,3.84-4.21,5.37-5.4,8.73-11.68,8.75-19.47,0-2.42.47-4.74,1.76-6.81.17-.27.8-.32,1.22-.33.12,0,.39.54.36.79-.64,4.23-.99,8.53-2.08,12.65-1.31,4.96-3.9,9.4-7.56,13.05-1.78,1.78-3.91,3.19-5.89,4.77-.13-.15-.27-.29-.4-.44Z"/>
  <path class="cls-1" d="m635.52,754.48c.51-3.42.91-6.58,1.46-9.72.82-4.72,1.73-9.42,3.66-13.85.25-.58.48-1.19.84-1.7.52-.74,1.29-.85,2.13-.57.71.24.91,1.1.29,1.97-3.66,5.12-4.46,11.19-5.74,17.1-1.06,4.92-.95,9.82.32,14.69.06.25-.13.57-.21.86-.37-.18-1.02-.3-1.07-.55-.62-2.79-1.14-5.59-1.66-8.23Z"/>
  <path class="cls-1" d="m710.2,750.83c-.07-1.07-.16-2.14-.22-3.21-.46-8-1.93-15.79-4.9-23.26-1.76-4.44-3.46-8.9-5.17-13.37-.16-.43-.27-.91-.26-1.37,0-.26.24-.63.48-.75.23-.12.73-.11.86.04.49.61,1.05,1.24,1.27,1.96,2.88,9.44,6.69,18.59,8.21,28.44.59,3.8.59,7.55-.27,11.52Z"/>
  <path class="cls-1" d="m634.21,417.03c-1.3.65-1.92,1.14-2.61,1.28-9.26,1.92-17.1,6.7-24.53,12.26-1.11.83-1.86,2.13-2.82,3.17-.42.45-.9.92-1.45,1.15-.35.14-.99-.03-1.29-.29-.29-.25-.55-.97-.39-1.21.67-1.06,1.31-2.29,2.3-2.97,7.48-5.14,15.07-10.14,23.98-12.51,1.94-.52,3.95-1.16,6.8-.89Z"/>
  <path class="cls-1" d="m845.29,904.84c-.25-10.05-2.2-19.49-5.86-28.62-1.36-3.4-2.66-6.83-3.96-10.25-.22-.57-.27-1.21-.36-1.82-.01-.09.19-.28.32-.31.29-.07.7-.19.86-.05.35.29.69.69.84,1.12,3.16,8.67,6.75,17.21,8.12,26.42.56,3.77.91,7.56.46,11.37-.08.72-.28,1.44-.43,2.15Z"/>
  <path class="cls-1" d="m773.44,536.04c-1.01-.72-2.06-1.38-3.02-2.15-4.85-3.94-10.16-7.17-15.72-9.96-3.71-1.86-7.54-3.49-11.91-2.52-.36.08-1.14-.56-1.29-1.01-.29-.87.28-1.63,1.14-1.72,1.08-.12,2.27-.15,3.29.16,2.89.89,5.84,1.71,8.53,3.05,6.86,3.42,13.19,7.71,18.94,12.81.22.19.31.53.45.8-.14.18-.28.35-.41.53Z"/>
  <path class="cls-1" d="m707.88,919.4c-1.07-1.12-1.6-1.45-1.79-1.92-1.54-3.67-3.36-7.28-4.42-11.09-1.15-4.13-1.66-8.45-2.29-12.72-.38-2.57.12-5.1,1.16-7.49.46-1.05,1.14-1.95,2.36-2.2.27-.05.66.05.86.23.18.17.33.65.22.81-4.12,6.3-2.53,12.97-1,19.48,1.02,4.32,2.78,8.47,4.21,12.7.13.4.26.8.71,2.18Z"/>
  <path class="cls-1" d="m494.24,1056.99c-.17-.47-.45-.87-.42-1.26.19-3.52.75-6.95,1.81-10.34,2.04-6.49,5.33-12.3,9.27-17.77,1.02-1.41,2.09-2.91,4.04-3.1.36-.04.83.34,1.13.64.14.14,0,.58-.07.88-.03.14-.15.29-.27.38-6.39,4.68-9.35,11.61-11.91,18.69-1.29,3.58-1.95,7.38-2.92,11.07-.07.26-.36.46-.66.81Z"/>
  <path class="cls-1" d="m805.02,949.3c.1-.91.04-1.87.31-2.73,2.7-8.42,3.85-17.08,4-25.89.02-1.11.16-2.24.43-3.31.13-.5.66-1.22,1.07-1.27,1.15-.12.99.92,1.08,1.66.04.31.05.64,0,.96-1.02,8.7-1.49,17.48-4.18,25.91-.52,1.64-1.18,3.23-1.78,4.84-.32-.06-.63-.11-.95-.17Z"/>
  <path class="cls-1" d="m763.88,884.36c-.19-1.54-.48-3.07-.57-4.62-.39-7.04-1.75-13.9-4.09-20.54-.9-2.55-2.01-5.02-3.02-7.53-.18-.44-.44-.91-.4-1.35.03-.38.39-.78.72-1.04.13-.11.69.06.81.25.58.94,1.18,1.89,1.58,2.92,2.88,7.46,4.97,15.13,5.77,23.11.22,2.21.09,4.46.06,6.69-.01.71-.23,1.41-.35,2.11-.17,0-.34,0-.51,0Z"/>
  <path class="cls-1" d="m722.58,761.96c0-1.58-.11-2.36.02-3.09,1.7-9.67-.63-18.65-4.6-27.36-1.25-2.75-2.58-5.48-3.82-8.24-.25-.55-.34-1.21-.38-1.82-.02-.26.22-.65.45-.77.22-.11.62,0,.86.14.25.15.48.44.59.71,2.72,6.97,6.06,13.69,7.86,21.01,1.17,4.72,1.04,9.48.73,14.26-.1,1.54-.43,3.07-1.71,5.16Z"/>
  <path class="cls-1" d="m795.8,812.76c-1.67-1.38-2.43-2.94-3.15-4.47-4.14-8.81-7.6-17.87-10.33-27.22-.6-2.04-.8-4.06-.39-6.13.06-.32.62-.79.89-.76.34.04.68.5.91.85.16.25.17.62.15.93-.23,5.56,1.56,10.72,3.45,15.78,2.17,5.81,4.81,11.45,7.25,17.15.48,1.11,1.33,2.11,1.22,3.85Z"/>
  <path class="cls-1" d="m561.09,982.88c-1.66-2.2-1.95-4.18-2.01-6.19-.19-6.56.31-13.06,2.12-19.4.96-3.37,1.9-6.76,3.05-10.07.45-1.3,1.35-2.5,2.25-3.58.84-1,2.55-1.14,2.43-.56-.14.68-.69,1.28-1.06,1.91-.79,1.37-1.79,2.66-2.35,4.11-3.35,8.72-4.95,17.8-5.03,27.13-.02,2.03.35,4.06.59,6.65Z"/>
  <path class="cls-1" d="m843.1,737.07c-.96-1.69-1.56-2.73-2.15-3.77-1.81-3.19-3.44-6.5-5.46-9.55-2.51-3.76-5.72-6.87-9.98-8.71-.44-.19-.86-.43-1.27-.68-1.32-.82-1.94-2.08-1.3-2.63.94-.82,1.78-.12,2.64.23,3.17,1.3,5.85,3.34,8,5.96,4.19,5.1,7.4,10.79,9.61,17.02.14.39-.03.88-.1,2.13Z"/>
  <path class="cls-1" d="m818.23,902.64c-1.85-.98-2.48-2.84-3.24-4.57-2.93-6.73-4.87-13.77-6.38-20.94-.46-2.18-.89-4.36-1.18-6.57-.05-.39.65-1.18,1.09-1.25.41-.07.98.53,1.39.93.19.19.19.6.21.91.72,10.95,3.95,21.21,8.55,31.09-.15.13-.3.27-.45.4Z"/>
  <path class="cls-1" d="m755.27,976.54c.44-.79.82-1.62,1.34-2.35,4.72-6.65,8.45-13.8,11.11-21.51.26-.75.49-1.52.8-2.24.78-1.82,2.03-2.96,2.46-2.35.78,1.13-.12,2.13-.46,3.12-2.61,7.71-6.18,14.96-10.88,21.61-1.08,1.53-2.03,3.25-4.37,3.73Z"/>
  <path class="cls-1" d="m813.15,651.84c-1.15-2.89-2.15-5.21-3.02-7.58-2.85-7.81-8.28-13.5-14.88-18.24-.26-.18-.68-.2-.84-.43-.32-.47-.83-1.15-.68-1.52.37-.94,1.24-.79,1.99-.36.83.48,1.68.94,2.41,1.55,7.79,6.57,13.28,14.59,15.37,24.71.08.38-.14.83-.35,1.86Z"/>
  <path class="cls-1" d="m857.45,670.68c-.97-2.33-1.57-3.73-2.14-5.16-1.54-3.84-3.04-7.71-4.62-11.54-.48-1.18-1.09-2.31-1.74-3.41-1.88-3.17-3.76-6.34-7.55-7.66-.25-.09-.46-.85-.36-1.21.11-.38.58-.86.95-.92.58-.1,1.25.03,1.82.22,1.94.67,3,2.31,4.07,3.9,3.6,5.35,5.88,11.31,7.85,17.39.77,2.38,1.92,4.7,1.7,8.37Z"/>
  <path class="cls-1" d="m833.24,659.21c-.63-1.44-1.28-2.87-1.88-4.32-1.89-4.57-3.91-9.05-6.57-13.26-2.17-3.44-4.83-6.31-8.09-8.68-1.29-.94-2.56-1.9-3.75-2.95-.26-.23-.29-.9-.17-1.28.06-.19.85-.36,1.11-.21,7.85,4.44,12.78,11.32,16.16,19.47,1.16,2.79,2.25,5.62,3.28,8.46.3.83.28,1.77.4,2.66-.17.04-.33.08-.5.12Z"/>
  <path class="cls-1" d="m521.09,797.06c2.52-3.46,4.57-6.29,6.63-9.1,4.17-5.69,7.2-12.02,10.31-18.31.63-1.28,1.31-2.55,2.08-3.76.16-.25.94-.4,1.19-.23.3.21.41.79.46,1.22.03.28-.16.61-.31.89-4.67,8.71-8.97,17.64-15.57,25.15-1.05,1.2-2.14,2.36-3.24,3.51-.19.2-.54.23-1.56.63Z"/>
  <path class="cls-1" d="m766.46,665.55c-.1.46-.19.92-.32,1.37-.02.06-.25.09-.36.07-.14-.03-.32-.11-.37-.23-.13-.29-.25-.6-.27-.9-.53-9.94-3.05-19.54-4.93-29.26-.36-1.88-.77-3.76-1-5.66-.09-.74.2-1.54.42-2.29.06-.22.46-.46.71-.46.23,0,.66.29.67.46.25,8.69,3.04,16.95,4.29,25.46.56,3.78.78,7.61,1.16,11.44Z"/>
  <path class="cls-1" d="m736.73,728.12c0-1.16-.08-1.51.02-1.79.09-.26.43-.67.57-.63.43.1.95.29,1.18.62.25.36.26.91.28,1.39.38,7.33,3.05,14,6.13,20.5,1.92,4.05,4.66,7.61,7.99,10.67.35.32.74.62,1.02.99.15.2.09.55.13.84-.27.03-.66.19-.81.07-1.34-1.13-2.77-2.19-3.9-3.5-1.56-1.8-3.09-3.69-4.28-5.75-4.38-7.52-7.13-15.63-8.35-23.41Z"/>
  <path class="cls-1" d="m782.31,811.24c-2.99-1.74-4.4-4.58-5.73-7.44-3.05-6.54-4.71-13.5-5.85-20.58-.28-1.7-.14-3.5.04-5.23.09-.89.58-1.82,1.13-2.55.24-.32,1.12-.34,1.63-.21.29.07.7.9.58,1.12-2.87,5.27-.92,10.62-.07,15.83.96,5.85,3.61,11.16,6.65,16.24.56.93,1.09,1.88,1.63,2.82Z"/>
  <path class="cls-1" d="m767.67,930.81c-.08-1.4-.14-2.81-.23-4.21-.22-3.19-.34-6.39-.72-9.55-.52-4.29-1.28-8.54-4.34-11.95-.18-.2-.06-.97.19-1.2.28-.27,1.03-.48,1.26-.31.85.66,1.9,1.35,2.26,2.28,1,2.51,2.04,5.09,2.41,7.73.57,4.1.65,8.27.84,12.42.08,1.72-.44,3.33-1.67,4.79Z"/>
  <path class="cls-1" d="m755.09,911.61c-2.16-2.84-2.26-6.07-2.63-9.15-.76-6.33-1.04-12.71-.28-19.07.26-2.2.81-4.38,1.31-6.54.14-.59.53-1.17.93-1.64.28-.33.8-.45,1.21-.66.14.42.48.89.4,1.26-.63,2.79-1.49,5.53-2.01,8.33-.96,5.2-.99,10.44-.25,15.7.55,3.91.89,7.85,1.32,11.78Z"/>
  <path class="cls-1" d="m702.06,604.08c-1.06-1.37-2.26-2.66-3.17-4.12-4-6.39-7-13.23-8.74-20.59-.75-3.17-.78-6.34.53-9.39.3-.69.92-1.27,1.46-1.82.12-.12.58.05.86.15.12.04.28.22.28.33-.02.31-.05.64-.18.91-2.23,4.27-1.59,8.71-.5,13.05,1.56,6.25,4.82,11.77,7.87,17.38.68,1.25,1.31,2.52,1.96,3.79-.12.11-.24.21-.36.32Z"/>
  <path class="cls-1" d="m619.9,690.01c.71-.97.99-1.5,1.4-1.89,7.78-7.38,14.32-15.79,20.58-24.45.93-1.29,1.9-2.56,2.99-3.71.33-.35,1.11-.29,1.69-.41.03.55.32,1.32.06,1.63-6.53,7.82-13.08,15.63-19.73,23.35-1.55,1.8-3.45,3.29-5.22,4.89-.28.25-.77.27-1.77.6Z"/>
  <path class="cls-1" d="m837.17,487.49c-2.7.6-4.63.11-6.6-.64-6.71-2.57-12.18-6.83-16.87-12.17-1.15-1.32-2.32-2.64-3.32-4.07-.41-.59-.42-1.46-.58-2.21-.02-.11.12-.34.24-.38.26-.09.68-.24.81-.12.57.54,1.08,1.14,1.56,1.77,4.11,5.33,8.52,10.37,14.68,13.42,3.1,1.54,6.34,2.78,10.09,4.41Z"/>
  <path class="cls-1" d="m691.09,717.13c-.35-.29-.81-.52-1.04-.88-3.84-6.13-6.47-12.74-7.31-19.94-.31-2.64.03-5.38.26-8.06.05-.62.86-1.21,1.4-1.74.16-.15.65-.12.89,0,.23.12.43.46.49.73.06.29-.03.63-.12.93-1.38,4.87-1.09,9.68.33,14.51,1.25,4.27,2.5,8.52,4.89,12.33.32.52.49,1.13.72,1.7-.17.14-.35.28-.52.42Z"/>
  <path class="cls-1" d="m646.06,834c.53-1.1,1.08-2.19,1.6-3.29,3.28-6.93,6.29-13.95,6.54-21.79.05-1.47.36-2.87,1.37-3.98.25-.28.9-.41,1.27-.29.3.1.67.7.62,1.02-1.37,9.38-4.04,18.33-9,26.5-.48.79-1.05,1.52-1.57,2.28-.28-.15-.55-.29-.83-.44Z"/>
  <path class="cls-1" d="m795.18,895c-2.79-1.34-5.03-3.41-6.8-5.84-5.29-7.26-9.04-15.3-11.6-23.9-.22-.74-.22-1.55-.22-2.32,0-.16.43-.35.68-.48.11-.05.39-.02.43.06.3.54.66,1.09.83,1.68,1.44,5.06,3.51,9.87,5.72,14.64,2.44,5.25,5.55,9.99,9.79,13.97.57.54,1.06,1.17,1.59,1.75-.14.15-.28.3-.42.45Z"/>
  <path class="cls-1" d="m689.75,1013.68c.42-1.69.68-3.45,1.3-5.06,2.68-7,4.73-14.16,6-21.54.16-.91.46-1.81.79-2.67.07-.18.54-.3.82-.28.26.02.71.23.73.39.11,1.08.41,2.25.12,3.24-2.14,7.3-3.51,14.86-6.86,21.78-.74,1.53-1.17,3.32-2.98,4.07,0,0,.08.08.08.08Z"/>
  <path class="cls-1" d="m794.01,523.87c-1.66-.32-2.46-1.31-3.3-2.17-3.46-3.56-7.37-6.57-11.35-9.53-3.06-2.28-6.36-3.55-10.16-3.69-1.19-.04-2.66.41-3.4-1.05-.39-.76,1.22-1.56,3.52-1.35,1.71.15,3.45.58,5.05,1.19,4.08,1.57,7.46,4.31,10.7,7.14,2.88,2.51,5.54,5.29,8.26,7.98.28.27.35.75.68,1.49Z"/>
  <path class="cls-1" d="m626.15,545.32c.16,1.61.45,2.28.24,2.72-1.07,2.29-1.94,4.77-3.48,6.72-4.85,6.19-11.32,10.13-18.8,12.37-1.17.35-2.49.26-3.74.22-.32,0-.8-.56-.87-.92-.06-.3.33-.91.63-1,1.22-.35,2.46-.62,3.72-.8,7.35-1.05,12.83-5.25,17.61-10.54,1.25-1.39,2.06-3.19,2.98-4.85.52-.94.87-1.97,1.71-3.92Z"/>
  <path class="cls-1" d="m593.41,812.11c.14-8.92.56-17.77,4.04-26.16,1.11-2.68,2.64-5.06,4.43-7.29.85-1.06,1.95-1.65,3.35-1.09.25.1.54.37.61.61.07.25-.03.75-.2.83-4.84,2.24-6.38,6.75-7.96,11.3-1.8,5.16-2.43,10.5-2.89,15.88-.18,2.05-.36,4.06-1.39,5.91Z"/>
  <path class="cls-1" d="m722.22,821.5c-.75-1.72-1.38-2.81-1.71-3.99-.63-2.3-1.3-4.63-1.59-6.99-1.05-8.62-1.07-17.2,1.29-25.66.7-2.51,1.66-4.83,3.88-6.4.12-.09.4-.16.44-.11.17.22.31.47.39.73.04.12-.06.32-.15.44-4.24,5.53-4.64,12.14-5.01,18.66-.43,7.54.46,14.98,3.02,22.15.03.1-.12.26-.56,1.17Z"/>
  <path class="cls-1" d="m793.67,695.65c-.07-.7-.18-1.39-.19-2.09-.04-4.29-.13-8.59-.05-12.88.1-4.93-1.1-9.43-4-13.45-.46-.64-.93-1.31-1.25-2.03-.16-.35-.14-.98.08-1.25.53-.65,1.12-.3,1.56.22,2.32,2.71,4.02,5.85,4.57,9.32,1.18,7.37.86,14.78-.73,22.16Z"/>
  <path class="cls-1" d="m570.48,467.11c-3.14,7.09-3.48,14.83-5.46,22.18-.45,1.69-.88,3.38-1.4,5.05-.18.58-.52,1.24-.98,1.57-.44.31-1.27.48-1.7.26-.39-.2-.83-1.22-.65-1.51,3.99-6.4,4.26-13.92,6.39-20.88.6-1.97,1.33-3.9,2.04-5.83.16-.43.46-.84.8-1.15.15-.14.54-.06.8-.01.08.01.12.24.16.33Z"/>
  <path class="cls-1" d="m673.02,801.66c-2.25-.59-3.76-2.26-5.11-3.95-5.2-6.49-8.59-13.79-9.03-22.2-.12-2.18.35-4.4.66-6.58.04-.28.72-.65,1.1-.64.27.01.54.57.77.91.07.11.03.32-.01.46-1.92,6.03-.2,11.7,1.95,17.21,1.8,4.63,4.38,8.87,8.11,12.27.69.63,1.51,1.13,2.27,1.69-.23.27-.47.54-.7.81Z"/>
  <path class="cls-1" d="m871.3,720c-1.7-1.19-2.18-3.12-2.66-4.91-1.76-6.45-3.39-12.94-4.26-19.59-.46-3.56.03-7,.96-10.41.2-.73.69-1.42,1.18-2.01.26-.3.82-.35,1.25-.51.12.41.42.86.32,1.21-.46,1.67-1.06,3.31-1.56,4.98-1.33,4.46-.24,8.89.52,13.24.98,5.63,1.98,11.29,4.17,16.63.17.41.02.94.01,1.42,0,0,.07-.05.07-.05Z"/>
  <path class="cls-1" d="m566.02,1103c.13-.58.17-1.2.39-1.75,2.99-7.57,5.98-15.14,9.03-22.69.53-1.31,1.25-2.57,2.07-3.73.25-.35,1.25-.51,1.67-.3.33.16.61,1.24.39,1.57-3.21,5.03-4.89,10.74-7.22,16.15-1.64,3.81-3.55,7.45-6.33,10.74Z"/>
  <path class="cls-1" d="m721.29,648.29c.44.14.87.34,1.32.42,1.26.23,1.99.79,1.75,2.22-.1.62-.02,1.26-.02,1.9l.08-.07c-1.28.05-2.06.84-2.47,1.92-1.13,2.95-2.18,5.93-3.26,8.9-.05.15-.05.31-.1.47-2.22,7.07-1.2,14.07.34,21.08.3,1.38.43,2.79.64,4.19l.08-.08c-2.28-2.51-2.36-5.77-3.01-8.83-.29-1.4-.35-2.84-.53-4.26-.35-2.7-.23-5.32.23-8.05.93-5.55,2.52-10.85,5.13-15.81.8-1.52.32-2.74-.1-4.09l-.08.09Z"/>
  <path class="cls-1" d="m741.71,668.14c-2.31-1.72-2.97-4.47-3.93-6.9-2.5-6.35-4.8-12.79-6.91-19.28-.97-2.99-1.41-6.17-1.9-9.29-.16-1.03.21-2.15.42-3.22.03-.16.5-.35.76-.33.25.01.62.21.72.42.19.41.35.9.32,1.35-.34,5.19,1.31,10.02,2.55,14.95,1.64,6.51,4.23,12.65,6.86,18.78.49,1.14.68,2.4,1.01,3.6l.09-.08Z"/>
  <path class="cls-1" d="m781.19,586.53c-1.01-1.43-1.55-2.14-2.03-2.9-3.52-5.56-7.82-10.41-12.87-14.65-2.56-2.15-4.93-4.51-7.34-6.83-.56-.54-1.04-1.21-1.37-1.91-.13-.28.2-.86.45-1.2.1-.14.57-.03.86.02.14.02.29.15.38.27,3.62,4.7,8.31,8.33,12.39,12.55,2.97,3.07,5.52,6.57,8.12,9.99.78,1.03,1.58,2.27,1.4,4.65Z"/>
  <path class="cls-1" d="m712.7,658.36c-3.61-3.12-6.09-7.14-7.95-11.47-1.88-4.37-3.42-8.91-4.08-13.66-.24-1.71-.27-3.48-.14-5.21.05-.66.77-1.3,1.28-1.87.15-.17.65-.21.89-.1.24.11.38.47.51.74.06.13.05.33,0,.47-1.55,4.49-.39,8.78.96,13.07,1.34,4.26,3.01,8.37,5.25,12.24,1.11,1.92,2.19,3.85,3.29,5.78Z"/>
  <path class="cls-1" d="m837.7,857.59c-3.35-2.07-5.86-4.97-7.57-8.36-2.36-4.68-4.47-9.5-6.32-14.4-1.29-3.41-1.96-7.05-1.62-10.76.02-.27.59-.58.96-.68.21-.06.57.22.77.44.2.22.36.53.41.83.11.62.24,1.27.2,1.89-.36,5.43,1.68,10.28,3.61,15.16,2.3,5.81,5.6,11.02,9.56,15.88Z"/>
  <path class="cls-1" d="m596.97,881.95c.2-.77.22-1.24.44-1.58,1.05-1.59,2.14-3.15,3.25-4.71,5.07-7.14,8.06-15.09,9.33-23.72.07-.47.11-.96.28-1.39.09-.23.51-.56.65-.5.37.15.9.44.96.75.16.76.24,1.6.08,2.35-2.21,10.45-6.5,19.89-13.62,27.94-.26.29-.68.43-1.36.84Z"/>
  <path class="cls-1" d="m767.25,691.52c-4.07-4.36-6.96-9.44-9.04-15-1.45-3.87-3.05-7.69-3.68-11.81-.1-.61-.14-1.25-.08-1.86.02-.21.43-.48.7-.53.24-.05.68.08.77.26.42.85.93,1.71,1.07,2.63,1.41,9,5.28,16.96,10.21,24.48.26.4.46.83.69,1.25-.21.2-.43.39-.64.59Z"/>
  <path class="cls-1" d="m676.13,659.08c-1.64-2.1-2.48-4.46-2.51-7.02-.07-6.52-.14-13.05-.03-19.57.07-4.04,1.24-7.85,3.48-11.25.51-.78,1.21-1.47,1.94-2.06.26-.21.98-.13,1.26.1.24.19.32.9.15,1.2-.3.53-.85.92-1.29,1.38-1.72,1.76-2.87,3.88-3.22,6.27-.61,4.24-1.7,8.41-1.56,12.76.16,5.08-.26,10.19.98,15.19.25,1.01.53,2,.79,3.01Z"/>
  <path class="cls-1" d="m742.24,500.26c-3.7.71-7.55.49-11.17-.75-4.52-1.55-8.93-3.46-13.31-5.38-1.43-.63-2.69-1.72-3.93-2.71-.68-.54-.84-1.33-.11-2.06.84-.84,1.93-1,2.54-.35.21.23.41.49.55.77,1.12,2.3,3.11,3.65,5.33,4.6,5.14,2.2,10.24,4.52,15.92,5.06,1.41.13,2.79.54,4.18.82Z"/>
  <path class="cls-1" d="m892.3,620.67c-1.13-2.14-1.81-3.2-2.29-4.35-2.71-6.5-6.54-12.33-10.49-18.11-1.07-1.57-2.04-3.22-2.99-4.87-.45-.79-.09-1.76.74-1.89.52-.08,1.11.27,1.65.47.11.04.15.27.21.42,1.92,4.92,5.14,9.12,7.6,13.74,2.01,3.77,3.59,7.77,5.31,11.7.22.51.12,1.16.26,2.9Z"/>
  <path class="cls-1" d="m688.74,669.68c-.9-1.74-1.44-3.52-1.47-5.42-.13-7.36.22-14.69,1.19-21.98.25-1.91.66-3.8,1.97-5.3.22-.25.85-.22,1.27-.17.15.02.31.51.33.79.02.3-.06.64-.19.93-2.77,6.3-3.03,13-3.09,19.73-.04,3.81,0,7.61,0,11.42Z"/>
  <path class="cls-1" d="m697.93,819.59c.45-.97.88-1.95,1.34-2.91,3.94-8.22,6.5-16.92,8.91-25.68.45-1.65-.19-4.04,2.31-4.76,1.19,1.77.03,3.41-.43,4.99-2.5,8.57-5.07,17.12-9.19,25.1-.51.99-1.03,1.98-1.59,2.94-.15.25-.48.39-.72.58-.21-.09-.42-.17-.62-.26Z"/>
  <path class="cls-1" d="m878.46,494.49c-2.79-1.56-5.3-3.42-7.2-5.94-2.39-3.17-4.82-6.3-6.53-9.94-1.28-2.73-2.8-5.35-4.19-8.03-.29-.55-.59-1.15-.65-1.75-.03-.34.36-.78.68-1.06.13-.11.7.02.81.21.73,1.22,1.51,2.43,2.06,3.74,3.1,7.4,7.22,14.13,12.95,19.81.84.83,1.7,1.71,2.06,2.96Z"/>
  <path class="cls-1" d="m755.88,493.7c-4.65-1.64-9.42-3.02-13.91-5-4.65-2.05-9.09-4.61-13.52-7.13-1.32-.75-2.3-2.11-3.34-3.28-.17-.19.07-.86.27-1.23.08-.14.65-.2.84-.07.66.43,1.31.91,1.86,1.47,2.27,2.3,4.91,4.08,7.81,5.45,4.61,2.18,9.27,4.22,13.91,6.34,2.16.99,4.3,2,6.45,3.01-.12.15-.25.3-.37.45Z"/>
  <path class="cls-1" d="m850.12,713.33c-1.3-.83-1.68-2.22-2.19-3.55-3.03-7.98-4.33-16.34-5.29-24.74-.23-2,.29-4.12.69-6.14.13-.65.9-1.26,1.5-1.7.26-.19.98-.06,1.26.19.28.25.5,1.01.33,1.23-3.15,3.99-2.13,8.58-1.58,12.91.83,6.49,2.48,12.84,4.76,19.01.32.87.38,1.84.56,2.76,0,0-.04.03-.04.03Z"/>
  <path class="cls-1" d="m814.46,557.03c-.38.11-.74.33-.88.23-1.29-.91-2.54-1.88-3.8-2.83-4.82-3.66-9.77-7.07-15.6-8.99-1.19-.39-2.32-1.02-3.43-1.63-.73-.39-1.32-1.09-.83-1.9.19-.32,1.22-.46,1.65-.25,4.27,2.1,8.66,4.02,12.68,6.53,3.47,2.17,6.52,5.03,9.72,7.62.29.24.33.79.49,1.21Z"/>
  <path class="cls-1" d="m735.14,773.31c-.11-1.65-.26-2.75-.26-3.86,0-2.56,0-5.12.11-7.67.28-6.06-1.16-11.71-3.83-17.1-.28-.56-.47-1.18-.59-1.79-.03-.17.33-.45.55-.63.1-.08.39-.11.46-.03.51.57,1.2,1.1,1.45,1.79,1.08,3,2.38,5.98,2.94,9.09,1.1,6.15,1.35,12.38,0,18.57-.09.41-.38.78-.82,1.64Z"/>
  <path class="cls-1" d="m855.37,763.55c-.87.15-1.77.51-2.61.39-2.55-.37-4.87-1.38-6.88-3.04-4.8-3.96-7.81-9.13-10.01-14.84-.22-.58-.32-1.26-.27-1.87.06-.75.25-1.52.58-2.19.21-.43,1.39.72,1.6,1.9.73,4.16,2.53,7.79,5.08,11.15,3.2,4.2,6.85,7.53,12.59,7.58-.03.31-.06.62-.09.93Z"/>
  <path class="cls-1" d="m641.11,1014.92c1.58-4.21,2.97-7.94,4.37-11.66,1.2-3.22,1.18-6.58,1.21-9.94,0-.96-.03-1.92-.01-2.88.01-.69.33-1.4,1.04-1.25.46.09.82.81,1.14,1.31.16.25.16.62.18.93.45,8.45-1.83,16.11-6.76,22.97-.15.2-.52.24-1.17.52Z"/>
  <path class="cls-1" d="m528.04,728.54c-.37,1.44-.72,3.5-1.43,5.43-2.13,5.73-5.17,10.96-9.09,15.66-.24.28-.74.79-1.13.11-.12-.2-.01-.6.1-.86.12-.29.37-.51.56-.77,2.76-3.93,5.08-8.12,6.91-12.56.6-1.47,1.03-3.01,1.47-4.54.3-1.05.08-1.56-1.26-1.88-1.3-.31-1.39-1.7-.49-2.67.32-.35.69-.67,1.08-.94,1.41-.97,2.87-.28,3.13,1.45.05.32.07.64.17,1.56Z"/>
  <path class="cls-1" d="m881.08,539.81c-2.41-.82-4.39-2.31-6.38-3.83-4.33-3.3-9.11-5.77-14.36-7.19-1.95-.53-4.06-.47-6.09-.72-.27-.03-.75-.4-.73-.51.11-.44.27-1,.61-1.21.5-.32,1.17-.53,1.76-.53,2.73-.03,5.41.42,7.87,1.6,6.48,3.09,12.32,7.13,17.32,12.39Z"/>
  <path class="cls-1" d="m568.04,847.61c.18-2.01.17-4.06.56-6.03,1.49-7.49,3.41-14.86,6.38-21.93.74-1.77,1.44-3.59,3.34-4.45.35-.16.87,0,1.29.12.06.02.12.63-.02.78-3.88,4.1-5.24,9.4-6.75,14.57-1.64,5.62-2.98,11.32-4.45,16.98-.12-.01-.24-.02-.36-.04Z"/>
  <path class="cls-1" d="m752.05,873.76c-2.86-11.2-6.32-21.89-12.24-31.66-.24-.39-.38-.88-.42-1.33-.02-.2.32-.46.53-.63.1-.08.38-.11.46-.03.45.42.99.81,1.28,1.34,5.03,9.12,8.64,18.75,10.36,29.04.18,1.06.02,2.18.02,3.28Z"/>
  <path class="cls-1" d="m567.78,666.17c.13-.46.16-.98.41-1.36,3.79-5.58,8.21-10.6,13.62-14.67,1.13-.85,2.44-1.54,3.76-2.06,1.75-.69,3.48-.44,4.87.95.3.31.39.83.58,1.25-.39.15-.91.53-1.16.4-2.17-1.13-4.02-.21-5.88.79-5.17,2.78-9.14,6.9-12.78,11.4-.99,1.23-2.07,2.38-3.12,3.56l-.3-.26Z"/>
  <path class="cls-1" d="m781.89,688.18c-.15-2.03-.31-4.07-.45-6.1-.47-6.66-1.01-13.31-2.56-19.83-.48-2-1.17-3.95-1.71-5.93-.06-.22.24-.76.38-.76.41,0,.99.05,1.21.32.39.47.66,1.09.8,1.68,2.19,9.48,3.47,19.06,3.43,28.81,0,.6-.2,1.2-.31,1.81-.26,0-.52,0-.78.01Z"/>
  <path class="cls-1" d="m823.93,875.81c-3.97-4.48-5.49-10.04-6.39-15.7-.78-4.86-.93-9.83-1.26-14.76-.1-1.58.08-3.18.22-4.76.1-1.1.27-2.86,1.32-2.76,1.29.13.61,1.79.56,2.77-.13,2.69-.68,5.4-.52,8.06.55,9.27,1.67,18.44,6.64,26.62-.19.17-.38.34-.56.52Z"/>
  <path class="cls-1" d="m713.95,767.12c-.81-2.05-1.46-4.18-2.46-6.14-1.8-3.53-3.52-7.16-5.8-10.38-2.76-3.9-6.09-7.37-10.88-8.95-.4-.13-.57-.95-.85-1.45.58-.09,1.22-.4,1.72-.23,2.44.8,4.58,2.09,6.48,3.89,5.08,4.82,8.4,10.74,10.9,17.17.73,1.87,1.81,3.72.9,6.1Z"/>
  <path class="cls-1" d="m708.82,965.61c.22-.76.33-1.58.68-2.27,3.96-7.79,6.4-15.95,6.27-24.78,0-.31.02-.71.2-.9.28-.31.73-.68,1.08-.65.39.03.81.42,1.09.75.18.21.21.62.17.92-1.28,9.52-2.87,18.94-8.75,26.97-.09.12-.25.19-.38.28-.12-.11-.24-.21-.36-.32Z"/>
  <path class="cls-1" d="m592.23,770.56c-.39-4.69.96-8.73,2.21-12.77.61-1.97,1.51-3.85,2.08-5.84,1.27-4.42,4.11-7.86,6.9-11.32.54-.67,1.59-.99,2.47-1.28.32-.11,1,.21,1.19.53.15.24-.1,1.03-.38,1.16-1.63.78-2.76,2.04-3.95,3.36-3.49,3.9-5.41,8.59-6.96,13.44-1.3,4.07-2.31,8.22-3.55,12.71Z"/>
  <path class="cls-1" d="m547.58,727.57c.38-1.2.66-2.44,1.16-3.58,2.85-6.54,5.75-13.06,8.64-19.59.26-.58.54-1.15.85-1.7.81-1.41,2-2.07,2.53-1.41.82,1.01-.11,1.75-.49,2.54-2.82,5.86-5.61,11.74-8.54,17.55-1.12,2.23-1.91,4.71-3.93,6.4l-.23-.21Z"/>
  <path class="cls-1" d="m647,690.63c-.08-.88-.28-1.38-.14-1.77,3.27-9.62,6.59-19.23,9.85-28.86.56-1.65.84-3.38,1.34-5.05.1-.33.58-.54.89-.81.19.4.61.84.55,1.2-.23,1.4-.49,2.82-.95,4.15-2.62,7.67-5.27,15.33-7.97,22.97-.94,2.66-1.65,5.45-3.55,8.15Z"/>
  <path class="cls-1" d="m803.71,830.14c.36.93.59,1.23.56,1.49-.9,6.57-.24,13.05,1.21,19.47,1.05,4.66,2.19,9.3,3.25,13.96.06.24-.2.56-.43,1.12-.44-.86-.96-1.5-1.12-2.23-1.74-7.93-4.19-15.72-4.96-23.86-.3-3.2-.45-6.36,1.48-9.95Z"/>
  <path class="cls-1" d="m663.79,436.51c-.08.22-.09.45-.2.51-.42.21-.85.49-1.3.52-6.54.56-12.24,3.38-17.75,6.68-1.49.89-2.78,2.1-4.22,3.07-.25.17-.98-.04-1.22-.31-.25-.27-.39-1.04-.2-1.24.84-.92,1.69-1.97,2.77-2.5,4.15-2.03,8.29-4.14,12.62-5.69,2.8-1,5.92-1.08,8.91-1.53.17-.03.41.33.59.49Z"/>
  <path class="cls-1" d="m921.47,619.19c-.42-.22-.97-.33-1.1-.62-.76-1.73-1.72-3.45-2.07-5.28-1.15-5.97-1.01-11.99-.06-17.99.07-.44.34-.88.62-1.24.16-.21.54-.35.81-.33.22.02.6.33.6.51,0,1.42.12,2.87-.14,4.24-1.28,6.71-.69,13.25,1.48,19.69.08.24-.06.56-.12,1.02Z"/>
  <path class="cls-1" d="m744.54,787c-.13-.41-.39-.84-.36-1.24.67-7.8.69-15.59-.13-23.38-.06-.59.16-1.23.38-1.8.08-.21.5-.32.79-.4.09-.03.32.13.37.25.29.72.75,1.44.77,2.17.18,8.12.33,16.24-1.82,24.39Z"/>
  <path class="cls-1" d="m523.77,970.46c.12-2.27.07-3.52.27-4.73,1-6.29,1.68-12.61,1.32-18.98-.19-3.33-.59-6.65-.89-9.97-.04-.47-.2-.98-.06-1.39.12-.38.52-.84.87-.91.33-.07,1.04.28,1.09.54.26,1.4.5,2.82.51,4.24.05,5.57.2,11.15-.04,16.7-.17,3.96-.86,7.9-1.42,11.83-.09.65-.72,1.21-1.65,2.68Z"/>
  <path class="cls-1" d="m529.39,883.15c.42-1.53.59-3.18,1.29-4.56,3.21-6.24,6.25-12.6,10.74-18.08.7-.86,1.5-1.67,2.39-2.32.44-.33,1.18-.31,1.79-.33.25,0,.6.26.74.5.12.22.04.57,0,.86-.02.14-.14.3-.27.39-5.92,4.27-8.98,10.66-12.43,16.76-1.32,2.33-2.68,4.64-4.03,6.96,0,0-.22-.18-.22-.18Z"/>
  <path class="cls-1" d="m492.41,796.09c.41-1.06.43-1.42.62-1.57,5.3-4.38,9.74-9.51,13.61-15.16,1.07-1.56,2.28-3.04,3.5-4.5.22-.27.91-.43,1.22-.29.75.33.54,1,.26,1.6-.07.14-.13.3-.23.42-3.91,4.99-7.57,10.2-12.22,14.56-1.84,1.72-3.72,3.43-6.76,4.95Z"/>
  <path class="cls-1" d="m743.3,966.5c3.39-6.83,6.64-13.73,8.4-21.21.43-1.85.81-3.71,1.32-5.54.08-.3.73-.67,1.04-.61.34.06.72.54.85.92.15.42.16.96.06,1.4-2.01,8.74-5.37,16.94-10.09,24.57-.24.38-.69.63-1.05.94-.17-.16-.35-.31-.52-.47Z"/>
  <path class="cls-1" d="m485.21,862.97c.55-3.05,2.36-5.52,3.87-8.09,2.09-3.55,4.33-7.03,6.77-10.34,1.78-2.41,3.93-4.56,6.06-6.68.59-.59,1.67-.7,2.55-.94.2-.05.69.27.73.48.08.41.08,1.1-.16,1.26-1.31.87-2.9,1.41-4.02,2.45-1.62,1.49-3.11,3.2-4.33,5.04-3.24,4.9-6.3,9.92-9.46,14.87-.5.78-1.18,1.44-1.78,2.15l-.24-.21Z"/>
  <path class="cls-1" d="m712.13,825.85c-.42,1.02-.7,2.13-1.27,3.06-3.58,5.88-6.01,12.27-8.33,18.69-1.07,2.96-1.52,6.15-2.23,9.25-.38,1.64-.71,3.3-1.3,4.9-.46-2.75-.03-5.45.6-8.02,2.31-9.46,5.91-18.44,10.82-26.87.31-.54.78-.98,1.18-1.47.18.16.35.31.53.47Z"/>
  <path class="cls-1" d="m523.61,844.72c3.61-6.03,7.87-11.56,12.77-16.58,1.11-1.13,2.41-2.08,3.7-3.02.95-.7,2.09-.83,3.19-.37.38.16.8.61.89.99.06.28-.34.93-.62.99-4.17.87-6.99,3.73-9.66,6.69-2.45,2.72-4.65,5.67-7,8.49-.91,1.09-1.94,2.08-2.92,3.12l-.34-.3Z"/>
  <path class="cls-1" d="m796.83,449.3c-1.85-1.22-2.76-3.08-3.45-5.01-2.35-6.52-3.38-13.26-3.12-20.19.02-.61.24-1.23.47-1.81.06-.15.5-.19.77-.22.12-.01.33.1.38.2.19.42.5.88.47,1.3-.66,8.91.78,17.44,4.49,25.73Z"/>
  <path class="cls-1" d="m624.35,455.57c-1.86.81-3.73,1.58-5.56,2.44-5.52,2.57-10.54,5.8-14.08,10.94-.18.26-.99.43-1.18.26-.42-.38-.86-.99-.85-1.5.01-.55.4-1.22.83-1.63,3.53-3.46,7.49-6.34,12.03-8.36,1.88-.84,3.77-1.7,5.71-2.36.93-.32,2.01-.18,3.03-.25.02.15.05.31.07.46Z"/>
  <path class="cls-1" d="m791.59,641.3c-.65-.66-1.44-1.24-1.93-2.01-2.57-4.08-5.85-7.56-9.18-11-2.27-2.35-5.12-3.75-8.17-4.79-.75-.26-1.55-.39-2.23-.76-.27-.15-.46-.86-.34-1.21.12-.37.61-.67,1-.86.24-.12.63-.02.91.08,3.04,1.07,5.89,2.51,8.26,4.7,3.4,3.14,6.54,6.56,9.21,10.34,1.16,1.63,2.73,3.21,2.44,5.53l.02-.02Z"/>
  <path class="cls-1" d="m924.7,680.46c-1.79-6.73-3.55-13.47-5.39-20.19-.42-1.52-1.18-2.95-1.62-4.47-.14-.49.06-1.37.43-1.64.59-.43,1.18.05,1.41.72,1.14,3.3,2.41,6.57,3.33,9.94,1.39,5.07,1.46,10.34,1.84,15.65Z"/>
  <path class="cls-1" d="m889.61,670.46c-.35-.51-.8-.99-1.02-1.55-2.93-7.4-6.75-14.33-11.06-21-.16-.25-.26-.6-.22-.89.03-.27.21-.6.43-.75.23-.16.71-.31.86-.19.59.48,1.29.97,1.61,1.62,2.94,5.97,5.85,11.96,8.68,17.99.65,1.39.96,2.95,1.42,4.43-.23.11-.45.23-.68.34Z"/>
  <path class="cls-1" d="m649.33,639.24c1.73-2.84,3.52-5.66,5.19-8.54,2.38-4.13,4.63-8.33,7.03-12.45.7-1.21,1.66-2.3,2.65-3.29.21-.21,1.16.12,1.6.44.22.16.27,1.02.06,1.26-5.2,5.87-8.6,12.95-13.09,19.3-.91,1.29-1.97,2.47-2.96,3.69-.16-.13-.31-.27-.47-.41Z"/>
  <path class="cls-1" d="m765.34,737.07c-.68-1.4-1.16-2.06-1.34-2.79-1.94-8.14-2.36-16.33-.33-24.51.29-1.17,1.07-2.24,1.69-3.31.11-.19.62-.31.85-.22.22.09.39.48.44.76.05.29-.01.64-.12.92-3.22,8.94-3.32,17.99-1.01,27.13.07.28-.05.61-.2,2.01Z"/>
  <path class="cls-1" d="m620.66,873.25c-.39-3.83.35-7.52,1.62-11.11,1.98-5.58,4.47-10.9,8.09-15.61.96-1.24,2.21-2.26,3.38-3.33.15-.14.64-.07.85.08.15.1.22.61.1.76-1.31,1.59-2.8,3.05-3.99,4.73-4.39,6.17-7.25,13.04-8.98,20.4-.32,1.37-.71,2.73-1.07,4.09Z"/>
  <path class="cls-1" d="m630.78,466.04c-1.03.65-1.65,1.13-2.33,1.46-6.37,3.04-12.18,6.88-17.09,12-.54.56-1.2,1.02-1.86,1.46-.62.41-2.2.15-2.12-.28.1-.57.35-1.22.76-1.61,6.08-5.74,13.09-10.02,20.84-13.11.38-.15.89.03,1.81.09Z"/>
  <path class="cls-1" d="m523.82,652.91c.13-1.38,1.29-1.76,2.28-2.11,5.82-2.08,11.65-4.12,17.51-6.07,1.32-.44,2.79-.55,4.2-.59,1-.03,1.81.64,2.04,1.66.07.3-.47,1.05-.59,1.02-6.15-1.5-11.45,1.46-16.97,3.19-2.86.9-5.69,1.87-8.54,2.81,0,0,.07.09.07.09Z"/>
  <path class="cls-1" d="m749.66,607.47c.19.33.51.64.45.82-.31.9-.77,1.74-1.08,2.63-.87,2.58-1.33,5.21-1.44,7.95-.3,7.69.76,15.25,1.9,22.81.05.31.23.64.17.93-.07.36-.33.67-.51,1.01-.19-.23-.5-.42-.56-.68-.36-1.54-.71-3.08-.97-4.64-1.29-7.57-1.73-15.21-1.36-22.87.12-2.56.94-4.99,2.27-7.2.21-.35.75-.51,1.13-.76Z"/>
  <path class="cls-1" d="m790.3,730.87c-5.46-6.02-9.93-12.75-14.18-19.64-.23-.38-.4-.93-.31-1.33.09-.38.51-.75.88-.99.21-.13.69-.09.88.07.34.3.62.72.82,1.14,3.15,6.82,7.48,12.89,11.92,18.9.28.37.41.85.61,1.28-.21.19-.41.38-.62.56Z"/>
  <path class="cls-1" d="m745.5,566.42c-1.29.28-2.5.13-3.68-.51-5.17-2.81-10.16-5.91-14.62-9.78-.48-.41-.92-.88-1.34-1.36-.99-1.14-1.21-2.67-.44-2.91,1.19-.38,1.66.63,2.24,1.32,4.26,5.1,9.84,8.46,15.47,11.74.8.47,2.37,1.5,2.37,1.5Z"/>
  <path class="cls-1" d="m714.37,569.8c.45-5.94-.84-11.52-2-17.13-.32-1.52-.3-3.13-.3-4.7,0-.27.63-.74,1-.76.28-.02.84.5.86.81.43,6.01,2.09,11.9,1.78,17.99-.07,1.39.01,2.8-1.33,3.78Z"/>
  <path class="cls-1" d="m703.36,563.48c-.11-.27-.34-.56-.31-.81,1.02-7.48-.89-14.49-3.34-21.42-.32-.9-.75-1.76-.98-2.68-.1-.38.17-.85.27-1.28.5.25,1.17.38,1.47.79.46.62.73,1.4.98,2.15,1.78,5.44,3.2,10.98,3.37,16.72.07,2.16-.43,4.35-.67,6.52-.26,0-.53,0-.79.01Z"/>
  <path class="cls-1" d="m873.16,639.42c-1.31-1.01-.8-2.25-1.08-3.26-.3-1.07-.57-2.17-.67-3.27-.47-5.27-2.11-10.27-3.39-15.35-.31-1.23-.63-2.46-.81-3.71-.06-.39.31-.84.49-1.26.48.32,1.25.55,1.38.97.64,2.13,1.23,4.28,1.62,6.46.89,5,1.7,10.01,2.43,15.04.2,1.36.03,2.78.03,4.38Z"/>
  <path class="cls-1" d="m759.53,604.4c-4.7-3.34-9.18-6.91-12.62-11.62-.75-1.03-1.5-2.09-2.02-3.24-.28-.62-.41-1.81-.05-2.13.77-.68,1.33.23,1.81.82.1.12.18.26.26.4,2.99,5.18,7.09,9.41,11.48,13.4.91.83,1.61,1.89,2.41,2.84,0,0-.91-.22-1.27-.48Z"/>
  <path class="cls-1" d="m715.61,530.11c-.6-.2-1.25-.31-1.79-.61-5.98-3.4-11.59-7.35-16.85-11.78-1.45-1.22-2.74-2.69-3.87-4.21-.5-.67-.47-1.77-.59-2.68-.02-.19.33-.46.56-.63.09-.07.32,0,.46.07.13.06.27.18.33.31,2.5,5.48,7.19,8.81,11.88,12.14,3.36,2.39,6.77,4.72,10.15,7.08,0,0-.28.32-.28.32Z"/>
  <path class="cls-1" d="m804.84,728.83c-1.72-2.46-3.38-4.96-5.18-7.36-3.12-4.18-6.1-8.51-10.59-11.45-.24-.16-.33-.96-.15-1.24.19-.3.88-.54,1.2-.43.72.26,1.49.64,2,1.19,2.15,2.33,4.35,4.63,6.26,7.14,2.01,2.64,3.8,5.47,5.54,8.31.64,1.04.87,2.33,1.29,3.51-.12.11-.25.22-.37.33Z"/>
  <path class="cls-1" d="m733.75,615.66c.43-4.26.73-8.54,1.32-12.78.39-2.84,1.36-5.55,3.39-7.73.15-.16.51-.12.77-.18.05.29.24.66.13.85-3.83,6.63-3.58,14.03-4.04,21.29-.12,1.89.14,3.8.18,5.7,0,.21-.34.42-.52.64-.22-.21-.57-.4-.63-.65-.17-.77-.28-1.56-.3-2.34-.04-1.59-.01-3.18-.01-4.77-.09,0-.19-.02-.28-.03Z"/>
  <path class="cls-1" d="m561.26,802.64c0-.73-.2-1.52.03-2.17,2.3-6.46,4.67-12.91,8.71-18.56.65-.9,1.38-1.76,2.18-2.53.43-.42,1.06-.71,1.65-.87.4-.11.95.03,1.31.26.13.09.04.93-.2,1.11-4.1,3.08-6.49,7.41-8.64,11.89-1.17,2.44-2.05,5.01-3.07,7.53-.46,1.15-.91,2.3-1.37,3.45-.2-.04-.4-.07-.61-.11Z"/>
  <path class="cls-1" d="m715.81,636.44c-1.61-.79-2.03-2.5-2.5-3.89-1.94-5.74-3.87-11.52-3.99-17.68-.02-1.24.3-2.49.54-3.72.04-.2.48-.46.71-.44.21.01.54.37.56.59.2,2.86.26,5.73.54,8.58.46,4.64,1.88,9.05,3.42,13.43.36,1.02.43,2.14.64,3.21l.09-.07Z"/>
  <path class="cls-1" d="m705.59,574.09c.52.26.86.34,1.04.55.18.21.35.6.29.85-1.67,6.86.42,13.23,2.44,19.64.37,1.17,1.75,2.26.66,3.72-.65-1.04-1.5-2.01-1.93-3.13-2.26-5.83-3.69-11.85-3.95-18.12-.03-.79.02-1.63.29-2.35.18-.49.81-.82,1.17-1.15Z"/>
  <path class="cls-1" d="m756.03,789.14c-.03,1.26.19,2.59-.12,3.78-2.39,8.99-3.11,18.14-2.77,27.4.09,2.38.07,4.77.1,7.16,0,0,.06-.06.06-.06-.29-.52-.83-1.02-.85-1.55-.12-3.31,0-6.64-.2-9.95-.33-5.72.52-11.35,1.12-16.99.34-3.12,1.28-6.17,1.99-9.24.05-.21.49-.34.75-.5,0,0-.08-.06-.08-.06Z"/>
  <path class="cls-1" d="m724.08,610.37c-1.89-3.38-1.59-6.47-1.63-9.44-.07-5.09.2-10.18,1.92-15.06.32-.89.69-1.78,1.18-2.59.17-.28.76-.32,1.16-.46.09.28.26.55.25.83,0,.3-.18.6-.29.9-2.52,7.48-3.69,15.11-2.61,23.01.1.73.01,1.48.01,2.82Z"/>
  <path class="cls-1" d="m752.49,549.54c-.63.34-.78.5-.9.48-5.21-.83-10.18-2.45-14.84-4.89-1.52-.8-3.08-1.83-2.89-3.98.03-.3.14-.68.36-.84.17-.13.67-.1.82.06,4.26,4.4,9.7,6.49,15.43,8.06.58.16,1.08.59,2.02,1.12Z"/>
  <path class="cls-1" d="m763.87,837.99c-.27-.73-.73-1.45-.77-2.19-.45-8.8.39-17.48,2.56-26.02.21-.83.85-1.54,1.74-3.1,0,1.52.15,2.16-.02,2.7-2.67,8.28-3.32,16.79-3.09,25.42.03,1.08-.32,2.16-.49,3.24,0,0,.07-.05.07-.05Z"/>
  <path class="cls-1" d="m460.07,664.05c4.01-5.78,8.38-11.22,14.09-15.43,1.69-1.24,3.45-2.37,6.01-1.2-.59.46-.98.93-1.48,1.13-3.66,1.4-6.62,3.76-9.24,6.61-2.91,3.16-5.81,6.33-8.72,9.5-.22-.2-.44-.4-.67-.61Z"/>
  <path class="cls-1" d="m785.6,561.87c-2.83-1.14-5.31-2.83-7.68-4.74-2.47-2-5.09-3.83-7.55-5.86-1.34-1.1-2.55-2.4-3.67-3.73-1.05-1.25-1.15-2.8-.4-2.91,1.29-.18,1.46,1.01,1.92,1.76,1.98,3.21,5.08,5.25,7.94,7.51,3.24,2.56,6.6,4.96,9.9,7.43-.16.18-.32.36-.47.54Z"/>
  <path class="cls-1" d="m619.71,717.1c.06-.79-.08-1.66.22-2.35,2.28-5.25,4.63-10.47,7.01-15.67.32-.69.88-1.37,1.51-1.76.38-.24,1.18-.03,1.66.22.23.12.19.81.22,1.24,0,.12-.16.26-.26.38-4.1,4.58-6.7,10-8.8,15.71-.31.85-.49,1.9-1.63,2.16l.07.06Z"/>
  <path class="cls-1" d="m461.17,957.96c2.42-5.09,5.97-9.38,9.65-13.58.84-.95,1.84-1.83,3.27-1.73.46.03.9.25,1.35.39-.19.39-.27,1.01-.57,1.15-3.47,1.6-5.79,4.4-7.96,7.4-1.68,2.31-3.53,4.5-5.3,6.74-.14-.13-.29-.25-.43-.38Z"/>
  <path class="cls-1" d="m593.88,668.14c.93-1.23,1.8-2.52,2.82-3.67,2.97-3.36,6.53-6.04,10.2-8.58.89-.61,2-.94,3.05-1.26.38-.12,1.1.02,1.31.31.59.8-.31.99-.76,1.27-2.02,1.27-4.03,2.53-6.09,3.73-2.93,1.7-5.39,3.92-7.5,6.55-.7.87-1.32,1.8-1.98,2.7-.35-.35-.69-.7-1.04-1.05Z"/>
  <path class="cls-1" d="m564.78,721.73c1.75-4.72,5.08-8.38,8.26-12.13,1.09-1.29,2.56-1.58,5.25-1.8-5.79,4.43-9.21,9.57-13.1,14.3-.13-.12-.27-.25-.4-.37Z"/>
  <path class="cls-1" d="m816.23,594.54c-1.22-1.45-2.46-2.87-3.66-4.34-1.8-2.22-3.58-4.45-5.33-6.71-.67-.87-1.26-1.81-1.83-2.75-.09-.16.08-.61.26-.76.21-.16.6-.23.87-.16.28.08.56.32.75.56,3.41,4.38,7.14,8.53,9.54,13.61-.2.18-.4.37-.61.55Z"/>
  <path class="cls-1" d="m613.06,675.9c-.02-.16-.09-.34-.04-.47,2-4.92,5.29-8.94,9.03-12.6.7-.68,1.71-1.51,3.08-.67-2.09,2.18-4.25,4.23-6.18,6.48-1.95,2.26-3.68,4.72-5.51,7.08-.08.1-.3.09-.45.13,0,0,.06.06.06.06Z"/>
  <path class="cls-1" d="m565.19,722.1c-2.08,4.35-4.17,8.7-6.45,13.47.21-4.31,2.79-10.02,6.05-13.84.13.12.27.25.4.37Z"/>
  <path class="cls-1" d="m805.22,728.5c2.85,3.27,3.86,7.41,5.54,11.39-.44,0-.81.08-.85-.01-1.84-3.61-4.18-7-5.06-11.05.12-.11.25-.22.37-.33Z"/>
  <path class="cls-1" d="m885.63,895.61c1.08-3.72,1.1-6.68,2.43-9.34.16-.32.8-.59,1.17-.53.25.04.69.77.59,1.02-1.06,2.72-1.35,5.81-4.19,8.86Z"/>
  <path class="cls-1" d="m799.14,568.5c-4.92-1.37-9.48-3.5-13.54-6.63.16-.18.32-.36.47-.54,4.45,2.27,8.9,4.54,13.35,6.82l-.29.35Z"/>
  <path class="cls-1" d="m816.84,593.99c2.81,2.68,4.52,6.11,6.23,9.51.32.64.25,2.24.25,2.24-2.71-3.51-4.92-7.34-7.09-11.2.2-.18.4-.37.61-.55Z"/>
  <path class="cls-1" d="m416.02,1114.86c-.23-.33-.59-.66-.53-.8.78-1.68,1.51-3.4,2.47-4.98.83-1.37,2.28-1.9,2.59-1.19.48,1.08-.42,1.67-.91,2.42-.85,1.3-1.6,2.67-2.48,3.96-.22.32-.76.41-1.14.6Z"/>
  <path class="cls-1" d="m756.11,789.2c-.3-3.37,1.26-6.06,3.22-8.58.15-.19.61-.29.86-.22.21.06.52.57.46.67-1.67,2.61-2.2,5.89-4.63,8.06,0,0,.08.06.08.06Z"/>
  <path class="cls-1" d="m711.6,825.37c.89-2.71,2.78-4.49,5.32-5.61.34-.15.86.09,1.29.15-.11.4-.08.95-.34,1.17-1.88,1.62-3.82,3.18-5.74,4.76-.18-.16-.35-.31-.53-.47Z"/>
  <path class="cls-1" d="m523.74,652.81c-2.83,1.6-5.65,3.19-9.01,5.08,1.5-2.44,1.48-2.53,4.21-3.68,1.54-.65,2.97-1.9,4.87-1.31,0,0-.07-.09-.07-.09Z"/>
  <path class="cls-1" d="m715.72,636.51c2.44,2.75,3.27,6.32,4.89,9.5,0,0,.09-.08.09-.08-2.89-2.92-4.43-5.91-4.89-9.49,0,0-.09.07-.09.07Z"/>
  <path class="cls-1" d="m727.44,656.51c1.78,1.95,3.56,3.9,5.32,5.87.05.05-.08.26-.22.68-2.17-1.88-4.42-3.49-5.42-6.26,0,0,.32-.29.32-.29Z"/>
  <path class="cls-1" d="m461.59,958.33c-1.12,2.02-2.17,4.09-3.41,6.05-.36.56-1.24.79-1.88,1.18l.09.09c.84-3.03,2.78-5.36,4.76-7.68.14.13.29.25.43.38Z"/>
  <path class="cls-1" d="m723.29,533.9c-2.86-.65-5.47-1.82-7.68-3.79,0,0,.28-.31.28-.32,2.62,1.09,5.44,1.83,7.34,4.19l.07-.08Z"/>
  <path class="cls-1" d="m799.43,568.15c2.56.33,4.85,1.4,7.75,2.57-4.12-.05-4.18-.07-8.04-2.22,0,0,.29-.35.29-.35Z"/>
  <path class="cls-1" d="m767.89,690.93c1.74,1.78,3.48,3.56,5.56,5.68-3.19-1.05-3.54-1.35-6.2-5.1.21-.2.43-.39.64-.59Z"/>
  <path class="cls-1" d="m793.74,734.22c1.8,1.49,3.22,3.25,4.11,5.43-2.13-1.16-3.7-2.78-4.52-5.06.13-.12.27-.25.4-.37Z"/>
  <path class="cls-1" d="m702.43,603.77c1.41,1.01,2.21,2.46,2.96,3.98-1.57-.82-2.78-1.94-3.32-3.66.12-.1.24-.21.36-.32Z"/>
  <path class="cls-1" d="m682.44,791.34c-.78.91-1.56,1.82-2.35,2.72-.04.04-.27-.03-.36-.11-.09-.08-.19-.31-.15-.36.77-.92,1.56-1.82,2.34-2.72.17.16.35.31.52.47Z"/>
  <path class="cls-1" d="m676.48,494.33c.78.43,1.57.83,2.32,1.31.21.14.44.57.36.77-.26.73-.76.29-1.04.04-.66-.58-1.25-1.24-1.87-1.87,0,0,.23-.25.23-.25Z"/>
  <path class="cls-1" d="m649.8,639.65c-.73,1.1-1.46,2.19-2.69,4.05.64-2.77.62-2.78,2.23-4.46.16.14.31.27.47.41Z"/>
  <path class="cls-1" d="m724.34,652.83c1.03,1.22,2.07,2.45,3.1,3.67,0,0-.31.29-.31.29-1.38-1.03-2.38-2.3-2.71-4.03,0,0-.08.07-.08.07Z"/>
  <path class="cls-1" d="m529.61,883.33c-.37,1.18-.73,2.35-1.43,4.58q.03-2.85,1.21-4.76s.22.18.22.18Z"/>
  <path class="cls-1" d="m790.92,730.3c.94,1.31,1.88,2.61,2.81,3.92-.13.12-.27.24-.4.37-1.54-.81-2.35-2.21-3.03-3.72.21-.19.41-.37.62-.56Z"/>
  <path class="cls-1" d="m768.86,998.71c-.43.6-.82,1.23-1.3,1.79-.12.14-.64.17-.72.06-.14-.19-.22-.63-.09-.79.46-.57,1.02-1.07,1.54-1.59.19.18.39.35.58.53Z"/>
  <path class="cls-1" d="m850.12,713.33s.04-.03.04-.03"/>
  <path class="cls-1" d="m613.06,675.9s-.06-.06-.06-.06"/>
  <path class="cls-1" d="m458.57,667.33c-.24.52-.46,1.04-.72,1.54-.05.1-.25.13-.39.19-.07-.21-.28-.52-.2-.63.33-.46.74-.85,1.13-1.27,0,0,.19.17.19.17Z"/>
  <path class="cls-1" d="m573.97,868.14c-.3.54-.56,1.1-.91,1.6-.16.22-.49.33-.74.48-.04-.41-.25-.9-.09-1.2.28-.52.78-.92,1.19-1.38.18.16.37.33.55.49Z"/>
  <path class="cls-1" d="m568.08,666.43c-.44,1.11-.7,2.36-2.15,2.67l.08.07c-.15-1.44.68-2.29,1.77-3,0,0,.3.26.3.26Z"/>
  <path class="cls-1" d="m458.38,667.16c-.05-1.37.66-2.32,1.69-3.11.22.2.44.41.66.61-.47,1.09-.91,2.22-2.17,2.67,0,0-.18-.17-.18-.17Z"/>
  <path class="cls-1" d="m636.25,809.52c-.06.13-.08.3-.18.39-.45.4-.95.74-1.42.09-.04-.06.49-.56.78-.82.09-.08.27-.06.41-.09.13.15.26.29.4.44Z"/>
  <path class="cls-1" d="m795.6,894.55c.28.09.65.1.81.29.23.28.29.68.43,1.04-.38-.06-.8-.05-1.14-.2-.23-.1-.35-.44-.52-.68.14-.15.28-.3.42-.45Z"/>
  <path class="cls-1" d="m723.22,1037.53c-.04.43-.09.87-.13,1.3-.04-.11-.13-.24-.11-.33.08-.3.2-.59.3-.89,0,0-.06-.09-.06-.09Z"/>
  <path class="cls-1" d="m824.5,875.29c.2.5.39,1,.59,1.5-.87.24-.93-.47-1.15-.98.19-.17.38-.34.56-.52Z"/>
  <path class="cls-1" d="m884.26,542.24c0,.14,0,.27,0,.41-.23-.05-.52-.03-.66-.17-.11-.11-.04-.41-.05-.63.24.13.48.26.71.39Z"/>
  <path class="cls-1" d="m732.01,908.39c-.05.1-.1.19-.15.29-.1-.06-.25-.1-.28-.19-.03-.08.08-.2.13-.3.1.07.2.13.3.2Z"/>
  <path class="cls-1" d="m723.3,533.9s-.08.09-.08.09"/>
  <path class="cls-1" d="m723.98,921.18c.05.12.14.24.13.35-.01.11-.14.2-.22.3-.05-.12-.14-.24-.13-.36.01-.1.14-.19.22-.29Z"/>
  <path class="cls-1" d="m763.04,749.57c.57.36.81.78.25,1.34-.26-.3-.51-.59-.77-.89.17-.15.35-.3.52-.46Z"/>
  <path class="cls-1" d="m709.18,965.93l-.64,1c-.1-.11-.3-.26-.28-.31.16-.35.37-.67.56-1.01.12.11.24.21.36.32Z"/>
  <path class="cls-1" d="m743.82,966.97c-.31.22-.61.43-.92.65.13-.37.27-.75.4-1.12.17.16.35.32.52.47Z"/>
  <path class="cls-1" d="m902.86,849.49c-.11.23-.22.46-.33.69.01-.11-.02-.26.04-.34.09-.12.24-.18.37-.27,0,0-.09-.08-.09-.08Z"/>
  <path class="cls-1" d="m721.37,648.21c-.22-.76-.45-1.52-.67-2.28,0,0-.09.08-.09.08.89.56.82,1.41.68,2.28,0,0,.08-.08.08-.08Z"/>
  <path class="cls-1" d="m818.68,902.24c.21.34.43.67.61,1.03.02.05-.18.21-.28.32-.26-.32-.52-.63-.78-.95.15-.13.3-.27.45-.4Z"/>
  <path class="cls-1" d="m871.3,720s-.06.05-.07.05"/>
  <path class="cls-1" d="m689.67,1013.6c-.09.33-.17.67-.26,1-.05-.09-.17-.23-.14-.28.14-.23.32-.43.48-.64,0,0-.09-.08-.09-.08Z"/>
  <path class="cls-1" d="m547.81,727.78c-.19.37-.37.75-.56,1.12-.1-.11-.32-.27-.3-.31.18-.35.41-.68.62-1.02,0,0,.23.21.23.21Z"/>
</svg>