<?xml version="1.0" encoding="UTF-8"?>
<svg id="Livello_1" data-name="Livello 1" xmlns="http://www.w3.org/2000/svg" viewBox="0 0 1133.86 1133.86">
  <defs>
    <style>
      .cls-1 {
        stroke-width: 0px;
      }
    </style>
  </defs>
  <path class="cls-1" d="m580.86,460.25c4.64,1.06,8.43.74,12.1-.14,6.61-1.58,13.24-2.12,19.99-1.34,1.26.15,2.56.13,3.83.04,2.55-.19,5.1-.4,7.63-.74,4.15-.55,8.24-.53,12.42,0,3.45.43,7.02.38,10.5.07,3.37-.3,6.65-.42,10.02.11,2.83.45,5.73.61,8.59.62,5.98,0,11.79.66,17.23,3.43,2.17,1.1,4.57,1.4,6.98,1.51.95.05,1.89.18,2.83.31.11.01.3.24.28.3-.08.26-.21.68-.37.71-3.39.59-6.67-.1-9.93-.93-.93-.24-1.82-.62-2.71-.96-4.22-1.63-8.56-2.38-13.12-2.33-3.98.04-7.96-.51-11.95-.68-2.7-.11-5.44-.22-8.12.08-3.36.37-6.67.56-10.03.03-4.94-.78-9.85-.57-14.81.08-3.62.48-7.38.77-10.99.37-5.83-.64-11.51-.12-17.13,1.15-5.09,1.16-10.13,1.39-15.21.32-1.38-.29-2.45-.07-3.63.58-4.76,2.62-9.54,5.2-14.34,7.75-1.85.98-3.56,2.05-5.01,3.62-1.29,1.4-2.84,2.57-4.3,3.82-2.43,2.09-4.81,4.22-6.54,6.97-.51.81-1.11,1.58-1.8,2.24-6.68,6.45-12.18,13.94-18.45,20.76-5.08,5.53-9.86,11.34-14.77,17.03-.84.97-1.6,2.01-2.5,2.91-6.7,6.64-13.43,13.25-20.13,19.88-5.91,5.85-12.09,11.41-18.12,17.11-4.61,4.36-9.11,8.98-12.64,14.37-.18.27-.34.55-.56.78-7.89,8.54-13.53,18.53-18.72,28.83-1.08,2.14-2.42,4.14-3.67,6.19-2.16,3.55-3.98,7.25-5.71,11.04-2.59,5.65-5.88,10.98-8.88,16.44-.46.84-1.14,1.58-1.47,2.46-2.4,6.23-7.05,11-10.56,16.51-.34.53-.76,1.06-1.27,1.41-.31.22-.87.17-1.29.09-.13-.02-.2-.51-.25-.79-.02-.14.05-.31.11-.46,2.13-4.82,4.15-9.7,6.45-14.44,2.08-4.31,4.42-8.51,6.73-12.71,2.39-4.34,4.88-8.6,6.5-13.34.71-2.08,2.11-3.93,3.2-5.89,3.98-7.11,7.81-14.32,11.98-21.31,3.35-5.61,6.73-11.23,11.19-16.11,2.04-2.23,3.68-4.83,5.66-7.12,4.59-5.31,9.15-10.67,14.79-14.97,1.64-1.25,3.06-2.81,4.57-4.24,4.87-4.62,9.84-9.13,14.58-13.88,9.62-9.61,18.96-19.48,27.5-30.08.9-1.12,1.88-2.19,2.93-3.16,3.05-2.85,5.7-6.03,8.07-9.47,1.17-1.69,2.68-3.17,4.16-4.61,3.67-3.58,7.34-7.19,9.99-11.59,1.29-2.14,2.82-3.79,4.91-5.04.27-.16.5-.4.74-.61,4.3-3.52,8.35-7.38,13.66-9.29-.32-1.26-1.07-.94-1.57-.83-2.8.62-5.62,1.23-8.38,1.99-8.47,2.33-16.92,4.73-25.39,7.1-.61.17-1.25.33-1.88.35-.6.02-1.64.02-1.75-.26-.45-1.14.71-1.16,1.34-1.35,5.05-1.5,10.13-2.93,15.19-4.39,4.61-1.33,9.19-2.74,13.82-3.98,2.46-.66,4.98-1.31,7.51-1.47,6.94-.46,12.9-3.34,18.63-6.94,1.76-1.1,3.55-2.16,5.34-3.22,4.11-2.44,8.38-4.46,12.88-6.2,6.99-2.7,13.75-6.02,20.5-9.28,7.19-3.47,14.19-7.31,21.39-10.76,5.32-2.55,10.76-4.91,16.27-7.01,7.07-2.7,13.54-6.5,19.95-10.4,2.41-1.47,4.48-3.5,7.46-5.87-1.57.16-2.18.11-2.71.29-5.16,1.8-10.45,2.92-15.89,3.37-3.26.27-6.03,2.01-8.95,3.25-6.47,2.75-12.77,5.91-19.33,8.41-5.96,2.27-12.11,4.06-18.27,5.76-5.08,1.4-10.28,2.34-15.42,3.48-.78.17-1.57.3-2.36.4-12.08,1.42-23.31,5.19-33.65,11.68-8.54,5.35-17.31,10.3-26.66,14.14-1.03.42-2.1.83-3.02,1.45-5.88,3.94-12.44,6.49-18.77,9.51-2.39,1.14-4.51,3.03-6.42,4.92-4.2,4.15-8.25,8.45-12.24,12.79-3.67,3.99-7.18,8.12-10.78,12.18-.64.72-1.3,1.42-2.01,2.06-4.29,3.83-8.56,7.69-12.94,11.42-1.94,1.66-4.11,3.04-6.17,4.55-1.03.76-2.18,1.4-3.04,2.32-2.45,2.62-5.36,4.52-8.57,6.03-1.15.54-2.18,1.34-3.32,1.9-.32.16-1.05.01-1.23-.24-.19-.28.04-.85.12-1.29.03-.15.14-.29.25-.4,4.32-4.23,7.95-9.15,12.96-12.71,6.4-4.55,12.01-10.07,17.65-15.49,3.79-3.64,7.06-7.81,10.67-11.64,3.72-3.94,6.96-8.32,11.04-11.94,2.38-2.11,4.52-4.51,6.91-6.62,1.17-1.04,2.61-1.84,4.03-2.53,3.88-1.88,7.83-3.64,11.74-5.45.29-.13.61-.23.87-.4,7.32-4.95,15.71-7.83,23.41-12.05,2.66-1.46,5.33-2.94,7.83-4.66,10.29-7.08,21.77-11.27,33.74-14.49,7.24-1.95,14.61-3.54,21.49-6.66,1.89-.86,3.83-1.65,5.62-2.69,3.68-2.14,6.57-5.08,8.3-9.03.85-1.94,1.58-4.06.05-5.91-1.77-2.15-3.9-3.64-7.05-3.15-6,.93-12.01,1.79-18.04,2.4-8.11.81-16.24,1.36-24.36,2.02-5.1.41-10.21.84-15.07,2.59-5.11,1.84-10.14,3.89-15.25,5.76-5.99,2.19-12.04,4.18-18.27,5.66-6.39,1.51-12.79,2.75-19.29,3.67-3.13.44-6.2,1.56-9.19,2.67-4.64,1.73-9.14,3.85-13.79,5.53-3.59,1.3-7.37,2.08-11.01,3.26-1.99.65-3.79.2-5.61-.36-.48-.15-.94-.78-1.12-1.3-.1-.28.33-.91.68-1.13.66-.42,1.41-.74,2.17-.97,8.91-2.63,17.36-6.45,25.92-9.99,4.45-1.84,9.12-3.03,13.86-3.7,4.75-.68,9.41-1.68,14.09-2.71,10.98-2.41,21.37-6.43,31.78-10.5,4.46-1.75,9.09-3.06,13.91-3.44,9.55-.75,19.11-1.46,28.66-2.22,1.43-.11,2.88-.23,4.27-.57,5.17-1.3,10.49-1.03,15.73-1.54,3.81-.37,7.29.89,9.93,3.84.99,1.11,1.91,1.35,3.36.79,6.56-2.53,13.24-4.76,19.31-8.41,6.14-3.7,12.84-5.44,19.91-6.38,8.38-1.11,16.79-2.36,25.01-4.33,5.54-1.33,10.85-3.79,16.1-6.12,4.03-1.78,6.58-5.03,6.92-9.64.24-3.29-.86-4.9-4.14-5.25-3-.32-6.07-.28-9.1-.13-2.87.15-5.71.67-8.57.98-1.53.17-2.7.8-3.52,2.16-2.18,3.59-5.78,5.58-9.31,7.34-4.84,2.41-9.89,4.52-15.28,5.55-6.75,1.28-13.46,2.78-20.25,3.78-3.6.53-7.35.4-11,.18-3.88-.23-7.63.01-11.38,1.05-5.53,1.53-11.1,2.95-16.7,4.24-2.94.68-5.97.98-8.97,1.43-.79.12-1.65,0-2.38.26-4.89,1.72-10.08,1.58-15.08,2.56-.62.12-1.28.16-1.91.13-6.49-.22-12.58,1.48-18.71,3.41-6.85,2.16-13.85,3.86-20.81,5.65-3.96,1.02-7.93.79-11.8-.59-.32-.11-.55-.69-.65-1.09-.05-.19.27-.62.5-.7,1.36-.46,2.73-.89,4.12-1.26,8.03-2.13,16.06-4.23,24.08-6.39,1.85-.5,3.73-1.01,5.43-1.86,3.69-1.83,7.65-2.37,11.63-2.5,7.54-.25,14.93-1.48,22.31-2.89,10.04-1.91,20.03-4.03,29.82-7,2.96-.9,5.97-1.09,9.01-.71,7.24.89,14.38-.1,21.48-1.23,4.88-.77,9.7-2.02,14.48-3.31,6.07-1.63,11.84-3.96,16.36-8.59.88-.9,1.73-1.9,2.35-2.99,1.36-2.39.65-4.72-1.76-6.12-1.71-.99-3.57-1.31-5.54-1.23-5.59.24-11.21.21-16.77.75-5.94.58-11.81.21-17.71-.3-2.84-.24-5.75-.25-8.59.02-10.5,1-20.97,2.16-31.46,3.24-1.11.11-2.24.2-3.35.17-10.06-.2-20.13-.49-30.19-.62-5.3-.07-10.53.72-15.65,2.06-8.2,2.15-16.21,4.87-24.06,8.1-3.82,1.57-7.92,2.47-11.87,3.75-2.27.74-4.49,1.64-6.73,2.45-1.5.54-2.98,1.12-4.51,1.56-6.75,1.95-13.55,3.75-20.26,5.82-3.8,1.17-7.5,2.73-11.2,4.2-.86.34-1.69.94-2.33,1.62-4.03,4.32-8.07,8.64-11.98,13.08-2.32,2.64-4.35,5.52-6.58,8.23-6.49,7.9-13.06,15.75-19.51,23.68-2.62,3.22-4.97,6.67-7.58,9.9-4.22,5.22-8.73,10.21-12.82,15.53-8.08,10.52-16.83,20.49-25.04,30.9-5.47,6.94-9.89,14.49-13.87,22.35-4.1,8.12-8.39,16.15-12.52,24.26-1.52,2.99-2.62,6.2-4.27,9.11-3.16,5.57-5.5,11.51-8.33,17.23-3.04,6.15-5.79,12.47-9.2,18.4-2.4,4.18-4.56,8.38-6.12,12.94-.45,1.32-1.29,2.63-2.29,3.61-2.71,2.65-4.16,6.01-5.85,9.27-1.54,2.96-3.31,5.82-5.08,8.65-.88,1.41-2.2,2.26-4.01,2.17-1.38-.06-2.15-.93-1.72-2.14.11-.3.21-.6.36-.89,2.43-4.67,4.87-9.34,7.32-14.01.37-.71.68-1.49,1.2-2.07,3.33-3.79,5.26-8.33,7.13-12.91.66-1.62,1.49-3.2,2.46-4.66,2.22-3.35,3.95-6.93,5.43-10.66.94-2.37,2.28-4.58,3.4-6.87,6.31-12.93,12.59-25.86,18.91-38.78,2.95-6.03,5.75-12.15,9.02-18,4.21-7.52,8.46-15.03,14.17-21.61,5.97-6.87,11.62-14.02,17.34-21.11,2.51-3.1,4.77-6.4,7.28-9.51,2.91-3.61,5.99-7.08,8.95-10.65,2.04-2.46,3.99-4.99,5.99-7.49,3-3.74,6.02-7.46,9-11.21,2.29-2.88,4.51-5.81,6.79-8.69,1.39-1.75,2.72-3.57,4.29-5.16,2.37-2.4,4.41-5.04,6.4-7.75,3.89-5.29,8.12-10.29,13.37-14.34.87-.67,1.72-1.52,2.2-2.47,1.09-2.15,2.95-3.33,4.92-4.4,6.48-3.52,13.22-6.36,20.46-7.99,4.67-1.05,9.26-2.47,13.87-3.75.76-.21,1.52-.51,2.23-.87,3.74-1.89,7.79-2.82,11.79-3.97,2.6-.74,5.15-1.69,7.67-2.66,10-3.86,20.07-7.52,30.65-9.36,3.75-.65,7.64-.62,11.47-.62,10.87,0,21.74.33,32.61.18,4.93-.07,9.85-.94,14.77-1.47,5.71-.61,11.4-1.54,17.12-1.77,3.96-.16,7.95.63,11.93.96,2.38.2,4.78.48,7.16.44,5.27-.1,10.54-.48,15.81-.56,3.19-.05,6.4.11,9.58.42,5.89.57,10.35,3.12,11.8,9.55,2.26,0,4.54.32,6.68-.07,3.67-.68,7.33-.54,11-.57,6.61-.05,9.43,3.93,9.08,9.72-.29,4.94-2.45,9.28-5.86,12.84-1.5,1.57-2.47,3.21-3.03,5.27-1.5,5.63-4.64,10.16-9.57,13.32-3.49,2.24-7.05,4.39-10.67,6.42-1.57.88-2.89,1.89-4.07,3.25-5.26,6.12-11.64,10.89-18.47,15.12-7.5,4.66-15.55,8.23-23.65,11.57-5.91,2.44-11.8,4.88-17.49,7.81-3.12,1.61-6.15,3.4-9.28,4.99-9.26,4.72-18.72,8.95-28.44,12.68-5.21,2-10.07,4.81-15.34,8.83Zm42.04-44.46c6.38-2.04,12.65-4.35,18.74-7.15,4.35-2,8.69-4.01,13.04-5.98,4.22-1.91,8.4-3.92,13.24-3.6.61.04,1.24-.27,1.86-.4,6.9-1.36,13.6-3.41,20.28-5.58,5.88-1.91,10.96-5.17,15.79-8.83,2.13-1.62,3.83-3.81,5.63-5.83.32-.36.19-1.14.26-1.72-.45-.04-.94-.21-1.33-.08-1.36.46-2.66,1.07-4.01,1.55-1.8.64-3.58,1.44-5.43,1.78-9.41,1.73-18.8,3.62-28.27,4.88-5.84.77-11.1,2.62-16.22,5.36-3.64,1.95-7.44,3.63-11.24,5.27-2.93,1.26-5.97,2.24-8.94,3.38-.88.34-1.68.75-1.93,1.89-1.28,5.77-4.66,10.02-9.62,13.11-.77.48-1.77.82-1.78,2-.25.03-.49.06-.74.09.22-.04.44-.08.67-.12Z"/>
  <path class="cls-1" d="m715.81,705.51c.4,1.53.63,3.12,1.22,4.57,5.06,12.27,9.1,24.89,13.12,37.52,1.07,3.35,2.34,6.63,3.46,9.96.71,2.12,1.5,4.23,1.94,6.41.95,4.74.04,8.91-4.33,11.75-1.74,1.13-3.36,2.5-5.23,3.35-5.08,2.32-10.26,4.43-15.4,6.62-1.62.69-3.25,1.34-4.87,2.03-1.18.5-2.29,1.18-3.51,1.53-9.68,2.83-18.82,7.12-28.33,10.42-8.9,3.08-17.64,6.64-26.45,9.99-2.69,1.02-5.34,2.16-8.07,3.06-2.42.8-4.89,1.67-7.4,1.93-3.46.36-6.67-.46-8.63-3.85-3.3-5.69-6.2-11.57-8.27-17.8-3.43-10.31-7.31-20.44-11.22-30.57-2.24-5.81-4.23-11.71-6.36-17.56-2.02-5.55-3.55-11.28-6.31-16.56-.8-1.53-1.33-3.21-2.1-5.13-1.06.64-1.95,1.19-2.85,1.72-.83.48-1.67.94-2.52,1.39-1,.52-1.86.26-2.56-.56-.76-.9-.78-2.26.26-2.98,1.68-1.17,3.49-2.18,5.34-3.05.95-.44,1.21-.97.89-1.81-2.89-7.45-5.8-14.89-8.72-22.32-1.23-3.12-2.51-6.22-3.76-9.33-.3-.74-.49-1.53-.87-2.23-3.48-6.46-6.94-12.94-10.51-19.36-2.88-5.16-5.82-10.3-8.89-15.34-1.49-2.45-3.29-4.72-5.06-6.98-1.69-2.16-3.78-3.9-6.24-5.17-2.13-1.1-4.39-1.33-6.37.08-2.27,1.61-3.16,4.04-2.52,6.78.51,2.17,1.24,4.3,2.03,6.38,1.25,3.28,2.42,6.62,4,9.75,3.33,6.58,5.68,13.52,8.15,20.44,1.18,3.29,2.77,6.47,4.46,9.55,4.38,8,8.19,16.27,11.71,24.67,1.11,2.65,1.73,5.5,2.9,8.11,3.98,8.9,8.15,17.7,12.15,26.59,2.55,5.67,4.84,11.46,7.39,17.13,3.23,7.17,7.22,13.84,12.3,19.91,3.48,4.16,6.44,8.75,9.54,13.21,5.2,7.47,10.35,14.97,15.49,22.47,4.52,6.59,9,13.19,13.49,19.79.27.4.53.8.76,1.22,5.7,10.26,13.01,19.32,20.7,28.13,7.14,8.19,14.15,16.49,21.93,24.09,5.26,5.14,10.76,10.02,16.08,15.09,5.44,5.19,10.79,10.47,16.17,15.71,1.49,1.45,2.9,2.99,4.48,4.33,4.04,3.43,7.64,7.25,10.75,11.56,1.11,1.54,2.57,2.83,3.89,4.22,1.54,1.62,3.1,3.23,4.66,4.83,1.09,1.11,1.58,2.45,1.28,3.94-.14.7-.55,1.64-1.1,1.9-.54.25-1.71,0-2.1-.45-3.93-4.62-9.09-8.05-12.45-13.26-1.53-2.37-3.82-4.27-5.86-6.29-3.4-3.38-6.78-6.79-10.35-9.98-5.36-4.78-9.88-10.49-15.95-14.47-.4-.26-.73-.62-1.07-.96-4.37-4.44-8.73-8.9-13.12-13.32-1.69-1.7-3.56-3.23-5.15-5.01-4.68-5.24-9.28-10.55-13.89-15.86-2.93-3.38-5.87-6.75-8.72-10.2-4.98-6.05-9.58-12.35-13.58-19.13-3.16-5.35-6.95-10.32-10.46-15.46-2.16-3.17-4.36-6.31-6.48-9.5-2.83-4.26-5.56-8.58-8.39-12.83-1.5-2.26-3.12-4.44-4.72-6.64-3.95-5.42-7.87-10.88-11.91-16.24-5.04-6.68-9.26-13.84-12.24-21.63-3.83-10.02-8.52-19.64-13.23-29.25-2.68-5.47-4.91-11.09-7.06-16.77-2.19-5.82-4.76-11.51-7.39-17.15-2.83-6.07-6.03-11.98-8.88-18.04-1.15-2.44-1.91-5.07-2.69-7.66-2.16-7.22-5.92-13.79-8.37-20.9-.99-2.87-2.06-5.71-3-8.6-2.21-6.78-.55-11.35,5.43-15.16,1.99-1.27,2.01-1.27,1.32-3.39-.4-1.21-.97-2.38-1.25-3.62-.37-1.71-.77-3.46-.75-5.19.09-7.33,2.06-9.45,9.01-11.58.6-.19,1.27-.18,1.9-.28.97-.16,1.39-.8,1.16-1.69-.32-1.23-.64-2.51-1.24-3.61-4.13-7.54-5.56-15.96-8-24.05-.92-3.04.13-5.78,2.35-7.86,1.49-1.39,3.29-2.57,5.14-3.42,7.27-3.31,14.52-6.67,21.95-9.61,9.21-3.64,18.57-6.88,27.87-10.29.75-.28,1.56-.44,2.25-.83,7.01-3.92,14.92-5.61,22.15-9.08,5.58-2.67,11.64-4.37,17.51-6.45,1.2-.42,2.46-.77,3.72-.89,3.7-.34,6.53,1.17,8.4,4.38.64,1.1,1.15,2.29,1.65,3.46,3.06,7.21,6.03,14.45,9.15,21.62,3.51,8.05,7.17,16.04,10.72,24.07.84,1.9,1.46,3.89,2.24,5.81,3.51,8.58,6.86,17.21,9.28,26.17.5,1.84,1.33,3.6,2.05,5.37.98,2.41,1.05,2.51,3.36,1.47,3.61-1.62,6.89-.99,9.89,1.31,3.42,2.62,6.89,5.2,9.53,8.7.96,1.27,2.09,2.44,3.29,3.48,2.57,2.23,4.69,4.78,6.23,7.82.29.57.58,1.2,1.05,1.59,4.75,4.06,7.95,9.58,12.85,13.53,3.09,2.5,5.81,5.46,8.6,8.3,1.57,1.59,3.07,3.28,4.4,5.07,3.42,4.63,6.78,9.3,10.05,14.03,5.63,8.15,11.17,16.37,16.75,24.55.72,1.06,1.52,2.07,2.17,3.16,3.43,5.82,7.85,10.88,12.22,15.98,2.59,3.03,5.08,6.15,7.55,9.28.58.73.93,1.66,1.3,2.53.82,1.91,1.44,3.92,2.41,5.74,6.25,11.74,9.01,24.53,11.4,37.43,1.25,6.75,2.1,13.56,3.67,20.27,1.16,4.96,1.55,10.1,2.33,15.15.53,3.47.8,7.02,1.78,10.36,1.39,4.74,3.15,9.39,5.07,13.94,3.87,9.19,9.48,17.37,15.26,25.44,1.95,2.73,3.82,5.52,5.91,8.14,1.88,2.37,4,4.55,6.04,6.79,3.35,3.66,6.73,7.29,8.33,12.15.2.6.58,1.31.42,1.81-.28.85-.8,1.75-1.49,2.28-.27.2-1.4-.43-1.91-.93-.67-.66-1.09-1.57-1.67-2.33-1.64-2.17-3.22-4.39-4.98-6.45-4.26-4.97-8.69-9.79-12.91-14.8-5.27-6.25-9.65-13.13-13.57-20.29-4.08-7.45-7.17-15.34-9.77-23.41-.29-.91-.54-1.84-.68-2.79-1.01-6.63-1.85-13.28-3-19.88-2.09-11.96-4.18-23.92-6.63-35.81-1.22-5.93-2.83-11.85-5-17.49-2.16-5.62-4.44-11.29-8.52-15.98-3.04-3.49-5.88-7.14-8.71-10.81-2.44-3.16-4.8-6.39-7.05-9.68-4.6-6.73-9.04-13.57-13.68-20.27-5.46-7.88-11.05-15.67-16.61-23.47-.74-1.04-1.6-2-2.51-2.89-3.88-3.78-7.83-7.49-11.7-11.27-1.48-1.45-2.8-3.06-4.25-4.54-.76-.77-1.65-1.41-2.49-2.1l.09.11c-.2-1.9-1.55-3.02-2.8-4.24-1.46-1.43-2.86-2.92-4.18-4.47-1.33-1.56-2.43-3.33-3.83-4.83-4.3-4.61-7.83-9.99-13.27-13.47l.08.1c-.92-.62-1.77-1.44-2.78-1.83-2.82-1.09-5.76.72-5.83,3.71-.06,2.69.1,5.44.61,8.07,1.58,8.2,4.47,15.94,8.34,23.35,1.92,3.67,3.64,7.38,6.31,10.65,2.72,3.33,4.97,7.04,7.49,10.54,1.86,2.59,4.02,4.99,5.68,7.69,4.25,6.93,8.21,14.02,11.14,21.64,1.96,5.1,4.91,9.62,7.87,14.18,4.45,6.86,7.81,14.23,9.08,22.44.71,4.57,1.63,9.1,2.43,13.65.55,3.14,1.04,6.29,1.56,9.43.08.47.1.96.22,1.42,1.78,6.62,3.46,13.27,5.42,19.84.66,2.23.55,4.37.36,6.57-.02.22-.37.54-.61.59-.24.04-.65-.13-.78-.34-3.11-4.86-5.64-9.91-6.87-15.65-1.24-5.75-2.89-11.4-3.6-17.28-.52-4.25-1.79-8.41-2.7-12.62-.24-1.09-.49-2.2-.54-3.3-.25-5.42-2.19-10.23-4.97-14.81-2.9-4.78-5.69-9.62-8.47-14.46-.63-1.1-1.01-2.34-1.57-3.49-2.1-4.3-4.2-8.6-6.37-12.86-.26-.51-.89-.84-1.35-1.25,0-.82-.03-1.61-.97-1.96-.3-.93-.61-1.85-.91-2.78-.06-.14-.09-.3-.18-.43-.06-.09-.18-.13-.28-.19.18.18.36.35.54.53.31.93.61,1.86.92,2.79.32.66.64,1.31.96,1.97Zm-85.41,103.69c2.32.13,4.53-.82,6.78-1.67,12.41-4.68,24.82-9.33,37.24-13.99,2.84-1.06,5.69-2.09,8.53-3.15,3.59-1.34,7.16-2.7,10.75-4.04,1.95-.73,3.91-1.41,5.85-2.16,4.17-1.61,8.35-3.2,12.48-4.91,3.99-1.64,8.02-3.22,11.85-5.18,6.33-3.25,7.39-6.25,5.2-12.88-1.86-5.61-4.13-11.08-5.36-16.89-.39-1.86-1.22-3.63-1.84-5.44-1.45-4.23-2.91-8.45-4.34-12.69-.82-2.42-1.54-4.88-2.4-7.29-3.34-9.33-6.69-18.66-10.11-27.96-1.54-4.18-2.85-8.51-6.11-11.82-.33-.33-.48-.83-.75-1.22-4.32-6.21-7.38-13.06-10.25-20.02-3.38-8.19-5.75-16.56-5.73-25.52,0-1.55-.37-3.16-.87-4.63-1.17-3.47-2.65-6.85-3.77-10.34-1.95-6.08-3.69-12.22-6.18-18.14-3.47-8.25-6.44-16.71-10.1-24.87-3.93-8.76-7.57-17.62-10.92-26.61-1.17-3.14-2.52-6.23-3.96-9.25-1.32-2.76-2.95-3.44-5.84-2.72-.77.19-1.5.53-2.25.83-7.42,2.93-15.03,5.31-22.38,8.47-8.06,3.46-16.42,6.21-24.63,9.33-10.46,3.97-20.94,7.86-31.31,12.04-4.73,1.91-9.26,4.34-13.79,6.72-2.91,1.53-3.64,3.27-2.76,6.35,1.72,5.99,3.26,12.04,5.73,17.79,4.81,11.16,8.85,22.6,12.35,34.23,1.38,4.59,2.99,9.1,4.59,13.62,1.86,5.27,3.96,10.46,5.72,15.76,3.77,11.38,7.74,22.66,12.32,33.75,5.3,12.84,9.96,25.94,14.78,38.97,2.77,7.49,5.27,15.08,8.01,22.58,3.29,9,6.73,17.95,10.07,26.94,1.39,3.74,2.54,7.58,4.09,11.26,1.86,4.41,4.03,8.68,6.05,13.02.63,1.35,1.74,1.78,3.28,1.72Zm-66.4-153.62c.19-.08.38-.17.57-.25-.27-.87-.44-1.79-.83-2.61-3.48-7.41-5.76-15.21-7.99-23.06-1.22-4.29-2.65-8.54-4.27-12.7-1.16-2.99-4.05-4.24-7.02-3.48-1.84.47-3.05,1.51-3.41,3.54-.45,2.59-.26,5.1.44,7.59.39,1.38,1.06,2.69,1.36,4.09.34,1.54,1.12,2.56,2.51,3.27,3.96,2.03,6.83,5.23,9.2,8.9,2.68,4.16,5.25,8.4,7.89,12.59.47.74,1.03,1.42,1.55,2.13Z"/>
  <path class="cls-1" d="m294.56,389.05c.46-.89.71-1.59,1.14-2.17,7.42-10.05,13.61-20.87,19.5-31.86,4.33-8.08,9.39-15.56,15.84-22.14,3.11-3.18,5.81-6.81,8.42-10.42,3.94-5.45,8.1-10.76,12.9-15.43,8.63-8.43,16.19-17.66,22.66-27.81,4.43-6.94,9.82-12.99,16.5-17.84,5.75-4.17,10.33-9.49,14.95-14.8,4.3-4.93,8.54-10,14.54-13.04,2.28-1.15,4.6-2.24,6.98-3.16,4.21-1.62,8.13-3.69,11.72-6.43,2.54-1.94,5.15-3.79,7.67-5.76,2.96-2.31,6.21-3.91,9.95-4.42,4.4-.6,8.21-2.49,11.68-5.2,2.01-1.57,4.08-3.08,6.21-4.48,2.51-1.65,5.42-2.38,8.26-1.51,4.96,1.51,9.1-.22,13.2-2.58,1.52-.88,2.99-1.84,4.49-2.76,2.28-1.41,4.76-2.02,7.34-1.17,3.17,1.04,6,.15,8.79-1.15,2.02-.95,3.93-2.15,5.97-3.05,2.18-.96,4.41-1.99,6.72-2.47,3.74-.78,7.57-1.16,11.37-1.67.23-.03.5.26.92.5-.42.29-.74.66-1.12.75-2.48.6-4.96,1.27-7.48,1.67-4.65.73-8.98,2.28-12.97,4.72-3.97,2.43-8.07,3.73-12.76,2.6-2.28-.55-4.42.08-6.42,1.29-2.05,1.24-4.13,2.43-6.22,3.6-3.31,1.86-6.77,2.68-10.59,1.81-3.95-.9-7.59-.07-10.79,2.52-1.61,1.31-3.3,2.52-4.95,3.79-2.83,2.17-5.92,3.8-9.49,4.3-5.23.73-9.61,3.06-13.63,6.48-5.62,4.79-11.88,8.61-18.88,11.17-5.96,2.18-10.97,5.79-15.2,10.55-3.82,4.3-7.7,8.55-11.66,12.72-1.86,1.97-3.79,3.95-5.99,5.5-7.71,5.44-13.77,12.38-18.84,20.23-5.31,8.23-11.36,15.84-18.32,22.71-5.02,4.96-9.53,10.34-13.8,15.93-5.05,6.6-10.03,13.24-15.75,19.3-4.76,5.05-7.99,11.15-11.47,17.07-4.85,8.26-9.56,16.61-14.52,24.81-1.55,2.57-3.72,4.76-5.63,7.11-.13.16-.52.1-1.21.21Z"/>
  <path class="cls-1" d="m354.5,447.94c.68-1.26,1.31-2.54,2.04-3.77,3.77-6.31,7.51-12.64,11.36-18.9,2.51-4.08,5.04-8.16,7.8-12.08,5.71-8.1,11.54-16.12,17.42-24.1,1.7-2.3,3.49-4.62,5.61-6.51,4.69-4.16,8.84-8.8,12.83-13.59,3.5-4.21,7.3-8.07,11.95-10.99,4.79-3.01,8.69-7.01,12.67-10.96,2.38-2.36,4.84-4.65,7.36-6.86,3.33-2.92,7.3-4.54,11.63-5.32,1.26-.23,2.51-.56,3.78-.67,5.67-.46,10.45-2.91,14.57-6.63,3.65-3.29,7.92-5.43,12.48-6.94,4.3-1.42,8.26-3.38,12-5.88,2.12-1.42,4.28-2.84,6.58-3.91,1.85-.86,3.92-1.63,5.92-1.71,4.91-.18,9.5-1.45,13.86-3.49,5.71-2.67,11.59-4.33,17.9-4.93,4.11-.39,8.13-1.66,12.19-2.57,4.71-1.07,9.4-1.45,14.25-.83,7.13.91,14.31,1.36,21.46,2.08,3.3.34,6.58.87,9.9,1.81-.79.1-1.59.33-2.37.28-10.52-.79-21.07-1.14-31.54-2.58-4.35-.6-8.61.28-12.79,1.4-4.17,1.12-8.33,2.28-12.68,2.48-5.04.23-9.76,1.7-14.25,3.85-5.26,2.52-10.75,3.98-16.54,4.58-1.86.19-3.66,1.02-5.46,1.64-.75.26-1.46.68-2.11,1.14-6.04,4.27-12.56,7.52-19.55,10.03-3.07,1.1-5.91,3.21-8.47,5.33-4.46,3.69-9.41,5.96-15.11,6.73-1.58.21-3.14.63-4.72.86-3.58.52-6.77,1.99-9.5,4.28-2.69,2.26-5.27,4.67-7.72,7.18-4.26,4.36-8.78,8.39-13.82,11.84-3.58,2.45-6.68,5.45-9.49,8.76-4.55,5.37-9.09,10.74-14.45,15.36-1.79,1.55-3.23,3.54-4.66,5.46-6.08,8.23-12.18,16.45-18.09,24.8-2.95,4.17-5.6,8.56-8.2,12.96-4.22,7.15-8.22,14.43-13.4,20.97-.22-.2-.43-.4-.65-.6Z"/>
  <path class="cls-1" d="m487.48,255.77c2.98-2.67,6.6-4.04,10.22-5.13,6.17-1.86,12.56-2.72,18.9-.93,7.84,2.22,15.4,1.66,23-1.08,4.83-1.74,9.89-2.46,15.08-2.23,5.43.25,10.86.24,16.3.42,5.92.2,11.81-.08,17.7-.82,4.44-.56,8.91-.54,13.37.15,7.26,1.12,14.54,2.12,21.82,3.09,4.58.61,9.18,1.16,13.78,1.6,3.58.35,6.85,1.53,9.91,3.33,4.71,2.77,9.78,4.6,14.96,6.3,4.54,1.49,8.89,3.56,13.31,5.42,4.71,1.98,9.37,4.08,14.11,5.99,3.72,1.5,7.29,3.25,10.66,5.42,2.95,1.91,5.99,3.69,8.92,5.63,2.26,1.5,4.57,2.99,6.56,4.8,3.44,3.14,7.03,6.03,11.12,8.28.97.54,1.85,1.24,2.73,1.92.14.11.05.53,0,.8-.01.07-.27.18-.39.15-.77-.2-1.58-.33-2.29-.67-3.9-1.88-7.62-3.99-10.74-7.1-3.77-3.74-8.29-6.5-12.8-9.23-1.91-1.16-3.77-2.42-5.73-3.48-2.66-1.44-5.35-2.84-8.12-4.07-4.81-2.15-9.67-4.19-14.53-6.21-5.16-2.14-10.32-4.29-15.54-6.27-4.34-1.64-8.67-3.25-12.7-5.59-3.5-2.03-7.29-3.16-11.31-3.69-11.4-1.51-22.76-3.27-34.18-4.59-4.41-.51-8.99-.55-13.39,0-6.71.84-13.38.84-20.09.63-3.99-.12-7.98-.18-11.96-.48-5.68-.42-11.12.68-16.52,2.25-.77.22-1.54.43-2.29.69-6.36,2.23-12.8,2.44-19.35.87-2.47-.59-5-1.07-7.53-1.29-5.86-.5-11.4.95-16.82,3.07-2.02.79-3.9,2.03-6.19,2.04Z"/>
  <path class="cls-1" d="m719.58,656.52c-.02,1.98-1.04,3.24-2.77,4.1-1.57.78-3.06.74-4.59-.03-.71-.36-1.45-.66-2.14-1.06-8.12-4.68-14.17-11.26-18.05-19.8-.87-1.91-1.31-3.92-1.24-6.04.04-1.32.21-2.56,1.25-3.48,1.09-.96,2.36-.77,3.64-.49,0,0-.08-.1-.08-.1-.6,4.14.64,7.77,2.71,11.33,2.95,5.08,7.03,8.98,11.83,12.21,2.36,1.59,4.68,3.31,7.85,2.69.49-.1,1.13.51,1.69.79l-.09-.11Z"/>
  <path class="cls-1" d="m603.67,410.58c-3.05-.01-5.95-1.33-8.55-3.21-2.3-1.66-3.14-4.99-2.1-7.75.22-.6,1.09-1.28,1.7-1.32.61-.04,1.36.58,1.9,1.07.3.27.32.87.43,1.33.22.9.12,2.22.69,2.64,1.09.81,2.54,1.5,3.88,1.56,7.04.31,13.67-.81,18.83-6.26.33-.35.68-.68,1.06-.96.82-.58,1.74-.85,2.68-.33,1,.55,1,1.49.81,2.49-.68,3.67-3.39,5.69-6.32,7.3-3.07,1.7-6.39,2.82-9.99,2.93-1.58.05-3.16.32-5.01.52Z"/>
  <path class="cls-1" d="m593.16,493.62c-1.63,1.68-3.46,2.25-5.19,2.84-6.65,2.28-13.22,4.72-19.44,8.03-1.26.67-2.59,1.32-3.96,1.7-7,1.93-12.38,6.42-17.79,10.93-7.74,6.45-14.75,13.65-21.94,20.68-2.51,2.45-5.16,4.77-7.78,7.1-.54.48-1.26.77-2.39,1.43.44-2.28,1.54-3.37,2.71-4.39,1.8-1.58,3.68-3.07,5.44-4.69,2.58-2.37,5.27-4.67,7.59-7.28,6.61-7.44,14.33-13.64,22-19.89,2.72-2.22,5.86-3.81,9.24-4.95,3.02-1.02,6.05-2.14,8.85-3.63,5.11-2.73,10.6-4.41,16.03-6.26,1.65-.56,3.29-1.19,4.95-1.72.38-.12.86.04,1.7.11Z"/>
  <path class="cls-1" d="m695.58,806.44c-.24,5.8.27,11.47,2.14,16.99.36,1.05.6,2.16.76,3.26.09.6,0,1.27-.21,1.84-.15.4-.58.86-.97.96-.35.09-.99-.16-1.2-.47-.72-1.04-1.47-2.11-1.9-3.29-.82-2.24-1.63-4.51-2.07-6.85-1-5.33-1.89-10.69-.63-16.12.18-.77.31-1.56.63-2.27.47-1.05,1.68-1.45,2.86-1.04,1.06.37,1.39,1.13,1.2,2.25-.26,1.57-.41,3.15-.61,4.73Z"/>
  <path class="cls-1" d="m637.67,509.94c-2.31-.27-4.64-.84-6.93-.73-2.36.12-4.67,1.01-7.03,1.38-2.83.45-5.68.87-8.54,1.02-4.93.26-9.31,2-13.41,4.59-3.37,2.13-6.7,4.31-10.11,6.37-1.49.9-3.1,1.59-4.68,2.32-.18.08-.54-.2-.82-.31.12-.27.23-.54.38-.8.08-.13.22-.23.36-.31,5.31-3.21,10.62-6.42,15.95-9.61,3.32-1.98,6.86-3.19,10.77-3.64,4.89-.56,9.8-.9,14.6-2.3,3.24-.94,6.6-.59,9.47,2Z"/>
  <path class="cls-1" d="m578.89,374.52c-.66.55-1.15,1.27-1.75,1.4-1.11.23-2.29-.11-2.96-1.09-.97-1.42-1.88-2.91-2.59-4.48-.59-1.3.12-2.39,1.57-2.93,1.3-.49,2.18-.25,2.78.93,1,1.96,1.9,3.96,2.95,6.17Z"/>
  <path class="cls-1" d="m640.62,355.54c.64.17,1.03.15,1.22.34,1.49,1.41,3,2.83,3.58,4.89.25.88-.25,1.55-1.06,1.84-1.28.46-2.59.26-3.56-.63-.91-.83-1.7-1.87-2.27-2.95-.3-.58-.31-1.66.05-2.15.5-.67,1.47-.99,2.03-1.34Z"/>
  <path class="cls-1" d="m563.38,684.65c.1-.57.09-.9.21-1.18.86-1.9,2.49-2.84,4.4-3.38,1.13-.32,2.22.81,2,2-.44,2.34-3.09,4.18-5.35,3.6-.52-.13-.91-.74-1.26-1.05Z"/>
  <path class="cls-1" d="m343.02,463.35c1.82-3.12,9.34-13.22,11.49-15.42.22.2.43.4.65.6-3.23,5.58-7.05,10.71-11.65,15.25-.16-.14-.32-.29-.48-.44Z"/>
  <path class="cls-1" d="m661.42,378.38c-.48.5-.81,1.11-1.31,1.3-.51.2-1.39.22-1.74-.09-.8-.7-1.49-1.59-2-2.52-.65-1.2-.03-2.45,1.3-3.04,1.11-.49,2.01-.13,2.6,1.18.44.98.74,2.02,1.15,3.17Z"/>
  <path class="cls-1" d="m343.5,463.79c-.3.23-.59.47-.89.7.13-.38.27-.76.4-1.13.16.14.32.29.48.43Z"/>
  <path class="cls-1" d="m660.4,391.64c.21.09.78.17,1.01.49.63.9,1.2,1.86,1.64,2.86.36.82-.05,1.57-.75,2.06-.85.6-1.84.75-2.62,0-.68-.64-1.22-1.46-1.68-2.28-.88-1.57.25-3.19,2.39-3.14Z"/>
  <path class="cls-1" d="m723.27,763.07c-.01,3.17-1.18,5.39-3.4,6.95-1.83,1.28-3.71,2.61-5.76,3.41-10.7,4.18-21.13,9.02-32.03,12.72-6.65,2.25-13.18,4.86-19.76,7.31-1.34.5-2.67,1.07-4.03,1.52-6.22,2.03-12.45,4.04-18.69,6.02-1.05.33-2.14.65-3.23.71-1.31.07-2.54-.99-2.88-2.14-.26-.89.31-2.1,1.56-2.68,1.88-.86,3.81-1.64,5.78-2.27,5.32-1.71,10.89-2.83,15.95-5.09,5.86-2.62,12.15-3.94,17.92-6.7,1.43-.68,3.04-.99,4.54-1.51,2.86-1,5.89-1.72,8.53-3.13,5.55-2.96,11.5-4.75,17.37-6.83,2.26-.8,4.56-1.57,6.66-2.7,6.77-3.64,6.78-6,5.27-12.02-.39-1.54-1.07-3.01-1.65-4.5-5.14-13.26-10.37-26.49-15.41-39.79-2.21-5.82-3.97-11.81-6.05-17.68-3.83-10.85-8.27-21.46-12.44-32.18-2.43-6.25-4.57-12.61-6.85-18.92-.54-1.5-1.15-2.98-1.73-4.46-.93-2.38-1.88-4.75-2.77-7.14-1.57-4.19-3.09-8.39-4.65-12.58-.17-.45-.41-.87-.57-1.32-5.26-15.41-10.43-30.86-15.82-46.23-2.43-6.92-4.65-13.95-8.09-20.48-.66-1.25-.98-2.7-1.28-4.09-.21-.97.05-1.91,1.17-2.33,1.21-.46,2.47-.17,2.9.87,2.8,6.79,6.33,13.28,8.48,20.34.56,1.83,1.2,3.64,1.83,5.45,2.76,7.83,5.48,15.68,8.3,23.49,3.37,9.31,6.86,18.58,10.24,27.88,3.92,10.81,7.71,21.66,11.69,32.44,1.99,5.39,4.33,10.65,6.47,15.99,1.13,2.81,2.23,5.64,3.25,8.5,3.7,10.38,7.22,20.83,11.06,31.16,4.57,12.28,9.52,24.42,14.06,36.7,1.6,4.32,2.52,8.9,3.71,13.37.2.77.25,1.57.3,1.97Z"/>
</svg>