<?xml version="1.0" encoding="UTF-8"?>
<svg id="Livello_1" data-name="Livello 1" xmlns="http://www.w3.org/2000/svg" viewBox="0 0 1133.86 1133.86">
  <defs>
    <style>
      .cls-1 {
        stroke-width: 0px;
      }
    </style>
  </defs>
  <path class="cls-1" d="m758.94,484.95c-1.23,4.37-.01,8.16,1.18,11.93.48,1.52,1.13,2.99,1.66,4.49,1.4,3.94,2.23,8.01,2.49,12.17.34,5.44,2.99,10.07,5.06,14.9.41.96,1.38,1.73,2.23,2.43,2.21,1.84,4.48,3.61,6.76,5.38,5.2,4.04,9.75,8.74,14.03,13.73,2.91,3.4,5.73,6.92,8.97,9.98,3,2.84,6.36,5.37,9.83,7.63,6.59,4.27,13.01,8.73,18.84,14,.59.54,1.17,1.09,1.82,1.56,5.21,3.7,10.26,7.61,15.17,11.71,3.42,2.85,7.28,5.18,11.02,7.64,4.16,2.73,7.92,5.92,11.44,9.41,1.01,1.01,2.11,1.99,3.34,2.71,2.95,1.73,5.32,4.05,7.54,6.6,3.15,3.61,6.19,7.36,9.63,10.67,4.02,3.87,8.38,7.39,12.7,10.94,5.7,4.69,12.13,8.27,18.57,11.82,2.94,1.62,5.8,3.38,8.67,5.12,6.71,4.06,13.62,7.74,20.86,10.79,5.59,2.36,11.19,4.73,16.68,7.32,2.73,1.29,5.36,2.9,7.77,4.72,4.73,3.56,9.55,6.95,14.56,10.12,6.89,4.35,13.69,8.86,20.48,13.36,1.78,1.18,3.42,2.18,5.76,1.57,1.15-.3,2.59-.02,3.75.4,2.16.77,4.34,1.08,6.59.94,1.37-.09,2.43.35,3.42,1.34,3.27,3.26,6.5,6.59,10,9.61,1.76,1.52,3,3.27,4.05,5.22,1.18,2.19.49,3.75-1.9,4.24-2.31.47-4.45-.13-6.4-1.37-1.62-1.03-3.2-2.12-4.79-3.18-.8-.53-1.53-1.22-2.39-1.57-4.06-1.65-7.16-4.73-10.76-7.07-1.33-.86-2.64-1.76-3.93-2.69-.77-.55-1.59-1.1-2.17-1.83-1.82-2.29-4.22-3.89-6.61-5.43-5.5-3.55-11.17-6.83-16.65-10.39-4.68-3.04-9.19-6.36-13.81-9.51-4.1-2.79-8.32-5.34-13.18-6.69-1.5-.41-2.83-1.44-4.28-2.08-6.72-2.96-13.46-5.88-20.18-8.84-1.17-.51-2.31-1.11-3.41-1.76-5.21-3.09-10.3-6.43-15.64-9.28-5.95-3.18-11.51-6.91-16.77-11.09-3.25-2.58-6.52-5.17-9.47-8.07-4.79-4.7-9.32-9.66-13.97-14.49-.77-.8-1.61-1.55-2.46-2.26-3.3-2.76-6.76-5.36-9.91-8.27-4.03-3.72-8.85-6.29-13.15-9.6-2.4-1.85-4.84-3.65-7.24-5.51-4.54-3.53-9.07-7.08-13.6-10.62-.88-.69-1.76-1.37-2.61-2.1-5.1-4.38-10.54-8.3-16.19-11.95-6.74-4.36-12.85-9.42-17.96-15.71-3.72-4.57-7.88-8.8-11.98-13.04-2.66-2.75-5.89-4.82-8.9-7.14-.89,1.04-.37,1.76-.05,2.42,1.05,2.15,2.03,4.35,3.28,6.39,3.68,5.99,7.58,11.85,11.21,17.88,2.24,3.72,5.01,7.01,7.71,10.37,1.8,2.24,3.47,4.58,5.2,6.87,5.58,7.4,11.15,14.77,18.48,20.65,5.66,4.54,10.25,10.04,13.48,16.64,1.54,3.14,3.56,6.05,5.33,9.08,2.01,3.45,3.94,6.94,5.98,10.37,4.92,8.26,10.85,15.79,17.06,23.1,2.07,2.44,4.23,4.8,6.21,7.31,1.72,2.18,3.74,3.96,6.17,5.24,4.15,2.2,7.6,5.24,10.93,8.51,3.88,3.8,8.03,7.32,11.96,11.07,3.93,3.75,7.72,7.64,11.57,11.47.57.56,1.08,1.19,1.66,1.73,4.13,3.82,7.74,8.05,10.71,12.85.92,1.48,2.15,2.77,3.25,4.14,1.62,2.03,3.34,3.9,6.27,3.78.3-.01.62.15.9.31,6.17,3.35,12.36,6.68,16.78,12.39,1.09,1.41,1.93,2.98,1.92,4.81,0,.49-.48,1.21-.92,1.42-1.34.64-2.8.82-4.13-.04-2.7-1.75-5.67-2.88-8.63-4.11-3.08-1.28-5.99-3.03-8.8-4.84-1.12-.72-1.91-2.09-2.61-3.3-.87-1.52-1.5-3.18-2.18-4.8-.63-1.48-1.49-2.76-2.56-3.99-1.46-1.68-2.74-3.54-3.93-5.43-1.98-3.13-4.32-5.91-6.93-8.53-5.76-5.77-11.52-11.52-17.84-16.69-2.09-1.71-4.06-3.61-5.88-5.62-3.79-4.2-8.39-7.41-12.91-10.69-3.28-2.38-5.95-5.34-8.66-8.26-2.38-2.57-4.55-5.34-6.82-8.01-5.78-6.81-11.69-13.59-16-21.4-4.48-8.12-10.18-15.5-14.06-23.97-2.13-4.64-6.11-7.8-9.8-11.05-4.82-4.25-8.94-9.11-13.22-13.84-4.31-4.76-7.59-10.27-11.48-15.33-.78-1.01-1.6-1.98-2.6-3.21-.73.69-1.32,1.39-2.04,1.89-2.02,1.39-4.06,1.17-5.52-.71-2.84-3.65-4.07-7.91-4.4-12.46-.04-.57.17-1.41.57-1.73,1.78-1.37,1.16-2.69.15-4.11-1.57-2.21-3.11-4.44-4.65-6.67-2.84-4.12-4.74-8.72-6.4-13.38-1-2.81-2.35-5.01-4.76-6.89-5.31-4.16-9.77-9.2-13.55-14.8-3.47-5.14-8.31-8.8-13.18-12.45-2.42-1.82-4.98-3.53-7.11-5.65-5.77-5.76-11.79-11.26-17.76-16.82-3.5-3.26-6.69-6.86-9.9-10.42-3.3-3.67-7.16-6.37-11.97-7.55-4.04-.99-7.95-2.3-11.84-3.79-2.78-1.07-5.86-1.47-8.84-1.91-6-.87-12.03-1.51-18.04-2.34-1.89-.26-3.77-.71-5.62-1.22-1.93-.54-3.7-.35-5.62.22-7.43,2.21-14.15,5.84-20.68,9.91-4.51,2.81-9.38,4.81-14.48,6.27-4.9,1.41-9.82,2.78-14.68,4.33-3.29,1.04-6.67,1.36-9.96.82-2.57-.42-5.03-.3-7.56-.2-4.19.17-8.28-.63-12.31-1.67-4.51-1.17-9.12-1.57-13.73-1.97-2.78-.24-4.9.65-6.71,2.82-2.87,3.43-5.88,6.72-9.52,9.43-7.06,5.24-14.09,10.53-20.94,16.02-5.65,4.52-11.82,8.15-18.1,11.67-5.57,3.12-10.96,6.55-16.07,10.42-2.79,2.11-5.84,3.95-8.96,5.53-5.86,2.97-11.51,6.28-16.93,9.98-1.06.72-2.13,1.44-3.28,1.99-1.55.74-2.48,1.82-2.99,3.48-.95,3.05-3.07,5.15-5.85,6.69-2.23,1.23-4.4,2.6-6.54,3.98-1.49.96-2.71.59-3.86-.55-.23-.23-.48-.42-.7-.65-.86-.92-1.63-2.49-2.59-2.62-1.47-.19-3.08.56-4.6,1.03-5.64,1.76-11.24,3.66-16.92,5.31-3.52,1.02-7.17,1.57-10.71,2.54-4.61,1.27-9.2,2.67-13.75,4.15-3.64,1.19-7.22,2.56-10.81,3.9-2.24.84-4.44,1.78-6.66,2.7-.59.24-1.13.65-1.73.81-5.58,1.48-10.81,3.89-16.19,5.91-3.91,1.47-7.76,3-11.38,5.01-3.39,1.89-6.93,3.26-10.68,4.18-2.67.65-5.14,1.69-7.44,3.21-5.24,3.46-10.87,5.98-16.93,7.74-10.15,2.95-19.95,6.92-29.32,11.82-8.66,4.53-17.75,8.07-26.69,11.97-3.66,1.59-7.26,3.32-10.88,5.01-8.11,3.79-15.98,8.13-24.56,10.82-7.32,2.29-14.66,4.53-22.05,6.57-5.39,1.49-10.89,2.6-16.32,3.92-2.16.53-4.19,1.24-6.07,2.64-4.77,3.56-10.47,4.55-16.24,5.13-.92.09-2,.04-2.81-.35-2.29-1.1-4.48-2.29-6.98-3.02-2.07-.61-3.02-2.8-3.24-4.96-.06-.63.55-1.5,1.09-2,2.26-2.06,5.17-2.61,8.03-2.64,5.26-.06,10.52.27,15.78.35,1.25.02,2.54-.2,3.77-.51,8.38-2.07,16.73-4.24,25.11-6.29,10.73-2.62,21.15-6.16,31.2-10.75,5.52-2.52,10.88-5.4,16.4-7.94,4.49-2.06,9.13-3.8,13.67-5.77,4.54-1.97,9.09-3.95,13.55-6.12,11.8-5.74,23.63-11.35,36.39-14.71,5.17-1.36,9.72-4.11,14.15-6.96,2.62-1.68,5.37-2.88,8.35-3.47,3.02-.6,5.84-1.65,8.5-3.15,7.84-4.41,16.35-7.24,24.76-10.26.9-.32,1.88-.49,2.72-.93,5.56-2.89,11.63-4.42,17.43-6.7,6.71-2.63,13.65-4.52,20.66-6.09,6.56-1.47,12.9-3.66,19.33-5.57,9.67-2.87,19.02-6.57,28.07-10.97,4.44-2.16,8.71-4.77,12.79-7.56,3.32-2.27,6.87-4.04,10.37-5.96,3.5-1.92,7-3.9,10.18-6.29,5.01-3.75,10.4-6.86,15.82-9.93,5.29-2.99,10.34-6.25,15.26-9.84,7.62-5.55,14.67-11.82,22.5-17.09,1.18-.8,2.2-1.85,3.25-2.82.19-.17.28-.59.21-.85-.06-.22-.41-.53-.62-.53-3.67.06-7.38-.14-10.99.32-7.76,1-15.48,2.28-23.2,3.59-8.37,1.42-15.74,5.26-22.55,10.12-3.17,2.26-6.47,4.14-10.19,5.11-4.6,1.2-8.49,3.65-12.21,6.42-9.1,6.78-18.22,13.53-27.23,20.43-8.64,6.61-18.3,11.02-28.7,13.99-8.3,2.36-16.6,4.71-24.84,7.26-3.35,1.04-6.59,2.47-9.78,3.95-5.66,2.62-11.39,4.88-17.55,6.22-4.96,1.08-9.66,3.22-14.16,5.72-7.95,4.44-15.91,8.88-24,13.05-5.71,2.94-11.93,4.45-18.25,5.57-4.55.81-9.2,1.18-13.57,2.88-2.73,1.06-5.62,1.13-8.52,1.06-2.55-.06-5.1-.09-7.64-.01-1.25.04-2.18-.32-2.85-1.35-1.66-2.53-2.26-4.95-.91-8.05,3.04-6.95,8.12-11.89,14.6-15.31,4.85-2.56,9.4-5.38,13.49-9.03,1.9-1.69,4.1-3.05,6.17-4.54.65-.47,1.37-.84,2.01-1.31,5.53-4.11,11.29-7.68,18.12-9.39,5.56-1.39,8.89-5.39,10.67-10.74.66-1.97,1.41-3.91,2.03-5.89.54-1.72,2.43-3,1.7-5.14-1.98-.11-3.68.89-5.36,1.61-3.37,1.45-6.56,3.3-9.81,5-2.54,1.34-5,2.87-7.62,4.03-4.38,1.95-8.91,3.53-13.27,5.53-2.89,1.33-5.63,3.02-8.34,4.7-3.67,2.28-7.49,4.2-11.36,6.13-6.55,3.26-13.28,6.36-18.88,11.27-2.67,2.34-5.64,4.12-8.9,5.53-1.89.82-3.77,1.82-5.39,3.07-7.01,5.42-14.73,9.52-22.83,13.06-7.61,3.33-15.2,6.78-22.48,10.76-10.58,5.79-21.67,10.19-33.13,13.83-6.54,2.08-13.03,4.35-19.49,6.68-4.2,1.51-8.29,3.3-12.45,4.92-.73.28-1.55.3-2.32.49-1.53.39-3.12.67-4.57,1.26-2.13.86-4.25,1.22-6.54.86-1.57-.25-3.19-.17-4.78-.34-3.96-.44-6.41-2.45-7.3-5.89-.34-1.29.03-2.17,1.35-2.65,4.54-1.66,9.25-2.41,14.09-2.37.47,0,1.01.08,1.39.32,2.72,1.74,5.6,1.17,8.35.39,4.3-1.21,8.55-2.64,12.78-4.09,7.71-2.63,15.4-5.34,23.1-8.03,6.48-2.27,13.05-4.35,19.21-7.43,4-2,7.88-4.24,11.91-6.19,7.62-3.69,15.27-7.35,22.99-10.81,5.42-2.43,10.62-5.19,15.34-8.81,3.69-2.83,7.57-5.3,11.91-7.1,2.02-.84,3.76-2.36,5.59-3.62,3.16-2.16,6.19-4.53,9.47-6.5,5.33-3.21,10.44-6.81,16.35-8.98,1.33-.49,2.58-1.3,3.74-2.13,5.91-4.25,12.58-6.91,19.3-9.5,4.33-1.67,8.6-3.51,12.53-5.98,4.64-2.92,9.45-5.4,14.8-6.67,3.33-.79,5.06-2.44,5.49-6.09.69-5.86,2.07-11.63,3-17.47.25-1.54.13-3.2-.14-4.75-1-5.85-1.45-6.32-7.01-8.42-1.5-.56-2.99-1.12-4.49-1.7-2.14-.83-4.35-1.06-6.61-.78-3.17.38-6.32.76-9.43,1.62-3.67,1.02-7.46,1.62-11.19,2.45-3.11.7-6.19,1.6-9.32,2.21-4.71.92-9.44,1.7-14.17,2.45-1.41.22-2.87.28-4.3.21-10.12-.52-20.09.77-30.05,2.32-3.62.56-7.26,1.17-10.91,1.39-6.3.38-12.3,1.98-18.18,4.05-6.19,2.17-12.47,3.91-18.92,5.06-4.39.79-8.74,1.8-13.11,2.68-4.76.95-9.16,2.81-13.29,5.31-7.32,4.43-15.09,7.73-23.51,9.28-4.38.81-8.86,1.1-13.29,1.66-3.64.46-7.3.84-10.9,1.53-1.84.36-3.59,1.27-5.34,2.03-1.46.64-2.88,1.39-4.27,2.16-1.61.89-3.21,1.23-5.04.61-1.8-.61-3.73-.81-5.52-1.43-3.69-1.28-4.61-4.56-5.33-7.89-.07-.32.34-1,.67-1.11,1.05-.36,2.15-.65,3.25-.77,4.6-.49,9.2-.97,13.81-1.32,2.35-.18,4.79-.6,6.86,1.23.39.35,1.22.45,1.78.33,6.27-1.34,12.69-1.39,19.02-2.15,7.02-.85,13.78-2.68,20.27-5.5.73-.32,1.46-.66,2.13-1.08,9.62-6.04,20.07-9.6,31.33-11.22,7.56-1.09,14.93-3.28,22.1-6.04,4.95-1.91,10.17-2.68,15.41-3.33,3.48-.43,6.95-1.02,10.43-1.46,6.34-.79,12.7-1.43,19.03-2.3,3-.41,5.95-1.16,8.9-1.86.52-.12,1.14-.67,1.34-1.17.7-1.72,2.07-2.52,3.72-2.62,4.58-.3,9.15-1.31,13.78-.49,1.29.23,2.55.46,3.36,1.59.78,1.09,1.82,1.23,2.96.89,6.43-1.91,13.15-2.55,19.56-4.63,5.75-1.86,11.62-1.88,17.36.55,2.2.93,4.53,1.54,6.81,2.3,1.45.49,2.51,1.38,2.95,2.89.62,2.14,1.54,4.25,1.79,6.43.59,5.08.88,10.18-.53,15.23-.86,3.07-1.42,6.23-2.01,9.37-.16.87.04,1.81.1,3.2,2.08-.99,3.8-1.78,5.5-2.62,4.15-2.06,8.24-4.24,12.45-6.19,5.81-2.69,11.29-5.93,16.74-9.29,4.48-2.76,9.28-5,13.99-7.38,2.27-1.15,4.72-1.96,6.97-3.16,7.11-3.81,14.65-6.27,22.6-7.6,6.15-1.03,12.23-2.37,18.13-4.41,8.53-2.95,17.39-4,26.28-5.04,15.39-1.81,30.79-3.54,45.81-7.61,3.23-.88,6.52-1.31,9.93-1.32,5.28-.02,10.46-1.24,15.6-2.32,6.28-1.32,12.65-1.8,18.99-2.61,9.02-1.16,18.02-2.44,27.04-3.61,3.32-.43,6.66-.89,10-1.01,2.58-.09,4.66-.94,6.43-2.71,5.67-5.67,12.11-10.41,18.58-15.06,3.08-2.21,6.67-3.81,10.22-5.23,9.2-3.69,18.24-7.72,27.07-12.24,4.73-2.42,9.85-3.62,15.15-4.23,3.79-.44,7.56-1.14,11.31-1.88,6.11-1.21,12.21-2.44,18.27-3.87,3.35-.79,6.66-.62,10-.39,1.75.12,3.5.31,5.25.34,6.7.15,13.4.14,20.1.4,3.34.13,6.69.56,9.98,1.16,11.33,2.07,22.4,5.13,33.15,9.27,7.79,3,15.8,5.16,23.96,6.76,7.57,1.49,14.81,3.8,21.7,7.35,4.11,2.12,8.49,3.71,12.72,5.61,8.75,3.93,17.45,7.97,26.22,11.84,7.31,3.22,14.61,6.53,22.1,9.29,5.53,2.04,11.31,3.49,17.07,4.78,5.17,1.16,10.15,2.86,15.15,4.51,8.96,2.96,17.86,6.08,26.74,9.23,2.4.85,4.86,1.78,6.95,3.2,4.41,2.99,9.35,4.88,14,7.33,6.36,3.35,12.73,6.69,19.07,10.08,7.33,3.91,14.49,8.17,22.41,10.87,4.89,1.66,9.32,4.22,13.54,7.14,1.42.99,2.69,2.27,3.82,3.59,1.55,1.82,2.9,3.81,4.34,5.72,2.1,2.78,3.89,5.82,7.3,7.4,1.23.57,2.15,1.89,3.14,2.93.96,1.01,2.05,1.43,3.45,1.2,1.1-.18,2.26-.1,3.32-.39,2.92-.81,5.37.4,7.73,1.75.9.52,1.61,1.56,2.12,2.51.67,1.26,1.14,2.64,1.52,4.02.6,2.17-.4,3.75-2.64,4.29-2.26.54-4.66.22-6.53-.76-2.49-1.3-5.14-2.53-7.13-4.75-2.34-2.61-4.91-4.95-8.08-6.7-1.71-.95-2.92-2.88-4.22-4.49-2.61-3.22-5.06-6.58-7.7-9.78-2.07-2.51-4.84-4.16-7.79-5.46-3.95-1.74-7.95-3.37-11.88-5.15-3.34-1.52-6.74-2.97-9.9-4.82-11.05-6.48-22.45-12.25-34.12-17.53-1.89-.85-3.81-1.73-5.5-2.91-2.94-2.04-6.22-3.18-9.55-4.35-7.83-2.75-15.84-4.99-23.45-8.41-3.32-1.49-6.98-2.25-10.5-3.27-6.59-1.92-13.2-3.78-19.78-5.71-1.68-.49-3.37-1.01-4.98-1.7-12.66-5.36-25.31-10.73-37.72-16.65-4.9-2.34-9.98-4.28-14.95-6.49-4.09-1.82-8.08-3.86-12.19-5.61-2.49-1.06-5.08-1.96-7.71-2.59-6.52-1.57-13.14-2.76-19.62-4.46-4.31-1.13-8.47-2.85-12.68-4.38-10.83-3.93-21.72-7.64-33.16-9.39-3.94-.6-7.87-1.48-11.9-1.13-.28.02-.75.22-.76.36-.04.42-.04,1.02.21,1.27,2.71,2.71,5.26,5.54,7.67,8.54,1.46,1.81,3.69,3.02,5.61,4.44,1.66,1.23,3.48,2.26,5.04,3.6,3.14,2.71,6.25,5.48,9.18,8.41,1.44,1.45,2.68,3.21,3.61,5.03,1.89,3.69,3.5,7.53,5.23,11.29,3.3,7.16,4.45,14.59,3.06,22.4-.25,1.41-.32,2.86-.3,4.3.06,4.48.26,8.95.28,13.43,0,1.82.68,2.9,2.31,3.77,6.34,3.37,12.6,6.9,18.92,10.31,3.58,1.93,6.33,4.89,9.22,7.61,5.16,4.86,11.16,8.53,16.8,12.71,4,2.96,8.21,5.51,12.66,7.74,5.46,2.74,11.17,4.74,16.95,6.61,7.44,2.4,14.91,4.72,22.35,7.13,1.03.33,2.14.84,2.87,1.6,3.88,4.06,6.31,8.8,6.18,14.57-.02.94-.16,1.96-.56,2.78-1.18,2.44-2.43,4.85-3.82,7.18-1.06,1.78-2.85,2.5-4.9,2.51-2.08,0-4.17-.18-6.23-.03-2.71.2-3.93,1.89-3.43,4.61.41,2.26,1.56,4.15,3.16,5.81,2.78,2.87,5.54,5.76,8.24,8.71.96,1.05,2.01,2.18,2.49,3.46,1.39,3.71,4.22,5.96,7.42,7.84,2.75,1.62,5.62,3.05,8.47,4.51,5.55,2.83,11.1,5.62,16.11,9.43,4.34,3.3,9.37,5.47,14.42,7.51,7.15,2.89,13.71,6.94,20.22,10.93,7.88,4.83,15.26,10.47,22.91,15.68,3.03,2.07,6.24,3.89,9.32,5.88,1.46.94,2.9,1.15,4.55.59,2.23-.75,4.29-.38,6.43.69,2.85,1.43,5.91,2.44,8.84,3.71,2.34,1.02,4.71,2.02,6.92,3.29,2.24,1.29,4.05,3.04,4.61,5.81.45,2.23.05,3.49-2.01,4.15-1.16.37-2.57.56-3.72.26-4.94-1.3-9.88-2.63-13.68-6.46-.87-.87-2.11-1.44-3.27-1.95-10.11-4.52-19.44-10.33-28.44-16.76-6.1-4.36-12.6-8.17-18.95-12.19-2.03-1.28-4.16-2.38-6.22-3.61-4.82-2.87-10.01-4.96-15.12-7.24-3.05-1.36-6.15-2.86-8.77-4.89-4.73-3.65-10.02-6.23-15.23-9-2.82-1.5-5.76-2.79-8.52-4.39-4.34-2.51-8.06-5.58-10.29-10.35-1.12-2.39-3.15-4.39-4.92-6.43-2.09-2.41-4.47-4.58-6.5-7.03-3.28-3.95-4.32-8.46-2.79-13.47.44-1.46,1.23-2.6,2.55-3.33,2.82-1.55,5.64-3.09,9.05-1.87.58.21,1.27.12,1.9.19,1.26.13,2.16-.32,2.64-1.55.23-.59.48-1.2.82-1.73,1.31-2.1,2.13-4.14,1.03-6.74-1.23-2.9-2.62-5.6-5.66-6.79-2.96-1.16-6.06-1.95-9.1-2.91-1.51-.48-3.02-.96-4.52-1.46-1.82-.6-3.6-1.34-5.45-1.81-7.63-1.92-14.94-4.68-21.86-8.42-2.95-1.59-5.8-3.37-8.61-5.2-8.57-5.61-16.78-11.7-24.14-18.87-1.02-.99-2.24-1.82-3.48-2.52-5.29-2.98-10.61-5.91-15.95-8.79-1.23-.66-2.58-1.09-4.05-1.69Zm-189.95-43.73c-4.36-.34-8.63.09-12.87.84-2.66.47-5.38.7-8.07.95-6.36.57-12.72.91-19,2.29-7.16,1.58-14.36,3.02-21.76,3.13-2.53.04-5.1.54-7.57,1.16-8.53,2.13-17.09,3.96-25.84,4.92-8.41.92-16.77,2.29-25.17,3.28-6.68.78-13.27,1.84-19.7,3.85-7.79,2.43-15.64,4.55-23.67,6.08-4.06.77-8.11,1.99-11.9,3.62-6.45,2.78-12.74,5.95-19.01,9.15-4.26,2.18-8.32,4.76-12.55,7.01-5.22,2.78-10.49,5.46-15.79,8.08-5.72,2.83-11.49,5.58-17.27,8.3-1.09.51-1.85,1.19-2.33,2.26-1.71,3.78-3.44,7.55-5.15,11.33-1.31,2.91-2.43,5.92-3.96,8.71-2.13,3.87-5.22,6.88-9.3,8.7-2.32,1.04-4.73,1.88-7.12,2.78-1.79.68-3.84.97-5.34,2.04-5.18,3.74-10.94,6.67-15.7,11-3.69,3.35-7.67,6.26-12.23,8.33-1.02.46-2.02.99-2.93,1.64-3.39,2.43-6.59,5.06-8.57,8.87-.97,1.87-.56,2.43,1.68,2.5,1.91.06,3.81.36,5.71.36,2.22,0,4.47,0,6.64-.37,4.4-.73,8.75-1.83,13.16-2.53,7.16-1.15,13.99-3.29,20.48-6.5,3.28-1.63,6.45-3.49,9.67-5.25,4.21-2.3,8.6-4.32,12.57-6.97,4.37-2.92,9.16-4.6,14.14-5.71,5.65-1.26,11.02-3.2,16.33-5.39,4.43-1.83,8.76-4.03,13.34-5.33,8.31-2.34,16.54-4.91,24.81-7.35,4.16-1.22,8.19-2.7,12.13-4.44,2.92-1.28,5.88-2.64,8.46-4.48,6.24-4.46,12.23-9.25,18.37-13.84,6.4-4.78,12.83-9.52,19.33-14.16,1.67-1.19,3.57-2.44,5.52-2.79,5.56-1.02,9.97-4.14,14.55-7.05,4.45-2.83,8.82-5.94,13.95-7.36,5.83-1.61,11.76-3.01,17.74-3.92,6.92-1.05,13.83-2.61,20.92-1.97.78.07,1.58-.22,2.37-.26,5.53-.27,10.52-1.7,15.16-5.07,3.49-2.53,7.13-4.8,10.13-7.94.99-1.03,2.05-2.03,3.18-2.91,4.14-3.23,8.31-6.4,12.48-9.6Zm184.39,33.24c.09-.67.25-1.3.23-1.92-.16-6.55-.46-13.09.15-19.64.18-1.9.13-3.84,0-5.75-.32-4.81-1.06-9.45-3.77-13.68-1.71-2.67-2.76-5.74-4.19-8.59-.71-1.41-1.44-2.9-2.51-4.03-2.62-2.79-5.42-5.41-8.2-8.04-.81-.76-1.72-1.5-2.71-1.96-2.82-1.3-5.01-3.36-7.2-5.49-1.95-1.89-3.83-3.78-5.51-5.95-1.64-2.11-3.91-3.74-5.93-5.54-1.1-.98-2.43-1.4-3.9-1.67-5.69-1.05-11.43-1.26-17.19-1.34-.79-.01-1.59.14-2.36.33-10.08,2.55-20.35,4.15-30.6,5.71-6.75,1.03-13.11,2.9-18.96,6.34-5.13,3.02-10.59,5.22-16.11,7.36-5.96,2.31-11.94,4.68-17.06,8.63-4.68,3.61-9.28,7.34-13.86,11.08-1.57,1.28-2.98,2.75-4.69,4.34,1.96,1.4,3.73,2.4,5.72,2.96,3.97,1.13,7.94,2.24,11.94,3.25,3.71.94,7.45,1.76,11.19,2.59,1.08.24,2.19.43,3.3.5,6.2.37,12.44.14,18.54,1.65.55.14,1.28-.1,1.81-.38,1.12-.59,2.35-1.15,3.22-2.03,2.37-2.4,5.31-3.56,8.48-4.12,5.02-.88,10.07-1.55,15.11-2.3.31-.05.64,0,.95.04,2.05.28,4.09.58,6.13.87,5.2.75,10.4,1.37,15.68,1.43,2.51.03,5.05.74,7.49,1.44,3.37.97,6.62,2.4,10,3.32,5.85,1.58,10.36,4.77,13.45,10.02,1.38,2.35,3.27,4.28,5.25,6.18,3.73,3.57,8.03,6.37,12.38,8.97,3.81,2.28,8.12,3.71,12.22,5.47.38.16.92-.03,1.49-.06Zm8.48,48.92c-.8-2.79-1.48-4.87-1.97-6.99-.5-2.17-1.04-4.37-1.18-6.58-.31-4.85-1.63-9.41-3.47-13.86-1.24-2.99-1.9-6.08-1.78-9.34.04-1.11.03-2.25-.16-3.34-.1-.55-.55-1.17-1.03-1.47-.65-.42-1.49-.56-2.23-.84-8.09-3.13-15.69-7.11-22.35-12.75-3.17-2.68-6.53-5.31-8.56-8.95-2.7-4.83-6.8-7.44-11.87-8.97-1.67-.5-3.35-1.02-4.99-1.63-5.71-2.16-11.51-3.63-17.71-3.44-3.01.09-6.08-.23-9.04-.81-7.51-1.48-14.93-.25-22.37.48-1.08.11-2.15.57-3.16,1-.32.13-.52.67-.64,1.06-.03.1.42.48.68.52.79.12,1.59.13,2.38.19,2.38.2,4.79.24,7.15.63,4.88.8,9.74,1.75,14.59,2.7,1.56.31,3.1.75,4.61,1.24,2.57.83,5.12,1.73,7.68,2.62,5.95,2.05,11.51,4.63,15.54,9.81,4.02,5.17,8.68,9.75,13.64,14.03,3.02,2.6,5.94,5.33,8.75,8.16,4.06,4.08,8.3,7.92,13.04,11.23,5.66,3.95,10.76,8.49,14.37,14.53,1.05,1.76,2.45,3.36,3.85,4.87,1.79,1.93,3.54,3.96,6.25,5.92Zm-210.58-59.36c4.2.84,7.96,1.55,11.7,2.36,3.3.7,6.6,1.1,9.98,1.02,1.58-.04,3.17.27,4.76.35,5.09.26,10.18.73,15.17-1.05,3.3-1.18,6.72-2,10.06-3.03,4.27-1.32,8.56-2.61,12.46-4.88,3.17-1.85,6.31-3.75,9.44-5.67.76-.47,1.43-1.09,2.36-1.81-5.4-1.15-10.38-2.17-15.33-3.3-3.11-.71-6.14-1.83-9.27-2.37-6.19-1.08-11.87-3.59-17.59-5.99-1.39-.59-2.37-.44-3.51.36-3.66,2.57-7.36,5.08-11.03,7.63-.78.55-1.54,1.14-2.26,1.76-5.54,4.76-11.06,9.54-16.94,14.62Z"/>
</svg>