<?xml version="1.0" encoding="UTF-8"?>
<svg id="Livello_1" data-name="Livello 1" xmlns="http://www.w3.org/2000/svg" viewBox="0 0 1133.86 1133.86">
  <defs>
    <style>
      .cls-1 {
        stroke-width: 0px;
      }
    </style>
  </defs>
  <path class="cls-1" d="m582.31,776.94c-3.01-.97-5.84-1.59-8.4-2.79-2.58-1.2-4.88-3-7.33-4.49-1.13-.69-2.21-1.62-3.92-1.22-.26,1.23-.64,2.53-.81,3.86-.99,7.48-1.84,14.98-2.95,22.43-.51,3.42-1.33,6.83-2.37,10.12-1.92,6.09-2.93,12.32-3.52,18.64-.41,4.4.13,8.74.92,13.06.3,1.63.72,3.25.97,4.89.5,3.3.72,6.59-.18,9.88-.7,2.54-.62,5.04.41,7.53.8,1.95,1.52,3.96,2,6,.45,1.89.84,3.88.71,5.78-.26,3.82-2.01,6.93-5.49,8.82-1.19.65-2.44,1.19-3.7,1.68-2.06.79-3.69,2.02-4.63,4.07-.31.68-.75,1.31-1.14,1.95-2.85,4.65-6.94,6.46-12.31,5.44-2.11-.4-4.08-1.1-5.79-2.41-2.51-1.93-2.83-4.68-.76-7.08,1.54-1.79,3.45-2.96,5.95-2.63.56.08,1.13.38,1.62.7.8.51.9,1.78.16,2.35-.95.73-2.04,1.28-2.96,2.04-1.05.86-.63,2.47.67,2.87,3.19.97,6.04.14,8.08-2.51,1.01-1.31,1.99-2.69,2.7-4.17.99-2.06,2.63-3.24,4.6-4.14,1.1-.5,2.21-.97,3.31-1.46,2.97-1.3,4.38-3.65,4.27-6.82-.05-1.64-.3-3.31-.73-4.89-.51-1.89-1.23-3.73-2-5.53-1.17-2.76-1.45-5.62-.45-8.4,1.03-2.87.77-5.65.16-8.47-1.11-5.03-1.71-10.11-1.69-15.26.03-5.6.59-11.13,2.01-16.58,1.45-5.55,2.83-11.11,4.03-16.72.6-2.79.64-5.69,1.06-8.52,1.03-6.86,2.15-13.7,3.2-20.55,1.41-9.26,2.52-18.56,2.62-27.92.1-8.95,1.28-17.73,3.06-26.47,1.32-6.5,2.44-13.04,3.62-19.57.21-1.19.33-2.39.41-3.6.35-5.42.44-10.86,1.06-16.25.57-4.92.62-9.93,2.1-14.75.48-1.56.42-3.28.75-4.91,1.71-8.57,3.17-17.18,4.68-25.79,1.04-5.96,1.89-11.9,2.37-17.91.13-1.65.5-3.28.76-4.92,1.66-10.42,2.84-20.9,3.82-31.41.92-9.8.46-19.6.61-29.4.07-4.53.1-9.05.12-13.58.04-14.79.07-29.58.1-44.38.02-11.77.03-23.54.08-35.31.02-5.57-.1-11.16.25-16.72.41-6.61-.24-13.2,0-19.81.41-11.44.28-22.91.34-34.37.07-14.33.11-28.66.14-43,.03-17.35.04-34.71.06-52.06.01-8.61.05-17.21.07-25.82,0-1.81,0-3.62-.05-5.44-.1-3.7.4-4.92-4.82-3.17-5.41,1.82-9.33,5.47-12.19,10.28-2.42,4.06-3.91,8.49-4.68,13.15-.32,1.93-.47,3.83-2.71,4.84-1.49.67-1.73,2.37-1.71,3.94.04,4.32.99,8.41,3.36,12.05,1.09,1.67,1.86,3.39,2.48,5.28.94,2.86,2.16,5.64,3.4,8.39.63,1.41,1.05,2.79,1,4.35-.06,1.66.02,3.32,0,4.98-.12,6.15-2.57,11.02-7.78,14.49-4.4,2.94-8.82,5.75-13.75,7.78-4.03,1.66-7.92,3.69-11.74,5.79-1.83,1-3.51,2.39-4.99,3.87-5.29,5.25-8.56,11.64-9.98,18.92-1.44,7.4-3.23,14.74-3.5,22.33-.06,1.65-.45,3.29-.74,4.92-.95,5.2-1.29,10.47-1.92,15.71-.84,7.03-2.25,14-3.1,21.03-.95,7.83-3.48,15.27-5.22,22.91-.46,2.04-1.43,3.97-2.2,5.93-3.18,8.07-4.97,16.38-5.16,25.12-.15,6.77-.17,13.57-1.28,20.31-.36,2.21-.19,4.52-.2,6.78-.01,4.37.2,8.74-.01,13.09-.21,4.36-.73,8.72-1.3,13.06-1.07,8.06-2.28,16.11-3.44,24.16-.15,1.04-.32,2.09-.62,3.09-3.72,12.45-4.69,25.19-3.73,38.07.27,3.58,1.32,7.11,2.01,10.66.23,1.18.5,2.35.63,3.54.04.34-.37,1.02-.6,1.03-.52.03-1.28-.11-1.54-.46-.6-.84-1.06-1.82-1.42-2.8-2.25-6.28-3.51-12.78-4.28-19.4-.85-7.31.23-14.45,1.6-21.57.6-3.11,1.53-6.15,2.11-9.26,1.05-5.61,1.97-11.24,2.89-16.87.34-2.08.57-4.18.8-6.27.61-5.7,1.65-11.41,1.62-17.11-.02-4.22.33-8.41.34-12.62.01-3.46.51-6.91.67-10.38.23-4.82.39-9.65.51-14.48.25-10.03,1.95-19.72,5.51-29.17,2.75-7.33,4.58-14.98,6.11-22.67,1.35-6.8,2.66-13.6,3.98-20.41.14-.74.28-1.49.28-2.24,0-5.61.99-11.09,1.87-16.6.33-2.08.43-4.2.71-6.29,1.02-7.47,2.05-14.94,3.12-22.4.15-1.03.53-2.03.86-3.02.52-1.57,1.29-3.09,1.59-4.7.64-3.38,2.42-6.11,4.34-8.84,2.18-3.1,4.51-5.98,7.62-8.26,1.84-1.35,3.66-2.6,5.72-3.59,7.19-3.48,14.35-7.02,21.48-10.62,2.44-1.23,4.53-2.85,5.95-5.37,2.88-5.11,3.1-10.46,1.11-15.71-1.75-4.61-3.31-9.34-6.04-13.6-2.04-3.17-2.91-6.98-3.3-10.75-.35-3.36-.03-6.71,3.03-8.99,1.1-.82,1.34-1.98,1.51-3.17.54-3.78,1.91-7.3,3.37-10.77,2.22-5.26,5.61-9.61,10.39-12.83,2.93-1.97,6.18-3.1,9.59-3.88,2.38-.54,2.5-.63,2.52-2.95.08-8.46.09-16.91.1-25.37.03-18.12,0-36.24.07-54.36.04-11.77.2-23.54.34-35.32.03-3.02.14-6.04.31-9.05.03-.47.47-1.03.88-1.32.48-.33,1.08.46,1.15,1.53.03.45.03.91.03,1.36-.17,16.46-.37,32.91-.5,49.37-.05,5.73.08,11.45.07,17.18,0,3.77-.17,7.54-.2,11.31-.07,9.06-.13,18.11-.16,27.17-.01,4.83.05,9.66.08,14.49,0,1.21.01,2.42-.01,3.62-.03,1.23.5,1.98,1.74,2.24,1.33.28,2.67.53,3.96.94,5.57,1.79,10.53,4.52,14.11,9.33,3.06,4.11,4.57,8.8,5.25,13.81.14,1.05.24,2.1.28,3.16.06,1.74.6,3.14,2.03,4.32,1.9,1.58,2.25,3.89,2.06,6.21-.44,5.2-1.74,10.15-5.03,14.31-1.37,1.73-2.04,3.64-2.62,5.68-.74,2.61-1.32,5.31-2.44,7.76-1.92,4.22-1.55,8.53-1.19,12.89.12,1.45.85,2.58,1.99,3.41,2.07,1.51,4.09,3.12,6.29,4.43,3.89,2.31,7.87,4.45,11.85,6.61,1.86,1,3.81,1.82,5.68,2.8,3.87,2.03,7.81,3.94,11.54,6.2,4.12,2.5,6.83,6.31,8.76,10.7,2.93,6.66,4.81,13.61,6.02,20.78,1.38,8.17,2.96,16.3,4.44,24.46.19,1.04.41,2.08.48,3.13.69,10.4,2.34,20.68,3.87,30.97.73,4.92,1.27,9.87,2.12,14.76.51,2.96,1.51,5.84,2.15,8.78.93,4.27,1.73,8.57,2.6,12.85.75,3.71.71,7.51,1.15,11.24.85,7.21,1.27,14.45,1.21,21.67-.06,8.03.74,15.98,1.45,23.92.56,6.3,1.13,12.61,1.61,18.92.18,2.4.57,4.79,1.02,7.15,1.65,8.64,1.63,17.42,2.45,26.14.94,9.97-1.22,19.51-4.97,28.72-1.01,2.48-2.08,3.36-2.94,2.72-1.46-1.09-.51-2.48-.28-3.73.22-1.18.59-2.34.97-3.49,2.67-8.17,3.18-16.55,2.4-25.05-.44-4.81-.91-9.61-1.33-14.42-.48-5.39-1.11-10.76-2.06-16.1-.34-1.92-.35-3.91-.42-5.87-.24-6.32-1.8-12.53-1.62-18.89-1.89-10.01-1.39-20.15-1.69-30.24-.03-1.06-.04-2.11-.14-3.17-.52-5.86-.95-11.73-1.66-17.57-.41-3.43-1.1-6.85-1.96-10.2-2.19-8.48-4.15-16.99-5.16-25.71-.58-4.94-1.48-9.84-2.15-14.77-.53-3.88-1.11-7.78-1.33-11.68-.59-10.12-2.14-20.07-4.14-30-1.17-5.77-2.27-11.53-4.11-17.13-.33-1-.66-2.01-.98-3.01-2.29-7.23-7.14-12.09-13.98-15.11-2.9-1.28-5.78-2.59-8.66-3.91-.96-.44-1.94-.86-2.83-1.42-6.78-4.23-13.72-8.22-20.04-13.17-1.17-.92-1.78-2-1.85-3.44-.15-3.01-.41-6.02-.42-9.04,0-1.31.32-2.71.84-3.92,1.75-4.03,3.13-8.17,4.13-12.44.42-1.78,1.13-3.38,2.23-4.89,2.43-3.37,3.78-7.21,4.25-11.32.24-2.12.32-4.21-2.11-5.45-1.4-.71-1.29-2.29-1.26-3.65.1-3.99-.76-7.81-2.17-11.5-3.1-8.11-9.45-12.21-17.6-14-1.02-.23-1.67.36-1.77,1.51-.09,1.05-.13,2.11-.13,3.17,0,7.1.04,14.19.03,21.29,0,1.96-.16,3.92-.17,5.88-.04,8.9-.04,17.8-.07,26.7-.04,9.66-.13,19.31-.14,28.97-.01,5.88.13,11.76.09,17.64-.03,4.67-.43,9.35-.33,14.02.34,15.25-.22,30.48-.22,45.72,0,7.24.18,14.47.16,21.71-.02,6.64-.25,13.28-.3,19.92-.09,12.38-.13,24.76-.15,37.14-.02,9.35.03,18.7.02,28.06,0,11.62-.03,23.24-.07,34.86-.01,3.61-.15,7.21-.19,10.82-.01,1.2.03,2.42.19,3.61,1.41,10.32,2.41,20.68,3.3,31.05.64,7.51,1.79,14.98,2.66,22.48.61,5.24,1.01,10.51,1.69,15.74.87,6.72,1.95,13.42,2.9,20.13.89,6.27,1.88,12.54,2.53,18.83.49,4.79.69,9.64.7,14.46.02,6.98.79,13.88,2.13,20.67,1.78,8.98,1.87,17.96,1.57,27.04-.15,4.51.21,9.04.41,13.56.08,1.96.28,3.92.51,5.86.3,2.54.67,5.07,1.05,7.6.13.89.53,1.76.56,2.65.26,7.42,2.61,14.52,3.38,21.88.48,4.63,1.74,9.18,1.97,13.86.1,2.11.19,4.21.29,6.32.09,1.96.05,3.93.28,5.88.91,7.67,1.12,15.34.24,23.01-.2,1.7-.06,3.29.7,4.84.4.81.63,1.7,1,2.52,2.18,4.89,1.1,9.42-1.49,13.78-.38.65-.86,1.24-1.26,1.88-2.18,3.47-1.87,6.96,1.02,9.86.94.95,2.07,1.81,3.27,2.39,4.76,2.31,8.31,5.95,11.53,10,1.91,2.39,4.23,4.29,6.74,5.99,2,1.35,4.18,1.65,6.49,1.17.92-.19,1.72-.56,1.98-1.59.24-.95-.27-1.91-1.46-2.52-.94-.48-1.95-.8-2.91-1.25-.53-.25-1.08-.56-1.49-.98-.28-.29-.55-.91-.42-1.21.21-.49.69-1.1,1.15-1.19,3.76-.74,9.02,2.96,9.56,6.63.32,2.14-1.06,4.72-3.27,5.38-4.01,1.19-8.01,1.61-11.56-1.42-3.44-2.93-7.11-5.56-10.05-9.09-2.63-3.15-5.97-5.52-9.78-7.17-2.09-.91-3.86-2.17-5.26-4.11-2.28-3.16-2.37-6.42-1.05-9.85.7-1.83,1.64-3.56,2.46-5.34,1.53-3.31,1.98-6.72.13-9.99-2.02-3.56-1.9-7.32-1.1-11.01.85-3.93.77-7.79.32-11.69-.65-5.56-.75-11.12-.67-16.71.04-2.68-.36-5.42-.99-8.03-.98-4.13-1.6-8.29-1.96-12.5-.08-.9-.2-1.8-.34-2.7-.55-3.63-.59-3.72-4.06-4.29-3.44-.56-6.83-1.17-10.01-2.7-.93-.44-2.03-.56-3.07-.72-1.08-.17-1.66.36-1.73,1.52-.06.9-.04,1.81-.05,2.72-.1,22.34-.05,44.69-.36,67.03-.12,8.27.13,16.53,0,24.8-.05,3-.33,5.99-.35,8.99-.06,6.93.01,13.86-.03,20.78-.07,12.37-.2,24.74-.26,37.11-.06,14.79-.06,29.58-.1,44.38,0,3.77-.01,7.55-.05,11.32,0,.9-.08,1.81-.29,2.68-.06.26-.73.55-1.09.51-.34-.04-.69-.45-.91-.79-.14-.21-.06-.58-.05-.88.84-15.99.31-31.99.48-47.98.09-8.75-.04-17.5.21-26.24.24-8.14-.19-16.27.02-24.39.26-9.79.17-19.57.3-29.36.2-14.79.23-29.58.3-44.37.07-14.49.1-28.98.13-43.47,0-1.64-.07-3.28-.11-4.82Zm.85-162.37c-.07,0-.15-.01-.22-.02-.67,3.69-1.56,7.35-1.97,11.07-1.12,10.05-3.31,19.9-5.09,29.83-.56,3.11-1.11,6.24-1.41,9.38-.54,5.85-.99,11.72-1.31,17.59-.47,8.62-2.07,17.05-3.86,25.46-1.6,7.52-3.16,15.07-3.2,22.8-.04,7.56-.68,15.05-1.57,22.54-.27,2.25-.43,4.5-.68,6.75-.11.98.1,1.82.99,2.33,3.79,2.17,7.58,4.36,11.41,6.45,1.04.57,2.25.88,3.42,1.16,2.11.52,2.81,0,2.97-2.07.06-.75.06-1.51.06-2.26.09-10.38.18-20.77.26-31.15.06-7.69.16-15.38.17-23.07,0-15.38-.06-30.76-.06-46.14,0-14.47.06-28.94.09-43.42,0-2.41,0-4.82,0-7.22Zm2.66-3.69l-.48.06c0,.57,0,1.14,0,1.7-.04,12.82-.07,25.65-.15,38.47-.03,5.28-.28,10.56-.28,15.83,0,7.23.15,14.46.22,21.69.01,1.06-.07,2.11-.09,3.17-.12,4.97-.32,9.94-.32,14.91,0,6.48.22,12.95.27,19.43.04,6.03.31,12.09-.1,18.09-.56,8.14-.12,16.28-.39,24.42-.04,1.2.43,1.93,1.66,2.32,3.17.98,6.28,2.14,9.45,3.1,1.28.39,2.66.51,4.01.62.86.07,1.42-.52,1.42-1.39,0-1.05.13-2.2-.25-3.12-1.33-3.18-1.21-6.46-1.19-9.79.01-1.78-.39-3.57-.65-5.36-.19-1.34-.63-2.67-.65-4.01-.07-4.21-.2-8.44.05-12.64.58-9.55-.29-18.99-2.08-28.34-1.48-7.74-1.71-15.59-1.97-23.4-.18-5.43-.31-10.84-1.04-16.23-1.26-9.26-2.6-18.51-3.72-27.79-1.1-9.12-1.94-18.28-2.94-27.42-.16-1.45-.52-2.89-.79-4.33Z"/>
  <path class="cls-1" d="m201.29,412.21c5.41,3.88,11.15,7.28,15.48,12.42,2.57,3.05,6.06,4.96,9.3,7.16,1.37.93,2.8,1.79,4.14,2.76,3.67,2.66,7.39,5.21,11.62,6.96,1.66.69,3.24,1.63,4.73,2.65,3.61,2.48,7.33,4.74,11.21,6.79,1.98,1.04,3.75,2.51,5.5,3.93,3.75,3.03,7.38,6.17,11.78,8.35,2.81,1.39,5.36,3.31,7.52,5.73,1.27,1.44,3,2.49,4.6,3.61,2.84,1.99,5.87,3.74,8.56,5.91,2.08,1.68,4.34,2.74,6.86,3.22,4.19.81,8.09,2.27,11.89,4.22,2.66,1.36,5.63,2.14,8.45,3.19,1.67.62,3.33,1.26,5.61,2.12-.95-1.93-1.62-3.34-2.34-4.74-.76-1.48-1.37-3.07-2.36-4.37-3.22-4.23-5.64-8.93-8.19-13.54-1.85-3.36-3.97-6.34-7.35-8.36-4.75-2.85-7.53-7.35-9.39-12.39-1.33-3.62-3.47-6.67-5.8-9.64-2.8-3.56-5.63-7.08-8.42-10.65-1.02-1.31-2.2-2.58-2.86-4.06-2.43-5.46-6.41-9.83-9.86-14.58-2.03-2.8-3.74-5.84-5.73-8.68-3.91-5.55-8.08-10.92-11.41-16.86-.66-1.17-1.57-2.22-2.43-3.26-4.24-5.1-8.75-9.99-12.69-15.32-3.31-4.48-5.91-9.53-7.24-14.99-.99-4.08-1.39-8.31-1.93-12.5-.53-4.02-1.04-8.06-1.3-12.1-.26-4.06-.2-8.14-.26-12.21-.07-4.52-.11-9.04-.16-13.55-.06-5.72.03-11.45-.19-17.16-.24-6.03-.76-12.05-1.17-18.07-.08-1.2-.31-2.41-.29-3.61.14-5.93-.83-11.74-2.11-17.48-1.28-5.74-3.11-11.32-6.03-16.49-.37-.66-.95-1.23-1.16-1.93-2.09-6.74-5.4-13.15-5.69-20.39-.09-2.32-.57-4.35-2.14-6.25-1.11-1.34-1.51-3.25-2.26-4.89-.87-1.91-1.69-3.85-2.67-5.71-1.63-3.06-3.36-6.07-5.07-9.09-1.41-2.49-2.83-4.98-4.32-7.43-1.1-1.81-2.04-3.65-2.64-5.72-.7-2.46-1.75-4.81-2.6-7.23-.24-.69-.35-1.45-.43-2.18-.02-.18.32-.42.53-.58.1-.07.35-.08.43,0,.33.29.69.59.92.96,2.14,3.45,4.26,6.91,6.38,10.38.31.51.49,1.16.91,1.56,4.05,3.82,5.8,9.12,8.83,13.58,3.15,4.65,5.23,9.79,7.7,14.76,1.44,2.91,1.99,6,2.42,9.13.72,5.26,2.18,10.32,3.9,15.32.34.99.82,1.95,1.34,2.87,3.63,6.34,5.93,13.1,7.41,20.28,1.17,5.65,1.55,11.31,2.2,16.99,1.04,9.03.3,18.1,1.19,27.11.07.75.1,1.51.07,2.26-.46,10.72.13,21.43.38,32.14.15,6.2,1.26,12.26,2.1,18.38,1.01,7.34,3.78,13.92,7.33,20.28.22.4.4.83.68,1.17,3.32,4.09,6.55,8.28,10.04,12.22,2.71,3.07,5.33,6.14,7.16,9.84.53,1.07,1.17,2.14,1.95,3.04,4.55,5.29,7.99,11.33,11.64,17.23,1.18,1.92,2.67,3.64,3.95,5.51,2.03,2.99,3.98,6.04,6.01,9.03,1.1,1.61,2.35,3.12,3.45,4.73,3.74,5.47,8.41,10.27,11.79,16,.84,1.42,1.63,2.89,2.22,4.43,1.75,4.6,4.23,8.58,8.21,11.67,3.23,2.5,5.77,5.71,7.79,9.31,2.06,3.67,4.76,6.98,6.08,11.05,3.1,3.93,4.98,8.6,7.62,12.79,2.01,3.19,4.73,5.85,8.24,7.53,1.22.59,2.4,1.27,3.58,1.94,3.07,1.75,6.35,2.83,9.88,2.95,3.4.12,6.52,1.08,9.48,2.7,1.06.58,2.12,1.16,3.24,1.62,3.43,1.42,6.06,3.76,8.52,6.52,3.42,3.83,7.47,6.99,11.9,9.65,5.82,3.49,11.67,6.94,17.34,10.66,3.14,2.06,5.97,4.61,8.87,7.01,2,1.65,3.46,3.73,4.6,6.09,2.37,4.9,5.06,9.61,8.18,14.08.6.86,1.16,1.77,1.61,2.72.92,1.93,2.18,3.56,3.63,5.14,3.82,4.15,6.71,8.74,7.88,14.48.95,4.68,2.28,9.35,5.02,13.48,1.15,1.73,1.98,3.79,2.46,5.82.65,2.72,1.91,5.04,3.47,7.29.77,1.11,1.32,2.37,2.02,3.53,1,1.68,1.92,3.42,3.1,4.97,2.34,3.08,3.82,6.49,4.4,10.28.36,2.38.68,4.77.86,7.17.14,1.86.84,3.48,1.6,5.14,1.63,3.56,3.05,7.21,4.7,10.76,1.14,2.45,2.46,4.82,3.8,7.18,1.49,2.62,3.01,5.22,4.65,7.75,1.88,2.91,3.77,5.84,5.91,8.56,2.32,2.97,4.7,5.95,7.46,8.49,2.17,2,4.8,3.66,7.5,4.87,3.04,1.37,5.29,3.13,6.9,6.12,1.56,2.89,3.81,5.4,5.68,8.13,2.13,3.1,4.21,6.24,6.25,9.41.65,1.01,1.15,2.12,1.6,3.23,1.46,3.63,2.89,7.27,4.28,10.93.65,1.7,1.49,3.24,2.96,4.72.26-.55.62-.93.57-1.25-.98-5.86-.33-11.76-.18-17.62.24-9.34.77-18.69,1.55-28,.56-6.63.47-13.22.39-19.86-.06-5.55.08-11.13.76-16.71.7-5.68.46-11.47-.36-17.15-.61-4.2-.74-8.41-.86-12.63-.09-3.17-.38-6.33-.5-9.49-.1-2.4-.21-4.82-.1-7.22.44-9.64.94-19.29,1.47-28.92.18-3.31.52-6.61.78-9.92.61-7.82,1.2-15.64,1.83-23.45.08-1.05.29-2.09.45-3.14.59-3.72,1.16-7.44,1.8-11.16.51-2.97,1.1-5.92,1.67-8.88.26-1.33.72-2.65.8-3.99.66-10.87,3.4-21.42,4.8-32.18.33-2.54.49-5.11.56-7.67.14-5.13.2-10.26.24-15.39.03-4.22-.08-8.45-.04-12.67.06-5.87.14-11.73.33-17.6.07-2.13-.29-4.13-1.02-6.15-.09.56-.2,1.11-.26,1.68-.43,4.05-.88,8.06-2.33,11.95-.83,2.21-.83,4.72-1.27,7.09-.59,3.11-1.35,6.19-1.84,9.31-.88,5.51-1.61,11.04-2.4,16.56-.04.3-.1.61-.04.9.82,4.23-.25,8.41-.29,12.62-.01,1.5-.31,2.99-.52,4.48-.46,3.29-.94,6.57-1.41,9.85-.11.75-.17,1.51-.38,2.23-2.27,7.99-3.07,16.29-5.08,24.33-1.42,5.7-3.3,11.27-4.84,16.94-.86,3.19-1.42,6.47-2.14,9.7-.39,1.76-.68,3.58-1.31,5.25-.67,1.77-.82,3.51-.53,5.33.43,2.68.75,5.39,1.39,8.02,1.47,6.05,2.61,12.1,1.58,18.36-.19,1.16.02,2.41.12,3.6.35,4.06.74,8.11,1.08,12.17.06.75.04,1.52-.08,2.25-.07.39-.44.73-.68,1.09-.44-.29-1.09-.49-1.28-.9-2.24-4.69-3.65-9.64-3.5-14.84.23-8.07-.92-15.94-2.68-23.77-.49-2.2-.77-4.46-1.06-6.7-.12-.88-.14-1.82.01-2.69.63-3.56.92-7.27,2.15-10.63,1.72-4.7,2.22-9.69,3.84-14.36,2.48-7.17,4.06-14.55,5.5-21.93,1.2-6.2,2.9-12.34,3.2-18.7.06-1.19.44-2.36.7-3.54.9-4.14,1.44-8.31,1.63-12.55.19-4.21.73-8.41,1.13-12.61.07-.75.3-1.5.28-2.24-.12-5.2,1.38-10.13,2.48-15.13,1.68-7.66,3.2-15.35,4.8-23.03.22-1.03.47-2.06.74-3.08,1.59-5.99,2.82-12.04,2.97-18.27.01-.42.56-.95.99-1.19.18-.1.74.36,1.06.64.22.19.34.49.47.76.13.27.24.56.31.85.86,3.36,1.75,6.69,1.83,10.21.05,2.55.48,5.1.68,7.65.29,3.76.78,7.53.76,11.29-.09,14.94-.24,29.88-.6,44.81-.1,4.19-.95,8.37-1.54,12.55-.34,2.39-.95,4.74-1.26,7.13-.69,5.23-1.27,10.48-1.9,15.72-.05.45-.11.9-.22,1.34-2.21,8.8-3.02,17.84-4.38,26.78-.88,5.8-1.12,11.7-1.56,17.55-.49,6.47-.92,12.94-1.31,19.42-.56,9.34-1.1,18.68-1.57,28.02-.1,2.1.1,4.22.22,6.33.08,1.51.28,3.01.36,4.52.53,9.94,1.09,19.88,1.52,29.82.1,2.39-.27,4.81-.44,7.21-.13,1.81-.39,3.61-.4,5.41-.05,7.54-.02,15.09-.03,22.63,0,.9.05,1.83-.12,2.71-2.03,10.13-1.89,20.39-1.95,30.64-.07,11.17.64,22.34-.14,33.5-.1,1.49.13,3.01.32,4.5,1.27,9.73,2.34,19.47,2.78,29.29.29,6.47,1.12,12.92,1.39,19.39.29,6.93.91,13.87-.12,20.8-.29,1.93-.3,3.91-.38,5.87-.31,7.1-1.3,14.1-2.8,21.04-.76,3.53-1.57,7.06-2.55,10.54-.49,1.72-1.23,3.43-2.18,4.94-3.6,5.77-7.59,11.28-12.49,16.02-2.13,2.06-3.78,4.22-4.53,7.12-.53,2.06-1.45,2.81-2.58,2.54-1.52-.36-1.53-1.73-1.7-2.88-.39-2.65.11-5.15,1.83-7.25,1.53-1.87,3.03-3.8,4.81-5.41,4.55-4.12,7.89-9.09,10.74-14.43.42-.79.74-1.66.99-2.52,1.01-3.63,1.92-7.29,2.98-10.91,1.2-4.08,1.85-8.19,1.97-12.46.17-6.02.87-12.02,1.18-18.04.12-2.24-.18-4.51-.33-6.76-.25-3.76-.54-7.51-.82-11.27-.03-.45-.05-.9-.07-1.36-.37-7.99-.69-15.98-1.14-23.97-.19-3.31-.73-6.59-1-9.89-.48-6.01-.96-12.02-1.25-18.04-.09-1.79-.58-3.2-1.73-4.5-.8-.9-1.54-1.86-2.28-2.81-1.5-1.92-2.65-4.01-3.3-6.39-.56-2.03-1.23-4.04-1.94-6.02-1.33-3.72-3.31-7.05-5.73-10.2-2.47-3.22-4.53-6.75-6.78-10.14-.25-.38-.54-.73-.78-1.11-2.29-3.65-5.16-6.6-9.21-8.37-3.65-1.6-6.52-4.26-9.18-7.22-4.75-5.29-9.24-10.73-12.61-17.06-1.62-3.05-3.81-5.8-5.5-8.83-1.09-1.96-1.73-4.16-2.6-6.24-.76-1.79-1.53-3.58-2.37-5.34-.65-1.36-1.38-2.68-2.11-4-1.65-2.98-2.45-6.15-2.26-9.56.22-3.97-1.1-7.45-3.52-10.49-1.8-2.27-3.31-4.66-4.49-7.3-.49-1.1-1.08-2.18-1.78-3.15-1.8-2.49-2.91-5.27-3.82-8.16-.41-1.29-.78-2.62-1.41-3.81-2.64-4.96-4.44-10.25-5.62-15.69-1.19-5.46-4.47-9.5-8.12-13.3-1.48-1.55-2.79-3.1-3.84-4.96-3.56-6.3-7.18-12.57-10.85-18.81-.6-1.02-1.42-1.97-2.32-2.74-2.75-2.34-5.45-4.8-8.44-6.82-4.87-3.3-9.88-6.39-14.95-9.37-5.76-3.39-11.18-7.19-15.54-12.3-3.14-3.68-7.15-6.08-11.51-7.77-2.9-1.12-6.11-1.58-9.22-1.97-2.61-.33-5-1.06-7.25-2.35-3.81-2.19-7.71-4.11-11.98-5.28-1.58-.43-3.03-1.34-4.54-2.03-2.73-1.26-5.37-2.61-8.37-3.33-2.44-.59-4.79-1.85-6.98-3.15-2.25-1.35-4.64-2.2-7.15-2.68-5.14-.98-9.74-3.03-13.88-6.25-2.49-1.94-5.25-3.54-7.83-5.37-1.47-1.04-2.96-2.11-4.22-3.39-2.57-2.62-5.5-4.7-8.71-6.42-2.82-1.51-5.26-3.46-7.5-5.76-1.56-1.61-3.41-2.96-5.25-4.26-3.94-2.77-7.88-5.56-11.98-8.08-2.68-1.65-5.62-2.87-8.47-4.24-1.49-.72-3.15-1.14-4.53-2.02-5.21-3.33-10.37-6.74-15.47-10.25-1.47-1.01-2.68-2.43-3.98-3.68-1.2-1.15-2.22-2.54-3.56-3.46-4.38-2.99-6.02-7.71-7.94-12.39Z"/>
  <path class="cls-1" d="m629.72,395.87c1.79,1.68,2.15,3.39,2.34,4.97.66,5.43,2.43,10.58,3.6,15.88.59,2.65.98,5.34,1.43,8.01,1.89,11.15,3.82,22.29,5.59,33.46.47,2.96.64,6.02.56,9.02-.21,7.73.45,15.37,1.65,22.99.5,3.13,1.16,6.21,2.5,9.13.75,1.63,1.19,3.42,1.69,5.15,2.26,7.81,4.8,15.56,6.65,23.47,1.78,7.62,3.24,15.36,3.02,23.28-.07,2.42-.33,4.77-1.09,7.12-1.31,4.01-2.14,8.14-2.19,12.41-.03,3.16-.3,6.33-.51,9.49-.07,1.05-.19,2.12-.47,3.13-1.04,3.78-2.07,7.57-3.28,11.3-.69,2.14-1.61,4.26-3.44,5.74-.28.23-.92.27-1.26.11-.31-.15-.64-.7-.61-1.04.07-.73.33-1.45.56-2.16,2.35-7.07,3.29-14.39,3.91-21.78.52-6.16.8-12.36,3.32-18.17.79-1.83.7-3.82.46-5.81-.25-2.09-.32-4.21-.47-6.31-.04-.6.06-1.25-.12-1.8-1.34-4.17-1.25-8.66-2.91-12.77-.61-1.52-.81-3.21-1.2-4.82-.39-1.61-.73-3.24-1.21-4.83-2.2-7.2-4.39-14.41-6.67-21.58-1.38-4.34-1.89-8.81-2.46-13.31-1-7.83-.65-15.66-.65-23.51,0-2.54-.68-5.07-.96-7.61-1.12-10.36-2.67-20.65-4.64-30.88-.14-.71-.43-1.38-1.15-2.06-.08,1.22-.17,2.45-.22,3.67-.06,1.36-.07,2.72-.12,4.07-.4,11.16-1.05,22.32-1.12,33.48-.05,6.91-.16,13.84.8,20.77,1.24,8.96,2.97,17.83,4.47,26.73.33,1.93.66,3.86.91,5.8.71,5.67,1.34,11.36,2.07,17.03.52,4.03,1.14,8.05,1.7,12.08.23,1.64.45,3.29.6,4.94.62,6.6,1.54,13.18,1.46,19.85-.04,3.46.63,6.92.68,10.38.07,4.82-.03,9.65-.3,14.46-.16,2.86-.24,5.68-.16,8.55.12,4.05-.4,8.11-.68,12.17-.05.74-.44,1.49-.38,2.21.31,4.11-.49,8.13-.9,12.17-.36,3.6-.91,7.18-1.3,10.77-.31,2.84-.64,5.69-.74,8.55-.26,7.69-.45,15.38-.56,23.07-.11,7.85-.22,15.7-.05,23.54.08,3.75.95,7.48,1.2,11.24.34,5.26.65,10.54.57,15.81-.18,12.23-1.31,24.41-2.59,36.58-.25,2.4-.21,4.82-.36,7.23-.11,1.8-.34,3.6-.46,5.4-.22,3.3-.47,6.61-.59,9.92-.05,1.49.57,2.26,2.1,2.44,1.63.2,3.3.18,4.94.05,1.5-.12,3-.42,4.45-.8,4.68-1.22,9.21-.88,13.79.68,4.42,1.5,8.99,2.47,13.57,3.47,5.73,1.25,11.39,2.92,16.98,4.74,7.21,2.35,14.67,3.4,22.06,4.84,1.18.23,2.38.42,3.56.63,3.86.68,7.71,1.3,11.68.71,3.93-.59,7.86-.08,11.68.8,7.2,1.65,14.36,3.47,21.52,5.3,1.92.49,3.72,1.08,5.72.17.7-.32,1.77-.09,2.58.17,3.01.96,5.92,2.31,8.98,3.01,2.91.66,5.97.67,8.96,1.01.89.1,1.8.25,2.64.55,3.39,1.25,6.75,2.56,10.12,3.86.98.38,2.04.67,2.9,1.25,4.03,2.73,8.54,4.46,12.97,6.38,2.47,1.07,4.76,2.6,7,4.12,1.8,1.21,3.57,2.01,5.82,2.12,1.9.1,3.85.72,5.62,1.48,2.2.95,4.2,2.38,6.36,3.44,2.15,1.06,4.33,2.19,6.63,2.81,2.69.72,5.09,1.87,7.27,3.51,3.26,2.45,6.55,4.83,10.16,6.77,2.71,1.46,4.61,3.88,6.33,6.37,4.3,6.19,8.69,12.33,12.3,18.97.5.92,1.26,1.69,1.84,2.57,1.84,2.76,3.78,5.46,5.46,8.32,3.52,5.97,8.02,11,13.97,14.53,7.88,4.68,14.43,10.9,20.73,17.41,1.98,2.04,3.51,4.52,5.24,6.8,1.54,2.04,2.93,4.22,4.65,6.1,2.95,3.23,6.1,6.28,9.19,9.38,1.93,1.94,3.98,3.68,6.68,4.52.99.31,1.89.94,2.83,1.42,3.27,1.65,4.48,4.72,5.47,7.94.15.49-.55,1.22-1.09,1.12-.58-.1-1.21-.19-1.7-.48-1.03-.62-1.96-1.42-2.98-2.06-1.79-1.12-3.5-2.49-5.45-3.19-2.82-1.01-5.01-2.72-7.01-4.81-3.55-3.7-7.18-7.34-10.58-11.17-1.89-2.13-3.35-4.63-5.1-6.89-1.47-1.9-2.98-3.8-4.65-5.53-2.52-2.6-5.06-5.22-7.82-7.54-3.34-2.81-6.87-5.41-10.43-7.94-5.97-4.22-11.31-8.94-14.79-15.58-1.53-2.91-3.84-5.39-5.72-8.12-1.96-2.86-3.8-5.81-5.73-8.68-2.69-4-5.43-7.98-8.14-11.97-1.89-2.79-4.26-5.04-7.11-6.87-3.17-2.03-6.23-4.23-9.32-6.39-1.99-1.38-3.98-2.58-6.5-2.95-3.32-.5-6.24-2.19-9.1-3.91-1.55-.93-3.09-1.92-4.73-2.65-1.21-.54-2.6-1.03-3.88-.97-3.26.14-5.81-1.26-8.32-3.03-1.72-1.21-3.53-2.3-5.31-3.42-.51-.32-1.06-.74-1.61-.77-3.52-.21-6.06-2.53-8.97-4.05-2.53-1.32-5.1-2.59-7.71-3.75-2.34-1.03-4.77-1.86-7.16-2.8-2.56-1.01-5.22-1.55-7.96-1.55-3.07,0-5.96-.56-8.76-1.9-1.18-.56-2.61-.85-3.92-.84-5.81.08-11.35-1.39-16.92-2.69-4.84-1.13-9.67-2.36-14.56-3.26-2.5-.46-5.14-.56-7.66-.31-6.1.6-12.04-.2-17.97-1.45-4.86-1.03-9.73-1.98-14.59-2.98-1.18-.24-2.4-.41-3.51-.85-7.46-2.92-15.28-4.53-23.02-6.48-4.37-1.1-8.68-2.47-12.97-3.87-2.09-.68-4.16-.59-6.25-.37-1.95.21-3.91.44-5.81.89-2.67.63-5.32.97-8.07.71-1.87-.18-2.39.36-2.44,2.36-.05,2.26.08,4.52.19,6.78.05,1.05.4,2.11.34,3.14-.37,6.17-.83,12.33-1.26,18.49-.06.9-.36,1.81-.25,2.69.95,8.07,1.41,16.19,4.15,23.99,3.06,8.7,7.72,16.31,14.03,22.99,1.97,2.08,3.85,4.25,5.63,6.49,1.89,2.4,3.2,5.13,3.68,8.17.11.7-.06,1.47-.25,2.17-.19.7-1.47.84-1.89.28-.18-.24-.38-.48-.49-.75-2.86-7.17-7.83-12.84-13.03-18.33-1.78-1.88-3.27-3.91-4.71-6.05-3.22-4.79-5.72-9.96-7.75-15.29-1.49-3.91-2.58-8.08-3.11-12.23-1.11-8.84-1.53-17.74-.37-26.65.23-1.78.33-3.66.03-5.42-.82-4.82-.37-9.64-.32-14.46.04-3.62.2-7.25.59-10.84.98-8.99,1.22-18.04,2.35-27.03,1.05-8.37,1.65-16.82,1.6-25.29-.03-5.43.35-10.86-.3-16.28-.43-3.6-.86-7.19-1.18-10.8-.6-6.62-.57-13.23.07-19.87.41-4.35.37-8.75.48-13.12.19-7.53.21-15.07.54-22.6.17-3.9.92-7.77,1.3-11.67.45-4.65.87-9.3,1.14-13.96.41-7.07.78-14.14.99-21.22.16-5.12.22-10.23-.3-15.36-.42-4.17-.78-8.37-.57-12.62.17-3.43-.45-6.91-.75-10.37-.53-6.16-1.01-12.32-1.65-18.47-.7-6.74-1.32-13.49-2.52-20.19-1.22-6.82-1.86-13.75-3.25-20.53-1.28-6.21-2.13-12.47-2.89-18.75-.16-1.35-.45-2.7-.42-4.04.11-5.73.32-11.46.49-17.19.07-2.26.09-4.53.22-6.79.21-3.46.56-6.91.73-10.37.19-3.92.24-7.84.37-11.77.07-2.11.15-4.22.26-6.33.23-4.52.68-9.03.65-13.54-.02-3.97.68-7.81,1.21-11.69.12-.87.51-1.7.88-2.88Z"/>
  <path class="cls-1" d="m748.63,718.44c.85-7.95-1.04-15.62-2.34-23.32-1.08-6.39-2.38-12.74-3.41-19.14-.38-2.36-.47-4.83-.31-7.22.53-7.87,1.96-15.56,5.47-22.72,4.45-9.09,9.32-17.92,15.67-25.87,2.45-3.06,4.53-6.43,7.61-8.92,1.63-1.31,3.37-2.51,5.15-3.62,1.91-1.2,4.04-2.09,5.87-3.4,5.73-4.1,12.29-6.31,18.89-8.44,2.32-.75,4.5-1.64,6.41-3.23,1.86-1.55,3.87-2.83,6.47-2.94,1.01-.04,2.01-.6,3-.96,1.41-.52,2.8-1.13,4.22-1.62,6.67-2.28,6.67-2.24,13.46,0,1.42.47,2.92.67,4.38,1.02.51.13,1.44.02,1.1.92-.15.41-.89.75-1.41.83-1.81.27-3.58.1-5.31-.66-3.81-1.68-7.55-1.44-11.39.19-3.18,1.35-6.54,2.25-9.79,3.45-1.11.41-2.24.97-3.12,1.74-2.58,2.25-5.63,3.51-8.85,4.35-6.05,1.58-11.61,4.18-16.8,7.64-1.75,1.17-3.59,2.23-5.46,3.2-4.52,2.36-7.95,5.84-11.01,9.86-3.84,5.05-7.67,10.09-10.82,15.6-3.51,6.15-7.15,12.26-8.99,19.19-2.03,7.63-3.24,15.31-1.82,23.23,1.46,8.16,2.83,16.33,4.14,24.52.93,5.82,1.15,11.65.85,17.57-.31,6.31-1.11,12.61-.74,18.95.02.28-.08.61-.23.85-.15.23-.45.53-.66.51-.39-.04-.93-.19-1.09-.47-.29-.5-.46-1.13-.48-1.71-.04-1.5-.03-3.02.09-4.52.39-4.96.84-9.91,1.26-14.86Z"/>
  <path class="cls-1" d="m829.68,527.45c-1.35.15-2.7.25-4.04.45-9.8,1.44-18.98,4.84-27.9,8.97-3.84,1.78-7.75,3.31-11.74,4.72-3.4,1.2-6.71,2.71-9.95,4.3-5.78,2.85-9.44,7.87-12.87,13.07-.99,1.51-1.9,3.09-2.76,4.68-6.3,11.72-13.95,22.59-21.24,33.68-2.9,4.41-6.1,8.63-8.37,13.44-.5,1.06-1.39,1.93-2.16,2.85-.1.12-.54,0-.8-.06-.11-.03-.27-.23-.26-.34.06-.59.03-1.25.29-1.74,1.2-2.26,2.36-4.55,3.76-6.69,3.95-6.06,8-12.07,12.03-18.08,5.54-8.27,10.87-16.68,15.6-25.45,1.71-3.17,3.82-6.17,6.02-9.04,4.46-5.82,10.52-9.54,17.34-11.82,6.6-2.2,12.99-4.82,19.25-7.83,2.57-1.23,5.34-2.05,8.03-3.03,3.81-1.39,7.65-2.66,11.65-3.5,3.56-.75,7.07-1.27,10.73-.83,2.39.29,4.83.4,7.23.27,6.29-.33,12,1.49,17.12,4.89,6.82,4.53,12.91,9.94,17.79,16.59.26.36.47.75.67,1.15.05.1,0,.35-.07.39-.24.11-.65.31-.75.21-1.62-1.57-3.22-3.17-4.8-4.79-5.21-5.3-10.73-10.19-17.53-13.39-2.75-1.3-5.63-2.16-8.7-2.28-4.52-.17-9.04-.33-13.56-.49,0-.1,0-.2,0-.3Z"/>
  <path class="cls-1" d="m857.59,636.79c-1.27.21-2.09.48-2.9.46-4.52-.08-9.05-.12-13.57-.4-3.43-.21-6.49.14-9.29,2.51-2.31,1.96-5.17,3.02-8.3,3.26-3.23.25-6.1,1.43-8.72,3.4-3.97,2.98-8.11,5.74-12.08,8.74-3.63,2.75-6.7,6.07-9.1,9.97-1.42,2.31-2.89,4.59-4.3,6.92-4.23,7.01-6.39,14.57-6.12,22.81.17,5.13.19,10.26.25,15.38.05,4.25.69,8.41,1.87,12.49,2.68,9.27,5.56,18.47,8.96,27.5,1.71,4.53,3.54,8.98,7.01,12.53.2.2.4.55.36.79-.06.41-.24.84-.5,1.16-.14.17-.63.28-.81.17-.63-.38-1.37-.75-1.76-1.33-1.17-1.75-2.37-3.52-3.22-5.43-1.53-3.44-2.93-6.95-4.16-10.5-2.37-6.83-4.5-13.74-6.89-20.56-2.38-6.78-3.24-13.77-3.31-20.89-.04-4.22,0-8.45-.12-12.66-.16-5.39,1.18-10.43,3.19-15.36,2.06-5.05,4.73-9.74,7.68-14.33,3.41-5.3,7.97-9.43,12.84-13.24,3.2-2.5,6.7-4.63,10.02-6.99,2.26-1.61,4.69-2.72,7.46-3.01,3.54-.38,6.73-1.7,9.54-3.83,2.68-2.04,5.6-2.67,8.93-2.3,4.04.46,8.11.62,12.17.91,1.63.12,3.23.29,4.88,1.84Z"/>
  <path class="cls-1" d="m826.93,720.78c.09,1.2.07,2.43.29,3.6,1.3,6.69,1.62,13.47,1.79,20.25.13,5.06,1.36,9.82,3.28,14.46,1.44,3.48,2.9,6.96,4.08,10.54,1.2,3.66,3,6.91,5.59,9.73,7.13,7.76,12.17,16.83,16.55,26.32.57,1.23,1.25,2.42,1.72,3.69.36.96.53,2.01.64,3.03.03.3-.41.7-.72.96-.09.07-.6-.14-.7-.34-1.01-2.01-2.07-4.01-2.94-6.09-2.87-6.84-6.18-13.44-10.61-19.42-1.79-2.42-3.69-4.79-5.78-6.95-2.7-2.78-4.48-5.98-5.66-9.65-1.01-3.15-2.29-6.22-3.62-9.25-2.53-5.73-4.02-11.64-4.11-17.94-.09-6.79-.7-13.56-1.87-20.25-.8-4.58.16-8.69,2.51-12.56,5.55-9.12,12.53-16.97,21.09-23.39,2.04-1.53,4.2-2.32,6.74-1.91.3.05.61.03.9.1,4.15,1.07,8.34,1.19,12.58.59.54-.08,1.13.22,1.69.38.08.02.13.24.15.37.01.13,0,.3-.07.41-.08.12-.21.24-.35.28-4.28,1.12-8.63,1.75-12.97.69-3.62-.89-6.34.3-9.15,2.47-7.28,5.6-12.95,12.58-18.06,20.1-2.02,2.98-3.17,6.15-2.97,9.78Z"/>
  <path class="cls-1" d="m404.87,362.43c-2.34-.52-4.76-.81-7-1.61-4.54-1.63-9.03-3.42-13.45-5.36-5.66-2.48-10.23-6.27-13.38-11.7-2.34-4.05-4.89-7.97-7.31-11.98-1.02-1.7-1.73-3.53-1.71-5.55,0-.39.4-1.1.58-1.09.52.03,1.22.22,1.49.6.43.58.58,1.37.81,2.08,1.29,4.02,7.45,14.91,10.31,17.94,2.91,3.09,6.1,5.84,10.12,7.48,4.05,1.65,8.06,3.41,12.11,5.05,1.25.51,2.6,1.08,3.9,1.08,4.67,0,9.34-.13,14.01-.4,3.28-.19,6-1.94,8.6-3.78,2.75-1.94,5.6-3.5,9.04-3.85,2.01-.2,3.59-1.45,5.13-2.7,1.52-1.23,3.05-2.51,4.77-3.41,2.09-1.1,3.64-2.62,4.95-4.51,2.51-3.63,4.34-7.58,5.84-11.7.36-.98.87-1.91,1.37-2.82.07-.13.5-.1.76-.08.1,0,.21.21.25.34.04.14.05.31.01.45-1.64,6.68-4.33,12.86-8.82,18.15-.76.89-1.77,1.69-2.82,2.17-2.25,1.02-4.15,2.48-5.88,4.16-1.7,1.64-3.63,2.75-5.97,2.9-2.52.16-4.65,1.19-6.67,2.56-.5.34-1.02.65-1.51,1-3.65,2.68-7.72,3.98-12.26,3.92-2.4-.03-4.81.15-7.21.24-.02.14-.04.28-.06.43Z"/>
  <path class="cls-1" d="m487.71,282.85c.02,4.43-.81,8.73-1.58,13.04-.32,1.78-.65,3.56-1.02,5.33-.2.96-.91,1.5-1.53,1.23-.67-.29-.73-.86-.6-1.48.37-1.77.75-3.54,1.13-5.31,1.54-7.15,1.8-14.31.71-21.59-.76-5.06-1.05-10.2-1.31-15.32-.31-5.97-1.89-11.57-4.14-17.05-1.93-4.69-5.43-7.96-9.58-10.54-8.32-5.18-16.74-10.2-25.11-15.3-.9-.55-1.8-1.13-2.56-1.85-3.5-3.32-7.7-4.58-12.42-4.49-.88.02-1.77-.09-2.65-.16-.08,0-.17-.2-.2-.33-.03-.14-.07-.37,0-.44.22-.19.47-.38.75-.46,4.6-1.45,8.95-.9,12.95,1.81,8.87,6,18.04,11.52,27.17,17.09,1.16.71,2.24,1.53,3.4,2.24,6.41,3.91,10.19,9.7,12.09,16.83,1.21,4.52,2.09,9.08,2.35,13.79.28,5.11.91,10.2,1.39,15.3.24,2.55.49,5.1.73,7.65Z"/>
  <path class="cls-1" d="m372.76,277.62c-.37-.4-.71-.59-.74-.83-.52-3.91-.86-7.93.23-11.69.95-3.27,2.75-6.34,4.49-9.32,1.13-1.93,2.73-3.61,4.26-5.28,2.08-2.28,4.63-3.85,7.7-4.47,6.11-1.24,11.83-3.57,17.37-6.37,4.43-2.24,8.88-2.68,13.51-.65,1.38.6,2.83,1.02,4.26,1.51.71.24,1.5.33,2.15.68,6.25,3.36,12.43,6.81,17.29,12.18,2.66,2.94,4.1,6.28,4.24,10.21.05,1.35.16,2.71.12,4.06,0,.29-.54.8-.82.79-.34,0-.89-.41-.96-.73-.22-1.02-.38-2.08-.35-3.11.14-4.21-1.42-7.68-4.53-10.42-5.8-5.11-11.97-9.66-19.55-11.87-1.45-.42-2.9-.86-4.28-1.46-2.21-.97-4.39-.93-6.6-.13-1.56.57-3.18,1.02-4.65,1.78-5.67,2.94-11.81,4.58-17.83,6.51-2.1.67-3.87,1.62-5.36,3.17-4.14,4.33-7.27,9.27-8.54,15.17-.57,2.63-.6,5.37-.91,8.06-.08.7-.31,1.38-.51,2.21Z"/>
  <path class="cls-1" d="m296.87,250.03c.18-2.79.35-5.03.45-7.27.08-1.87.79-3.49,1.73-5.07,2.53-4.27,5.07-8.54,7.49-12.88,2.21-3.96,4.65-7.73,7.67-11.13,2.55-2.87,5.5-5.18,9-6.69,9.12-3.92,18.01-8.39,27.37-11.78,3.19-1.16,6.47-1.27,9.71-1.87.23-.04.69.2.74.38.1.39.15.96-.06,1.24-.76,1.01-1.87,1.58-3.13,1.52-4.84-.22-9.12,1.57-13.41,3.5-5.22,2.35-10.49,4.59-15.78,6.77-7.81,3.22-13.8,8.46-17.95,15.83-3.18,5.64-6.56,11.17-9.6,16.89-1.1,2.08-1.47,4.55-2.14,6.85-.32,1.11-.2,2.4-2.1,3.71Z"/>
  <path class="cls-1" d="m417.51,320.15c-1.36-.07-2.71-.18-4.07-.19-2.65-.04-5.02-.88-7.23-2.31-2.15-1.4-4.28-2.85-6.55-4.03-2.83-1.47-4.77-3.69-6.03-6.51-1.73-3.89-2.86-7.95-2.86-12.25,0-.89.1-1.83.4-2.65.18-.49.82-1.16,1.25-1.15,1.02.01.97.93.85,1.68-.62,3.99.17,7.79,1.45,11.55,1.01,2.98,2.76,5.32,5.45,6.98,2.05,1.27,4.08,2.58,6.07,3.95,1.66,1.14,3.47,1.78,5.43,2.1,6.24,1.01,12.43.37,18.36-1.47,4.51-1.39,8.35-4.1,10.61-8.61,1.01-2.01,2.36-3.85,3.58-5.74.51-.79.46-2.18,1.99-1.93-.02.87.09,1.76-.1,2.59-.2.86-.58,1.75-1.1,2.47-1.58,2.2-3.05,4.46-4.19,6.92-.24.52-.71,1-1.17,1.36-3.81,2.99-7.6,6-12.7,6.49-3.14.3-6.28.7-9.42,1.05-.01-.1-.02-.19-.03-.29Z"/>
  <path class="cls-1" d="m655.76,599.28c-1.54,1.15-2.32,1.83-3.21,2.34-.29.17-.96.03-1.22-.22-.25-.23-.35-.81-.27-1.19.12-.57.42-1.12.69-1.65,2.62-5.1,5.3-10.16,6.99-15.68.21-.68.67-1.33,1.16-1.85.16-.18,1.1-.01,1.13.13.24,1.01.54,2.07.46,3.08-.45,5.56-.97,11.11-1.53,16.66-.41,4.06-1.22,8.05-2.61,11.89-.35.98-.79,2-1.45,2.76-.37.43-1.33.55-1.97.45-.31-.05-.54-.91-.7-1.43-.07-.25.14-.57.2-.87.62-3.11,1.27-6.2,1.82-9.32.26-1.47.3-2.97.5-5.11Z"/>
  <path class="cls-1" d="m509.22,602.03c-.14,3.8-.2,6.78-.38,9.74-.07,1.18-.34,2.36-.64,3.51-.08.29-.66.65-.96.61-.34-.04-.71-.46-.9-.8-.21-.38-.26-.86-.32-1.3-.86-5.79-2.04-11.55-1.14-17.46.18-1.18.07-2.4.16-3.6.12-1.65.04-3.37.52-4.92.53-1.73.09-3.97,2.21-5.02,1.54,1.33,1.37,3.28,1.66,5,.84,4.92,2.34,9.63,4.26,14.22.35.83.75,1.66.89,2.53.08.49-.19,1.29-.57,1.52-.38.24-1.3.16-1.62-.15-.94-.94-1.71-2.05-3.16-3.87Z"/>
  <path class="cls-1" d="m921.19,759.39c-.06.29-.06.62-.21.86-.11.18-.41.27-.64.33-.1.03-.33-.07-.37-.17-.23-.55-.53-1.1-.59-1.67-.8-7.29-3.22-14.07-6.24-20.69-2.21-4.83-5.57-8.51-10.05-11.33-5.51-3.46-11.22-6.49-17.28-8.86-1.25-.49-2.43-1.19-3.56-1.93-.46-.3-.81-.9-.99-1.44-.11-.33.14-.84.37-1.18.09-.14.65-.2.79-.07,2.81,2.46,6.39,3.32,9.69,4.77,5.27,2.31,10.18,5.29,14.78,8.74,4.19,3.14,7.27,7.21,9.01,12.21.3.85.61,1.71,1.03,2.51,2.83,5.32,3.47,11.18,4.26,17.01.04.3,0,.6,0,.9Z"/>
  <path class="cls-1" d="m497.65,619.49c-.07.35,0,.94-.27,1.18-.37.33-1.31.68-1.42.54-.74-.91-1.58-1.87-1.92-2.96-.9-2.87-1.83-5.78-2.27-8.74-.81-5.52-1.3-11.08-1.85-16.63-.12-1.18-.08-2.43.19-3.58.13-.56.93-1.3,1.48-1.34.58-.05,1.34.52,1.79,1.03.35.4.4,1.11.49,1.7.19,1.19.32,2.39.48,3.59.89,6.72,1.78,13.44,2.66,20.17.22,1.64.42,3.29.64,5.04Z"/>
  <path class="cls-1" d="m332.42,719.68c-1.26-.21-2.66-.23-3.92-.68-4.53-1.61-9.02-3.3-13.04-6.07-2.84-1.96-5.77-3.82-8.79-5.5-3.06-1.71-5.17-4.15-6.3-7.38-1.78-5.12-3.39-10.29-5.05-15.45-.23-.71-.31-1.47-.4-2.22-.26-2.25.07-3.25.95-2.94,1.32.47,1,1.67,1.24,2.64.58,2.33,1.12,4.67,1.84,6.96.99,3.15,2.08,6.28,3.21,9.39,1.01,2.78,2.83,4.9,5.36,6.48,3.83,2.39,7.47,5.11,11.42,7.28,4.87,2.68,9.9,5.12,15.6,5.59.2.02.51.35.52.55,0,.24-.2.63-.4.7-.69.26-1.42.41-2.25.63Z"/>
  <path class="cls-1" d="m290.93,560.36c3.12-2.55,6.08-3.17,9.08-1.94,1.66.68,3.23,1.63,4.78,2.55,3.23,1.92,6.38,4.01,9.66,5.85,2.99,1.68,5.32,3.83,6.82,6.98,1.23,2.58,2.72,5.04,4.18,7.51,3.35,5.67,2.6,11.26-.28,16.8-.16.3-.88.64-1.05.53-.43-.28-1.01-.85-.96-1.23.1-.87.49-1.72.86-2.53,2.03-4.46,1.76-8.76-.77-12.96-1.7-2.84-3.28-5.76-4.95-8.62-1.02-1.75-2.55-2.98-4.35-3.85-3.96-1.9-7.68-4.18-11.16-6.86-2.76-2.13-5.87-3-9.35-2.49-.68.1-1.37.14-2.51.25Z"/>
  <path class="cls-1" d="m364.33,602c.1-4.01-.97-7.61-2.39-11.13-.68-1.68-1.53-3.3-2.06-5.02-.34-1.1-.25-2.33-.33-3.51,0-.11.17-.35.23-.34.28.03.56.12.83.23.12.05.24.2.3.33,1.45,3.64,3,7.25,4.31,10.94,1.43,4.04,1.82,8.16.96,12.45-.89,4.47-1.9,8.88-4.2,12.84-1.28,2.2-2.71,4.4-4.45,6.24-2.9,3.06-6.08,5.85-9.19,8.7-.22.2-.92.17-1.18-.03-.27-.22-.48-.86-.35-1.16.29-.67.73-1.33,1.26-1.84,1.62-1.58,3.22-3.2,5-4.6,6.7-5.29,9.79-12.46,10.96-20.65.17-1.19.23-2.4.32-3.45Z"/>
  <path class="cls-1" d="m668.57,594.26c-.53,2.69-1.07,5.95-1.82,9.15-1.1,4.68-2.51,9.27-4.6,13.61-.91,1.89-1.84,3.81-3.66,5.03-.31.21-.97.27-1.25.08-.28-.19-.48-.84-.38-1.19.7-2.45,1.53-4.86,2.23-7.31,1.61-5.62,3.13-11.26,4.77-16.87.45-1.56,1.09-3.08,1.81-4.54.19-.38,1.07-.68,1.55-.59.45.09.83.72,1.15,1.17.15.22.09.58.2,1.45Z"/>
  <path class="cls-1" d="m354.12,683.36c-3.63.17-7.26.21-10.77-.86-2-.61-3.91-1.52-5.8-2.44-.36-.17-.58-1.01-.55-1.52.03-.69,1.02-1.04,1.81-.77.14.05.29.1.41.18,4.19,2.62,8.89,2.58,13.58,2.57,2.56,0,5.12-.02,7.68,0,2.16.02,4.18-.49,6.1-1.46.67-.34,1.36-.65,2.05-.96,4.52-2.03,9.32-3.57,12.81-7.4.13-.14.6-.12.8,0,.17.11.33.56.24.72-.35.66-.7,1.35-1.21,1.87-2.44,2.5-5.11,4.63-8.53,5.74-2,.65-3.94,1.53-5.81,2.5-2.77,1.44-5.66,1.97-8.74,1.82-1.35-.06-2.71-.01-4.07-.01Z"/>
  <path class="cls-1" d="m504.6,621.07c.01,2.27-.63,3.61-1.44,3.42-1.27-.3-1.4-1.43-1.62-2.45-1.92-8.81-3.62-17.65-4.45-26.63-.14-1.48-.02-2.99.1-4.48.03-.32.55-.85.86-.86.53-.01,1.35.16,1.54.52.48.91.79,1.94.97,2.96.47,2.66.83,5.34,1.23,8.01.82,5.49,1.63,10.99,2.44,16.48.17,1.19.3,2.38.38,3.04Z"/>
  <path class="cls-1" d="m265.88,662.48c0-1.96.03-3.92,0-5.88-.08-4.66,1.05-8.97,3.75-12.81,2.17-3.09,4.31-6.19,6.56-9.22.6-.81,1.54-1.39,2.37-2.02.13-.1.6.07.77.25.18.18.32.57.24.79-.15.41-.46.76-.71,1.13-2.32,3.34-4.71,6.65-6.96,10.04-2.31,3.48-3.41,7.37-3.48,11.55-.07,3.92-.06,7.85-.22,11.76-.16,3.86.23,7.54,2.61,10.77.2.27.05.79.07,1.19-.4-.04-.9.07-1.18-.13-2.41-1.69-3.37-4.24-3.61-7-.22-2.55-.1-5.12-.12-7.69,0-.91,0-1.81,0-2.72-.02,0-.05,0-.07,0Z"/>
  <path class="cls-1" d="m274.27,594c1.34.37,3.05.82,4.75,1.34.18.05.39.56.32.75-.13.36-.41.84-.72.93-.56.15-1.21.16-1.77.04-3.2-.73-6.36-.31-9.37.66-3.43,1.11-6.76,2.57-10.07,4-2.15.93-3.76,2.63-4.66,4.76-2.19,5.22-6.12,9.32-8.92,14.15-.16.27-.68.32-1.03.48-.04-.42-.25-.92-.1-1.25.94-2.05,1.94-4.07,2.98-6.07,1.25-2.4,2.74-4.69,3.81-7.17,1.26-2.91,3.17-5.17,5.93-6.6,4.16-2.15,8.44-4.04,13.02-5.14,1.75-.42,3.56-.55,5.83-.88Z"/>
  <path class="cls-1" d="m381.29,402.87c-2.36-.08-4.51-.63-6.56-1.71-6.66-3.51-13.34-6.98-19.99-10.51-8.34-4.42-11.94-11.95-13.45-20.8-.05-.29-.07-.64.05-.89.17-.36.43-.86.73-.92.29-.06.91.28.99.57.43,1.44.63,2.95,1.1,4.38.75,2.28,1.5,4.59,2.53,6.75,1.66,3.47,4.22,6.25,7.55,8.2,7.41,4.34,14.97,8.42,22.84,11.87,1.36.6,2.89.81,4.31,1.29.73.25,2.02-.11,1.86,1.22-.03.26-1.27.38-1.96.56Z"/>
  <path class="cls-1" d="m431.15,282.2c-.57-2.45-.96-4.99-1.75-7.4-1.33-4.06-5.4-4.92-8.37-4.76-.63.03-1.27.68-1.84,1.12-.7.54-1.3,1.24-2.04,1.73-.25.17-.83-.04-1.19-.22-.16-.08-.28-.62-.17-.78.86-1.22,1.64-2.56,2.74-3.54.7-.63,1.95-1.06,2.87-.93,1.76.24,3.48.86,5.17,1.45,2.63.91,4.2,2.9,4.95,5.49,1.39,4.85,1.81,9.71.06,14.63-2.11,5.94-9.62,7.86-13.88,3.44-.3-.31-.52-.76-.62-1.18-.05-.22.16-.58.36-.78.19-.19.54-.4.76-.34.42.1.88.29,1.17.59,1.49,1.53,3.2,2.3,5.3,1.56,2.2-.77,4.13-2,4.94-4.31.64-1.83,1.01-3.75,1.53-5.78Z"/>
  <path class="cls-1" d="m674.15,592.51c-.64,5.9-1.05,11.47-3.01,16.73-.78,2.08-1.96,4.02-3.05,5.97-.38.68-1.29,1.12-1.91.6-.44-.36-.55-1.29-.57-1.98-.02-.57.3-1.15.49-1.72,1.93-5.7,3.22-11.56,4.18-17.5.19-1.18.4-2.4.88-3.47.24-.54,1.09-1.04,1.72-1.12.89-.11,1.18.74,1.26,1.52.05.44,0,.9,0,.97Z"/>
  <path class="cls-1" d="m325.17,297.68c-.44-.04-.68,0-.73-.07-4.44-7.33-6.05-14.94-2.52-23.17,1.9-4.42,3.56-8.94,5.35-13.41.85-2.11,1.85-4.16,3.66-5.62.66-.53,1.57-.76,2.4-1.04.2-.07.61.15.75.35.12.19.09.59-.04.8-.31.51-.68,1-1.1,1.43-2.4,2.39-3.97,5.28-5.21,8.38-1.39,3.49-2.75,7-4.15,10.49-2.12,5.31-1.75,10.61-.03,15.91.42,1.29.99,2.52,1.39,3.82.2.65.16,1.38.23,2.13Z"/>
  <path class="cls-1" d="m785.16,235.74c-.28,3.94-1.04,7.76-2.79,11.32-.14.28-.77.38-1.18.41-.14.01-.48-.47-.45-.68.13-1.03.32-2.05.57-3.06.43-1.74.92-3.47,1.38-5.21.85-3.22.21-6.28-1.18-9.19-1.37-2.85-2.92-5.61-4.31-8.45-1.24-2.54-3.05-4.43-5.65-5.58-.14-.06-.22-.57-.12-.77.11-.22.49-.48.7-.44,1.97.36,3.71,1.22,4.98,2.81.74.94,1.4,1.96,1.98,3.02,1.38,2.51,2.64,5.07,4.03,7.57,1.44,2.58,1.88,5.37,2.06,8.25Z"/>
  <path class="cls-1" d="m800.5,204.88c.22-.77.53-1.77.81-2.78.41-1.53.31-2.96-.69-4.29-1.99-2.64-3.87-5.36-5.94-7.94-2.54-3.17-5.23-6.22-7.82-9.35-.24-.29-.22-.78-.33-1.18.38,0,.96-.16,1.12.03,4.88,5.72,10.75,10.57,14.81,17.01,2.25,3.57,2.27,6.5-.16,10.01-.19.28-.79.34-1.21.35-.16,0-.37-.43-.46-.7-.09-.28-.07-.59-.13-1.16Z"/>
  <path class="cls-1" d="m758.25,382.27c-12.72.11-18.46-10.58-18.18-19.19.02-.55.4-1.09.65-1.61.05-.1.27-.2.38-.17.25.05.63.13.68.29.2.55.31,1.14.39,1.72.22,1.48.31,2.99.63,4.44,1.63,7.33,6.44,11.28,13.62,12.66,1.16.22,2.32.48,3.48.75.08.02.13.25.15.38.02.12,0,.36-.05.37-.72.17-1.45.31-1.75.37Z"/>
  <path class="cls-1" d="m723.64,316.14c-.81-.97-1.37-1.43-1.65-2.02-1.33-2.83-1.45-5.87-.9-8.85.65-3.54,1.57-7.04,2.55-10.51.57-2.03,1.47-3.99,3.4-5.16.61-.37,1.38-.52,2.09-.67.21-.04.51.24.72.43.07.06.02.3-.04.43-.11.27-.2.61-.42.77-2.25,1.59-3.14,3.96-3.79,6.47-.64,2.47-1.28,4.94-1.92,7.42-.79,3.11-1.03,6.22-.07,9.36.16.52.02,1.14.02,2.33Z"/>
  <path class="cls-1" d="m729.99,255.95c-.17.23-.29.57-.51.67-2.59,1.16-5.1,2.65-7.81,3.33-4.64,1.16-7.7,3.83-9.51,8.12-.41.96-.61,2.02-1.05,2.96-.29.63-.76,1.25-1.3,1.68-.43.35-.76-.84-.41-2.21.26-1.02.55-2.02.83-3.03,1.21-4.38,3.89-7.51,8.26-8.75,3.18-.9,6.28-1.93,9.29-3.29.51-.23,1.18-.14,1.77-.09.17.01.3.39.45.61Z"/>
  <path class="cls-1" d="m813.47,374.6c-5.21-.03-8.91-.52-12.31-2.36-.52-.28-1.07-.59-1.47-1.02-.25-.27-.45-.99-.3-1.14.36-.37.98-.78,1.42-.7.7.11,1.35.6,2.02.93,3.74,1.83,7.7,2.42,11.82,2.16,3.27-.2,6.14-1.33,8.53-3.61.33-.31.64-.65,1.01-.89.19-.12.62-.14.74-.02.14.15.19.61.06.76-3.89,4.56-6.15,5.78-11.53,5.9Z"/>
  <path class="cls-1" d="m835.4,320.23c-.23,3.49-2.1,6.01-3.92,8.53-.91,1.26-2.26,2.03-3.8,2.22-3.12.39-6.25.71-9.39.96-.71.06-1.49-.21-2.17-.48-.3-.12-.63-.69-.57-.99.06-.31.53-.73.87-.78,2.82-.37,5.66-.98,8.48-.9,3.11.09,5.11-1.28,6.81-3.57,1.23-1.66,2.46-3.32,3.69-4.98Z"/>
  <path class="cls-1" d="m777.63,316.95c-6.12,3.28-11.83,3.12-16.13-.1-2.64-1.98-3.78-4.63-3.36-7.88.05-.4.74-.82,1.22-1.01.18-.07.79.42.88.74.21.71.19,1.49.3,2.23.36,2.44,1.73,4.13,3.93,5.15,2.21,1.02,4.5,1.59,7,1.19,1.84-.29,3.73-.57,6.16-.32Z"/>
  <path class="cls-1" d="m803.97,272.51c.18.52.42.84.34,1.04-1.39,3.68-3.41,6.97-6.11,9.84-1.38,1.46-3.08,2.49-5.01,2.81-2.35.39-4.75.52-7.13.58-.58.01-1.62-.68-1.66-1.12-.08-.83.82-1.08,1.62-1.07,1.05.01,2.1.06,3.14.04,4.37-.06,7.78-1.95,10.25-5.51,1.19-1.72,2.25-3.54,3.4-5.29.29-.45.71-.82,1.17-1.32Z"/>
  <path class="cls-1" d="m725.3,225.29c2.29-.18,4.54-.03,6.58,1.13.62.35,1.11.98,1.58,1.55.13.15.07.61-.08.81-.15.21-.49.33-.76.37-.28.04-.62,0-.87-.11-5.97-2.92-11.69-1.79-17.3,1.06-.13.07-.26.16-.4.2-.73.22-1.36,1.58-2.15.35-.17-.27.54-1.33,1.07-1.76,2.52-2.08,5.55-2.95,8.72-3.37,1.19-.16,2.4-.15,3.61-.22Z"/>
  <path class="cls-1" d="m664.81,225.01c-.21-.37-.36-.56-.33-.6,2.83-3.69,6.04-6.96,10.51-8.59,1.06-.38,2.33-.18,3.51-.18.2,0,.6.4.56.54-.08.37-.31.97-.54,1-3.75.44-6.59,2.66-9.5,4.74-1.41,1.01-2.8,2.05-4.22,3.1Z"/>
  <path class="cls-1" d="m519.69,879.8c1.37-.07,2.27.87,2.02,1.73-.64,2.15-1.29,4.31-2.08,6.41-.16.41-.92.73-1.45.81-.29.05-.87-.41-.98-.75-.83-2.57-.71-5.07,1.02-7.26.42-.53,1.2-.77,1.48-.94Z"/>
  <path class="cls-1" d="m511.33,884.07c.29-1.6.33-3.5,2.14-4.51.44-.25,1.13-.24,1.63-.09.23.07.43.78.39,1.16-.26,2.07-.59,4.12-.93,6.18-.12.74-1.13.99-1.77.51-1.04-.78-1.5-1.81-1.45-3.24Z"/>
  <path class="cls-1" d="m652.34,882.4c.59.16.96.14,1.15.32,1.92,1.77,3.25,3.84,3.08,6.59-.02.28-.22.54-.35.81-.33.69-1.5.83-1.85.16-1.08-2.11-2.15-4.22-3.05-6.41-.13-.32.7-1.03,1.02-1.47Z"/>
  <path class="cls-1" d="m651.38,890.29c-.28.31-.66.95-1.23,1.28-.75.43-1.78-.08-2.15-1.01-.8-2.05-1.53-4.13-2.24-6.22-.07-.2.12-.58.3-.75.18-.17.56-.31.78-.24,2.13.67,4.57,4.23,4.54,6.94Z"/>
</svg>